<svg width="24" height="24" viewBox="0 0 24 24" fill="none" xmlns="http://www.w3.org/2000/svg">
<path d="M13.9621 3.20511C13.9621 4.42296 12.9748 5.41022 11.757 5.41022C10.5391 5.41022 9.55187 4.42296 9.55187 3.20511C9.55187 1.98726 10.5391 1 11.757 1C12.9748 1 13.9621 1.98726 13.9621 3.20511Z" fill="#52FCFF"/>
<path d="M19.2407 4.98449C19.2407 6.10829 18.3297 7.01932 17.2059 7.01932C16.0821 7.01932 15.1711 6.10829 15.1711 4.98449C15.1711 3.86068 16.0821 2.94966 17.2059 2.94966C18.3297 2.94966 19.2407 3.86068 19.2407 4.98449Z" fill="#52FCFF"/>
<path d="M22.3738 9.51391C22.3738 10.5437 21.539 11.3785 20.5093 11.3785C19.4795 11.3785 18.6447 10.5437 18.6447 9.51391C18.6447 8.48415 19.4795 7.64936 20.5093 7.64936C21.539 7.64936 22.3738 8.48415 22.3738 9.51391Z" fill="#52FCFF"/>
<path d="M20.5093 17.0317C21.445 17.0317 22.2036 16.2732 22.2036 15.3374C22.2036 14.4017 21.445 13.6432 20.5093 13.6432C19.5736 13.6432 18.815 14.4017 18.815 15.3374C18.815 16.2732 19.5736 17.0317 20.5093 17.0317Z" fill="#52FCFF"/>
<path d="M18.7299 19.8668C18.7299 20.7085 18.0476 21.3908 17.2059 21.3908C16.3642 21.3908 15.6819 20.7085 15.6819 19.8668C15.6819 19.0251 16.3642 18.3428 17.2059 18.3428C18.0476 18.3428 18.7299 19.0251 18.7299 19.8668Z" fill="#52FCFF"/>
<path d="M11.757 23C12.5046 23 13.1107 22.3939 13.1107 21.6463C13.1107 20.8986 12.5046 20.2926 11.757 20.2926C11.0093 20.2926 10.4033 20.8986 10.4033 21.6463C10.4033 22.3939 11.0093 23 11.757 23Z" fill="#52FCFF"/>
<path d="M7.49998 19.8668C7.49998 20.5204 6.97014 21.0503 6.31655 21.0503C5.66295 21.0503 5.13311 20.5204 5.13311 19.8668C5.13311 19.2132 5.66295 18.6834 6.31655 18.6834C6.97014 18.6834 7.49998 19.2132 7.49998 19.8668Z" fill="#52FCFF"/>
<path d="M3.01316 16.3506C3.57271 16.3506 4.02632 15.897 4.02632 15.3374C4.02632 14.7779 3.57271 14.3243 3.01316 14.3243C2.45361 14.3243 2 14.7779 2 15.3374C2 15.897 2.45361 16.3506 3.01316 16.3506Z" fill="#52FCFF"/>
<path d="M3.85604 9.51391C3.85604 9.97942 3.47867 10.3568 3.01316 10.3568C2.54765 10.3568 2.17028 9.97942 2.17028 9.51391C2.17028 9.0484 2.54765 8.67103 3.01316 8.67103C3.47867 8.67103 3.85604 9.0484 3.85604 9.51391Z" fill="#52FCFF"/>
<path d="M6.31655 5.65709C6.68801 5.65709 6.98915 5.35595 6.98915 4.98449C6.98915 4.61302 6.68801 4.31189 6.31655 4.31189C5.94508 4.31189 5.64395 4.61302 5.64395 4.98449C5.64395 5.35595 5.94508 5.65709 6.31655 5.65709Z" fill="#52FCFF"/>
<path d="M14.6006 9.95662C15.2212 9.95662 15.7244 9.45346 15.7244 8.83278C15.7244 8.2121 15.2212 7.70894 14.6006 7.70894C13.9799 7.70894 13.4767 8.2121 13.4767 8.83278C13.4767 9.45346 13.9799 9.95662 14.6006 9.95662Z" fill="#52FCFF"/>
<path d="M17.4612 11.3359C17.4612 11.9048 17 12.3661 16.4311 12.3661C15.8621 12.3661 15.4009 11.9048 15.4009 11.3359C15.4009 10.7669 15.8621 10.3057 16.4311 10.3057C17 10.3057 17.4612 10.7669 17.4612 11.3359Z" fill="#52FCFF"/>
<path d="M16.4311 15.5077C16.9483 15.5077 17.3676 15.0884 17.3676 14.5712C17.3676 14.0539 16.9483 13.6346 16.4311 13.6346C15.9138 13.6346 15.4945 14.0539 15.4945 14.5712C15.4945 15.0884 15.9138 15.5077 16.4311 15.5077Z" fill="#52FCFF"/>
<path d="M15.4435 17.0743C15.4435 17.5398 15.0661 17.9172 14.6006 17.9172C14.1351 17.9172 13.7577 17.5398 13.7577 17.0743C13.7577 16.6088 14.1351 16.2314 14.6006 16.2314C15.0661 16.2314 15.4435 16.6088 15.4435 17.0743Z" fill="#52FCFF"/>
<path d="M11.5866 18.8111C12.0004 18.8111 12.3358 18.4756 12.3358 18.0619C12.3358 17.6481 12.0004 17.3126 11.5866 17.3126C11.1728 17.3126 10.8374 17.6481 10.8374 18.0619C10.8374 18.4756 11.1728 18.8111 11.5866 18.8111Z" fill="#52FCFF"/>
<path d="M9.21976 17.0742C9.21976 17.4363 8.92625 17.7298 8.56418 17.7298C8.20212 17.7298 7.90861 17.4363 7.90861 17.0742C7.90861 16.7122 8.20212 16.4187 8.56418 16.4187C8.92625 16.4187 9.21976 16.7122 9.21976 17.0742Z" fill="#52FCFF"/>
<path d="M6.7337 15.1331C7.04404 15.1331 7.29562 14.8815 7.29562 14.5712C7.29562 14.2608 7.04404 14.0092 6.7337 14.0092C6.42336 14.0092 6.17178 14.2608 6.17178 14.5712C6.17178 14.8815 6.42336 15.1331 6.7337 15.1331Z" fill="#52FCFF"/>
<path d="M7.20197 11.3359C7.20197 11.5945 6.99232 11.8041 6.73371 11.8041C6.47509 11.8041 6.26544 11.5945 6.26544 11.3359C6.26544 11.0773 6.47509 10.8676 6.73371 10.8676C6.99232 10.8676 7.20197 11.0773 7.20197 11.3359Z" fill="#52FCFF"/>
<path d="M8.56421 9.20737C8.7711 9.20737 8.93882 9.03965 8.93882 8.83276C8.93882 8.62587 8.7711 8.45815 8.56421 8.45815C8.35732 8.45815 8.1896 8.62587 8.1896 8.83276C8.1896 9.03965 8.35732 9.20737 8.56421 9.20737Z" fill="#52FCFF"/>
<path d="M12.8127 7.8452C12.8127 8.5223 12.2638 9.07121 11.5867 9.07121C10.9096 9.07121 10.3607 8.5223 10.3607 7.8452C10.3607 7.1681 10.9096 6.61919 11.5867 6.61919C12.2638 6.61919 12.8127 7.1681 12.8127 7.8452Z" fill="#52FCFF"/>
<path d="M12.8896 11.6508C13.1717 11.6508 13.4004 11.4221 13.4004 11.14C13.4004 10.8578 13.1717 10.6291 12.8896 10.6291C12.6075 10.6291 12.3788 10.8578 12.3788 11.14C12.3788 11.4221 12.6075 11.6508 12.8896 11.6508Z" fill="#52FCFF"/>
<path d="M14.1837 12.2723C14.1837 12.5309 13.974 12.7406 13.7154 12.7406C13.4568 12.7406 13.2472 12.5309 13.2472 12.2723C13.2472 12.0137 13.4568 11.804 13.7154 11.804C13.974 11.804 14.1837 12.0137 14.1837 12.2723Z" fill="#52FCFF"/>
<path d="M13.7154 14.1539C13.9505 14.1539 14.1411 13.9633 14.1411 13.7282C14.1411 13.4931 13.9505 13.3025 13.7154 13.3025C13.4803 13.3025 13.2897 13.4931 13.2897 13.7282C13.2897 13.9633 13.4803 14.1539 13.7154 14.1539Z" fill="#52FCFF"/>
<path d="M13.2727 14.8606C13.2727 15.0722 13.1012 15.2437 12.8896 15.2437C12.678 15.2437 12.5065 15.0722 12.5065 14.8606C12.5065 14.649 12.678 14.4774 12.8896 14.4774C13.1012 14.4774 13.2727 14.649 13.2727 14.8606Z" fill="#52FCFF"/>
<path d="M11.5359 15.6438C11.724 15.6438 11.8765 15.4914 11.8765 15.3033C11.8765 15.1152 11.724 14.9627 11.5359 14.9627C11.3478 14.9627 11.1953 15.1152 11.1953 15.3033C11.1953 15.4914 11.3478 15.6438 11.5359 15.6438Z" fill="#52FCFF"/>
<path d="M10.4717 14.8606C10.4717 15.0251 10.3382 15.1586 10.1737 15.1586C10.0091 15.1586 9.87568 15.0251 9.87568 14.8606C9.87568 14.696 10.0091 14.5626 10.1737 14.5626C10.3382 14.5626 10.4717 14.696 10.4717 14.8606Z" fill="#52FCFF"/>
<path d="M9.3478 13.9836C9.48886 13.9836 9.60321 13.8693 9.60321 13.7282C9.60321 13.5871 9.48886 13.4728 9.3478 13.4728C9.20673 13.4728 9.09238 13.5871 9.09238 13.7282C9.09238 13.8693 9.20673 13.9836 9.3478 13.9836Z" fill="#52FCFF"/>
<path d="M9.56064 12.2723C9.56064 12.3899 9.46535 12.4852 9.3478 12.4852C9.23024 12.4852 9.13495 12.3899 9.13495 12.2723C9.13495 12.1548 9.23024 12.0595 9.3478 12.0595C9.46535 12.0595 9.56064 12.1548 9.56064 12.2723Z" fill="#52FCFF"/>
<path d="M10.1737 11.3102C10.2677 11.3102 10.3439 11.234 10.3439 11.14C10.3439 11.0459 10.2677 10.9697 10.1737 10.9697C10.0796 10.9697 10.0034 11.0459 10.0034 11.14C10.0034 11.234 10.0796 11.3102 10.1737 11.3102Z" fill="#52FCFF"/>
<path d="M12.089 10.6974C12.089 11.003 11.8412 11.2508 11.5356 11.2508C11.23 11.2508 10.9822 11.003 10.9822 10.6974C10.9822 10.3917 11.23 10.144 11.5356 10.144C11.8412 10.144 12.089 10.3917 12.089 10.6974Z" fill="#52FCFF"/>
</svg>
