<?xml version="1.0" encoding="UTF-8"?>
<svg width="16px" height="16px" viewBox="0 0 16 16" version="1.1" xmlns="http://www.w3.org/2000/svg" xmlns:xlink="http://www.w3.org/1999/xlink">
    <!-- Generator: Sketch 52.6 (67491) - http://www.bohemiancoding.com/sketch -->
    <title>social-linkedin</title>
    <desc>Created with Sketch.</desc>
    <g id="Page-1" stroke="none" stroke-width="1" fill="none" fill-rule="evenodd">
        <g id="home" transform="translate(-1272.000000, -4509.000000)" fill="#52FCFF" fill-rule="nonzero">
            <g id="Footer" transform="translate(0.000000, 4353.000000)">
                <g id="social-linkedin" transform="translate(1272.000000, 156.000000)">
                    <path d="M14.7204787,0 L1.36702067,0 C0.637665128,0 0,0.525136754 0,1.24615785 L0,14.6288096 C0,15.3539984 0.637665128,16 1.36702067,16 L14.7163109,16 C15.4498342,16 15.9999767,15.3498307 15.9999767,14.6288096 L15.9999767,1.24615785 C16.0041444,0.525136754 15.4498342,0 14.7204787,0 Z M4.95961767,13.3368065 L2.6673574,13.3368065 L2.6673574,6.20995051 L4.95961767,6.20995051 L4.95961767,13.3368065 Z M3.89267471,5.12633498 L3.87600372,5.12633498 C3.14248044,5.12633498 2.6673574,4.58035947 2.6673574,3.89684814 C2.6673574,3.20083355 3.15498367,2.66736129 3.90517794,2.66736129 C4.65537221,2.66736129 5.11382427,3.1966658 5.13049525,3.89684814 C5.13049525,4.58035947 4.65537221,5.12633498 3.89267471,5.12633498 Z M13.336787,13.3368065 L11.0445267,13.3368065 L11.0445267,9.43995832 C11.0445267,8.50638187 10.7111071,7.86871581 9.88172562,7.86871581 C9.24822823,7.86871581 8.8731311,8.29799427 8.70642126,8.71476947 C8.64390507,8.86480854 8.62723409,9.06902839 8.62723409,9.27741599 L8.62723409,13.3368065 L6.33497382,13.3368065 L6.33497382,6.20995051 L8.62723409,6.20995051 L8.62723409,7.20187549 C8.96065377,6.72675176 9.48162201,6.04324043 10.6944361,6.04324043 C12.1989924,6.04324043 13.336787,7.03516541 13.336787,9.17322219 L13.336787,13.3368065 Z" id="Shape"></path>
                </g>
            </g>
        </g>
    </g>
</svg>