<svg width="167" height="38" viewBox="0 0 167 38" fill="none" xmlns="http://www.w3.org/2000/svg">
  <path fill-rule="evenodd" clip-rule="evenodd"
    d="M59.543 13.423C60.277 13.423 60.921 13.572 61.476 13.869C62.0274 14.1632 62.5034 14.5807 62.867 15.089C63.24 15.606 63.522 16.203 63.713 16.879C63.903 17.555 63.999 18.275 63.999 19.039L63.99 25.574H60.616L60.615 18.739L60.605 18.554L60.583 18.343C60.479 17.529 60.076 16.333 58.776 16.333C57.47 16.333 57.038 17.518 56.954 18.454L56.939 18.702C56.9377 18.7413 56.9371 18.7807 56.937 18.82V25.574H53.072V18.701C53.072 17.707 52.6 16.332 51.407 16.332C49.941 16.332 49.497 17.756 49.417 18.554L49.404 18.739L49.402 25.574H46V13.836H48.626C49.004 13.836 49.31 14.14 49.31 14.516C49.527 14.108 50.188 13.699 50.577 13.589C50.964 13.479 51.439 13.423 52 13.423C52.795 13.423 53.485 13.596 54.07 13.942C54.6574 14.2891 55.1498 14.7762 55.503 15.36C55.525 15.3233 55.549 15.288 55.575 15.254L55.69 15.109C55.736 15.054 55.79 14.993 55.85 14.924C56.032 14.719 56.286 14.502 56.613 14.273C56.9886 14.019 57.3974 13.8181 57.828 13.676C58.312 13.508 58.884 13.423 59.543 13.423ZM98.965 24.418C98.337 25.213 97.468 25.739 96.359 25.996C95.989 26.076 95.615 26.116 95.239 26.116C94.66 26.116 94.126 26.056 93.636 25.936C93.1867 25.8305 92.7474 25.6863 92.323 25.505C91.9875 25.3625 91.6629 25.1954 91.352 25.005L91.07 24.823L90.85 24.673C90.8214 24.6524 90.7931 24.6314 90.765 24.61L91.873 23.068C92.0085 22.876 92.2102 22.7409 92.4394 22.6888C92.6685 22.6368 92.9089 22.6714 93.114 22.786C93.357 22.921 93.586 23.035 93.799 23.125L93.959 23.188L94.169 23.263C94.751 23.453 95.696 23.642 96.151 23.082C96.401 22.772 96.496 21.91 95.346 21.412L93.502 20.6C93.037 20.396 92.586 20.172 92.199 19.811C91.582 19.205 91.243 18.416 91.181 17.443C91.157 17.064 91.221 16.623 91.371 16.121C91.521 15.621 91.797 15.143 92.199 14.691C92.993 13.841 94.143 13.415 95.646 13.415C96.22 13.415 96.799 13.529 97.385 13.758C97.97 13.988 98.497 14.304 98.965 14.708L97.782 16.218C97.653 16.3843 97.4723 16.5029 97.2684 16.5551C97.0645 16.6072 96.849 16.5899 96.656 16.506L96.544 16.45C96.334 16.33 95.915 16.197 95.732 16.153L95.587 16.125C95.134 16.059 94.354 16.115 94.361 16.92C94.363 17.134 94.441 17.316 94.602 17.466C94.762 17.616 94.978 17.747 95.249 17.861C95.429 17.936 95.624 18.012 95.832 18.089L96.155 18.205C96.55 18.339 96.955 18.497 97.371 18.678C97.787 18.858 98.173 19.088 98.531 19.37C98.888 19.651 99.18 20.008 99.404 20.44C99.63 20.87 99.742 21.411 99.742 22.059C99.742 22.939 99.482 23.726 98.965 24.418ZM105.159 25.574H101.739V9H104.211C104.734 9 105.159 9.421 105.159 9.94V25.574ZM111.006 25.574H107.576V13.837H110.058C110.581 13.837 111.006 14.257 111.006 14.777V25.574ZM111.239 11.167C111.239 11.702 111.049 12.158 110.669 12.535C110.289 12.912 109.829 13.101 109.291 13.101C108.751 13.101 108.292 12.912 107.912 12.535C107.728 12.3583 107.583 12.1456 107.485 11.9103C107.387 11.6749 107.338 11.4219 107.342 11.167C107.342 10.632 107.532 10.176 107.912 9.799C108.292 9.422 108.752 9.233 109.291 9.233C109.83 9.233 110.289 9.422 110.669 9.799C111.049 10.176 111.239 10.632 111.239 11.167ZM65.577 21.057L65.56 20.152L65.551 18.062L65.577 13.868H68.302C68.826 13.868 69.25 14.29 69.25 14.809V20.742C69.25 21.736 69.913 23.109 71.106 23.109C72.573 23.109 73.016 21.686 73.097 20.889L73.11 20.703L73.112 13.868H75.566C76.09 13.868 76.514 14.29 76.514 14.809V25.606H73.888C73.7247 25.6064 73.5666 25.5482 73.4425 25.442C73.3185 25.3357 73.2367 25.1885 73.212 25.027L73.204 24.927C72.988 25.334 72.326 25.744 71.938 25.854C71.549 25.964 71.075 26.019 70.514 26.019C67.056 26.019 65.849 23.263 65.619 21.549L65.591 21.293C65.5842 21.2148 65.5796 21.1364 65.577 21.058V21.057ZM81.414 18.268C81.55 17.744 82.394 16.417 83.895 16.417C85.447 16.417 86.199 17.577 86.199 18.268H81.414ZM89.503 19.313V19.232C89.4931 18.242 89.2836 17.2641 88.887 16.357L88.81 16.188L88.716 15.996C88.212 15.018 87.011 13.387 84.128 13.387C82.455 13.387 81.024 14.009 79.837 15.254C78.649 16.498 78.055 17.997 78.055 19.75C78.055 21.362 78.591 22.776 79.665 23.992C80.652 25.113 81.859 25.795 83.283 26.04L83.571 26.083V26.086L83.71 26.097C83.848 26.107 83.987 26.116 84.125 26.116L84.236 26.112C84.7548 26.1073 85.2719 26.0521 85.78 25.947C86.105 25.872 86.656 25.673 87.042 25.505C87.427 25.337 87.751 25.17 88.012 25.005L88.294 24.823L88.514 24.673C88.544 24.651 88.574 24.63 88.599 24.61L87.492 23.069C87.3568 22.8766 87.1551 22.7412 86.9259 22.6889C86.6967 22.6367 86.4562 22.6712 86.251 22.786C86.0298 22.9083 85.7961 23.0065 85.554 23.079C85.333 23.146 85.027 23.218 84.766 23.215C83.818 23.205 83.193 22.952 82.589 22.482C81.986 22.013 81.621 21.454 81.498 20.806H87.998C88.829 20.806 89.504 20.138 89.503 19.313Z"
    fill="#94A1B5" />
  <path fill-rule="evenodd" clip-rule="evenodd"
    d="M120.693 19.1581C120.338 18.8781 119.953 18.6481 119.539 18.4681C119.263 18.3481 118.992 18.2391 118.726 18.1401L118.33 17.9981C118.026 17.8926 117.725 17.7785 117.428 17.6561C117.192 17.5642 116.974 17.4311 116.784 17.2631C116.708 17.1947 116.647 17.1108 116.606 17.0169C116.564 16.9231 116.544 16.8215 116.545 16.7191C116.545 16.5001 116.635 16.3091 116.812 16.1451C116.99 15.9801 117.189 15.8711 117.41 15.8161C117.667 15.7491 117.923 15.7471 118.178 15.8111C118.368 15.8591 118.547 15.9221 118.712 16.0011L118.872 16.0851L118.954 16.1331C119.131 16.239 119.34 16.2762 119.543 16.2377C119.745 16.1991 119.926 16.0875 120.052 15.9241L121.126 14.5191C120.659 14.1172 120.127 13.7976 119.553 13.5741C119.003 13.3525 118.416 13.2365 117.823 13.2321C116.328 13.2321 115.183 13.6551 114.393 14.5021C113.995 14.9521 113.72 15.4261 113.569 15.9261C113.419 16.4251 113.357 16.8631 113.382 17.2401C113.442 18.2081 113.78 18.9931 114.392 19.5961C114.779 19.9561 115.212 20.2161 115.69 20.3811C116.048 20.5041 116.416 20.6081 116.792 20.6941L117.171 20.7741C117.416 20.8161 117.66 20.8931 117.902 21.0021C118.144 21.1121 118.349 21.2611 118.519 21.4491C118.686 21.6381 118.771 21.8751 118.771 22.1621C118.771 22.4901 118.681 22.7361 118.499 22.9011C118.319 23.0651 118.101 23.1751 117.847 23.2301C117.178 23.3848 116.478 23.3221 115.847 23.0511C115.587 22.9399 115.335 22.8133 115.09 22.6721C114.908 22.5686 114.695 22.5364 114.491 22.5816C114.287 22.6269 114.107 22.7465 113.986 22.9171L112.967 24.3711L113.153 24.5041L113.403 24.6691L113.551 24.7631C113.811 24.9281 114.134 25.0931 114.517 25.2611C114.901 25.4291 115.336 25.5711 115.823 25.6911C116.346 25.8133 116.882 25.8727 117.419 25.8681C117.793 25.8681 118.164 25.8281 118.532 25.7501C119.636 25.4941 120.501 24.9701 121.126 24.1801C121.641 23.4921 121.898 22.7101 121.898 21.8321C121.898 21.1881 121.786 20.6511 121.562 20.2221C121.352 19.8093 121.055 19.4464 120.693 19.1581ZM161.068 22.0521C160.434 22.7271 159.665 23.0661 158.764 23.0661C157.862 23.0661 157.094 22.7271 156.455 22.0521C155.817 21.3771 155.499 20.5611 155.499 19.6051C155.499 18.6431 155.817 17.8231 156.455 17.1451C157.093 16.4661 157.862 16.1261 158.764 16.1261C159.665 16.1261 160.434 16.4661 161.068 17.1451C161.703 17.8231 162.02 18.6431 162.02 19.6051C162.02 20.5611 161.703 21.3771 161.068 22.0521ZM163.34 15.0991C162.233 13.8731 160.83 13.2591 159.132 13.2591C157.568 13.2591 156.36 13.6671 155.508 14.4831C155.508 14.3735 155.486 14.2652 155.443 14.1641C155.401 14.0631 155.339 13.9714 155.262 13.8942C155.184 13.817 155.092 13.7559 154.99 13.7144C154.889 13.6728 154.781 13.6517 154.671 13.6521H152.528V31.0001H154.666C154.889 31.0006 155.102 30.9127 155.26 30.7558C155.418 30.5989 155.507 30.3857 155.508 30.1631V24.6081C156.36 25.4241 157.568 25.8321 159.132 25.8321C160.83 25.8321 162.232 25.2191 163.34 23.9921C164.447 22.7651 165 21.2851 165 19.5501C165 17.8101 164.447 16.3261 163.34 15.1001V15.0991ZM136.51 13.6511C136.332 13.651 136.16 13.7074 136.016 13.812C135.873 13.9166 135.766 14.064 135.712 14.2331L134.168 19.0801L132.553 15.4971C132.491 15.3612 132.392 15.2461 132.267 15.1654C132.141 15.0846 131.995 15.0418 131.846 15.0421H129.674L127.854 19.0801L126.31 14.2331C126.256 14.064 126.149 13.9166 126.006 13.812C125.862 13.7074 125.689 13.651 125.512 13.6511H122.732L126.581 25.5631H127.798C128.108 25.5631 128.388 25.3811 128.51 25.0991L130.221 21.1551L131.011 19.3241L131.801 21.1551L133.715 25.5631H134.877C135.041 25.5637 135.2 25.5123 135.333 25.4163C135.466 25.3203 135.564 25.1847 135.615 25.0291L139.292 13.6511H136.51ZM147.146 20.3161C143.296 20.1681 142.666 21.0331 142.666 21.9291C142.666 22.5241 143.401 23.0551 144.372 23.0551C146.036 23.0551 147.146 22.1251 147.146 20.7921V20.3161ZM147.475 24.2541C147.177 24.4901 146.88 24.7261 146.528 24.9091C145.741 25.3407 144.857 25.5657 143.959 25.5631C141.254 25.5631 139.767 24.1501 139.767 22.1601C139.767 19.7781 141.417 17.7931 147.194 17.9291C147.194 16.7781 146.394 16.2181 145.176 16.2181C144.164 16.2181 143.673 16.6281 143.448 16.9601C143.371 17.0712 143.268 17.1618 143.148 17.224C143.028 17.2863 142.894 17.3182 142.759 17.3171H140.173C140.47 15.1181 142.336 13.2591 145.446 13.2591C148.259 13.2591 150.315 15.2491 150.315 17.9721V24.5971C150.314 24.8197 150.225 25.0327 150.066 25.1895C149.908 25.3463 149.695 25.4339 149.472 25.4331H147.473L147.475 24.2541Z"
    fill="#94A1B5" />
  <path fill-rule="evenodd" clip-rule="evenodd"
    d="M33.46 30.5059C33.46 28.6779 26.373 27.1949 17.632 27.1949C8.89102 27.1949 1.80402 28.6779 1.80402 30.5059C1.80402 32.3359 8.89102 33.8179 17.632 33.8179C26.372 33.8179 33.46 32.3349 33.46 30.5059Z"
    fill="#94A1B5" />
  <path fill-rule="evenodd" clip-rule="evenodd"
    d="M35.936 14.11C35.898 14.322 35.846 14.53 35.784 14.737C35.718 14.954 35.644 15.17 35.568 15.383C35.3375 15.9997 35.0836 16.6075 34.807 17.205L34.805 17.207C34.741 17.339 34.679 17.471 34.617 17.603C34.1818 18.4916 33.7227 19.3682 33.24 20.232L32.92 20.807C32.1258 22.2208 31.285 23.6078 30.399 24.966C29.8077 25.8856 29.1846 26.7845 28.531 27.661C28.289 27.984 28.041 28.299 27.785 28.609C27.781 28.612 27.779 28.616 27.779 28.616C27.739 28.666 27.696 28.716 27.655 28.764C27.334 29.15 26.995 29.536 26.607 29.859C26.2 30.198 25.702 30.402 25.209 30.593C23.539 31.248 21.721 31.478 19.937 31.57C17.497 31.695 15.04 31.554 12.65 31.038C11.722 30.837 10.798 30.581 9.92697 30.203C9.8465 30.1691 9.76834 30.13 9.69297 30.086C9.65597 30.064 9.61697 30.043 9.58097 30.018C9.50663 29.9707 9.43455 29.92 9.36497 29.866L9.27097 29.79L9.24897 29.771C9.18966 29.7215 9.13196 29.6702 9.07597 29.617C8.93354 29.4817 8.79675 29.3406 8.66597 29.194C8.54915 29.0625 8.43447 28.9292 8.32197 28.794L8.24197 28.697C8.22032 28.6738 8.19996 28.6494 8.18097 28.624C8.15878 28.5984 8.13711 28.5724 8.11597 28.546C8.09297 28.521 8.07397 28.496 8.05297 28.47L7.94597 28.342C7.30438 27.5467 6.70039 26.7218 6.13597 25.87L6.13497 25.866C5.62273 25.099 5.12694 24.3212 4.64797 23.533C4.14797 22.719 3.66097 21.897 3.19297 21.063C2.64857 20.1019 2.13103 19.1259 1.64097 18.136C1.51585 17.8795 1.39251 17.6222 1.27097 17.364C1.03697 16.864 0.813973 16.359 0.610973 15.846C0.386973 15.285 0.172973 14.706 0.0699734 14.109C0.0199734 13.829 0.454973 13.71 0.503973 13.992C0.507973 14.012 0.513973 14.032 0.516973 14.052C0.516973 14.052 35.984 13.831 35.936 14.11Z"
    fill="#94A1B5" />
  <path fill-rule="evenodd" clip-rule="evenodd"
    d="M34.805 17.207L34.616 17.603C34.1815 18.4915 33.7227 19.3678 33.24 20.231L32.92 20.808C32.1258 22.2211 31.285 23.6076 30.399 24.965C29.8074 25.885 29.184 26.7842 28.53 27.661C28.29 27.985 28.041 28.298 27.784 28.609L27.779 28.616C27.739 28.666 27.696 28.716 27.656 28.764C27.333 29.151 26.996 29.534 26.607 29.858C26.2 30.198 25.702 30.402 25.208 30.593C23.539 31.248 21.721 31.478 19.938 31.57C17.498 31.695 15.04 31.553 12.65 31.037C11.722 30.837 10.798 30.58 9.92699 30.203C9.84669 30.1688 9.76855 30.1297 9.69299 30.086C9.65599 30.064 9.61699 30.042 9.58099 30.017C9.5066 29.9702 9.43452 29.9198 9.36499 29.866L9.27099 29.79C9.05505 29.6067 8.85315 29.4075 8.66699 29.194C8.55699 29.069 8.44999 28.944 8.34699 28.822L8.32199 28.795L8.24199 28.697C8.22047 28.6734 8.19979 28.6491 8.17999 28.624C8.1578 28.5985 8.13613 28.5725 8.11499 28.546L8.05299 28.47C8.01802 28.4268 7.98235 28.3841 7.94599 28.342L7.92999 28.322C20.275 27.599 32.25 21.1 34.805 17.207Z"
    fill="#94A1B5" />
  <path fill-rule="evenodd" clip-rule="evenodd"
    d="M35.936 14.11C35.898 14.322 35.846 14.53 35.784 14.737C35.718 14.954 35.696 15.196 35.568 15.383C32.988 19.113 26.555 21.078 17.695 21.823C11.245 22.363 5.53497 22.003 3.19297 21.063C2.64857 20.1019 2.13103 19.1259 1.64097 18.136C1.51585 17.8795 1.39251 17.6222 1.27097 17.364C1.03697 16.864 0.813973 16.359 0.610973 15.846C0.386973 15.285 0.172973 14.706 0.0699734 14.109C0.0199734 13.829 0.454973 13.71 0.503973 13.992C0.507973 14.012 0.513973 14.032 0.516973 14.052C0.516973 14.052 35.984 13.831 35.936 14.11Z"
    fill="#94A1B5" />
  <path fill-rule="evenodd" clip-rule="evenodd"
    d="M10.063 18.345C14.547 18.977 19.123 19.282 23.649 18.952C27.314 18.685 31.529 18.12 34.812 15.608C35.196 15.314 35.679 14.715 35.821 14.253C36.085 13.398 33.807 10.553 18.465 10.086C10.98 9.85797 3.54198 11.014 0.874982 12.812C-1.04802 14.108 1.40498 15.448 2.45398 16.037C3.86798 16.832 5.45398 17.308 7.02998 17.701C8.03298 17.951 9.03798 18.201 10.063 18.345Z"
    fill="#94A1B5" />
  <path fill-rule="evenodd" clip-rule="evenodd"
    d="M10.02 18.497C13.804 19.027 17.628 19.333 21.452 19.221C24.64 19.128 27.954 18.862 30.978 17.806C31.7133 17.5516 32.4283 17.2421 33.117 16.88C33.791 16.522 34.489 16.115 35.06 15.607C35.44 15.268 35.875 14.765 35.985 14.259C36.0032 14.1731 36.0046 14.0844 35.989 13.998C35.909 13.5 35.442 13.115 35.049 12.841C34.136 12.204 33.023 11.831 31.957 11.528C29.921 10.947 27.807 10.636 25.703 10.403C22.2913 10.0203 18.8586 9.85596 15.426 9.91099C12.063 9.97099 8.66099 10.258 5.37599 10.996C4.17399 11.266 2.97199 11.599 1.84799 12.104C1.06399 12.456 -0.23801 13.077 0.0379899 14.119C0.16699 14.609 0.58799 14.992 0.97799 15.294C1.40199 15.619 1.86599 15.888 2.33299 16.151C3.87299 17.013 5.57599 17.504 7.28799 17.928C8.19199 18.152 9.09699 18.363 10.02 18.497C10.222 18.525 10.311 18.222 10.106 18.193C9.19999 18.063 8.30999 17.856 7.42299 17.637C6.57609 17.4359 5.73773 17.2003 4.90999 16.931C3.61499 16.496 2.30399 15.903 1.21399 15.078C0.84099 14.794 0.35399 14.388 0.32199 13.888C0.28899 13.34 0.87099 12.982 1.29199 12.738C2.20999 12.211 3.24199 11.876 4.26199 11.598C7.25999 10.776 10.406 10.441 13.506 10.29C16.939 10.121 20.39 10.25 23.814 10.536C26.121 10.729 28.434 11.006 30.69 11.528C31.933 11.815 33.201 12.167 34.328 12.773C34.829 13.043 35.378 13.39 35.618 13.876C35.633 13.904 35.635 13.899 35.653 13.964C35.663 13.999 35.673 14.034 35.678 14.07C35.671 14.03 35.681 14.098 35.68 14.131C35.677 14.205 35.69 14.127 35.674 14.184C35.521 14.772 34.997 15.281 34.517 15.632C33.906 16.08 33.25 16.47 32.567 16.806C29.87 18.131 26.824 18.556 23.847 18.78C20.189 19.056 16.512 18.926 12.867 18.537C11.9452 18.4372 11.0251 18.3225 10.107 18.193C9.90399 18.165 9.81599 18.468 10.02 18.497Z"
    fill="#94A1B5" />
  <path fill-rule="evenodd" clip-rule="evenodd"
    d="M28.963 11.875C31.131 12.304 33.59 13.036 34.5 13.861C35.286 14.571 33.651 15.554 32.18 16.115C27.134 18.04 23.08 18.491 17.708 18.375C14.283 18.301 9.335 17.452 6.912 16.91C4.687 16.412 1.386 15.002 1.297 13.84C1.387 12.74 6.35 11.34 10.204 10.972C14.879 10.526 20.744 10.249 28.963 11.875Z"
    fill="white" />
  <path fill-rule="evenodd" clip-rule="evenodd"
    d="M1.79502 17.53C3.15202 18.4 4.72202 18.893 6.23502 19.43C6.43002 19.5 6.51402 19.196 6.32002 19.127C4.83202 18.599 3.29202 18.113 1.95702 17.259C1.78302 17.149 1.62202 17.42 1.79502 17.53ZM2.69002 19.43C5.22002 20.663 8.04102 21.423 10.835 21.793C11.037 21.82 11.125 21.517 10.92 21.49C8.15602 21.124 5.35602 20.378 2.85202 19.159C2.66702 19.069 2.50402 19.34 2.69002 19.43ZM7.57302 19.778C8.89102 20.1 10.228 20.341 11.573 20.529C11.773 20.559 11.861 20.255 11.658 20.226C10.3131 20.0419 8.97811 19.7913 7.65802 19.475C7.45802 19.426 7.37202 19.729 7.57302 19.778Z"
    fill="#94A1B5" />
  <path fill-rule="evenodd" clip-rule="evenodd"
    d="M18.138 12.172L18.332 12.052C18.3623 12.0364 18.3881 12.0133 18.407 11.985C18.4302 11.9594 18.4467 11.9285 18.455 11.895C18.4658 11.8617 18.4675 11.8262 18.46 11.792C18.458 11.7569 18.4466 11.7231 18.427 11.694L18.386 11.641C18.3533 11.6084 18.3126 11.5849 18.268 11.573L18.197 11.563C18.1496 11.5636 18.1031 11.5764 18.062 11.6L17.868 11.72C17.8375 11.7349 17.8116 11.7577 17.793 11.786C17.7691 11.8111 17.7525 11.8422 17.745 11.876C17.7342 11.9096 17.7324 11.9455 17.74 11.98C17.741 12.015 17.752 12.048 17.771 12.077L17.813 12.131C17.8463 12.1631 17.8872 12.1862 17.932 12.198L18.002 12.208C18.0497 12.2082 18.0966 12.1958 18.138 12.172ZM19.27 13.001L19.464 12.882C19.4944 12.8661 19.5202 12.8427 19.539 12.814C19.562 12.7887 19.5785 12.7582 19.587 12.725C19.5976 12.6913 19.599 12.6554 19.591 12.621C19.5893 12.586 19.5783 12.5522 19.559 12.523L19.517 12.47C19.4845 12.4379 19.4441 12.4148 19.4 12.403L19.328 12.393C19.281 12.3935 19.2349 12.4059 19.194 12.429L18.999 12.549C18.9684 12.5642 18.9425 12.5873 18.924 12.616C18.9002 12.6408 18.8836 12.6715 18.876 12.705C18.8653 12.739 18.8639 12.7753 18.872 12.81C18.872 12.845 18.883 12.877 18.903 12.907L18.945 12.96C18.9783 12.9921 19.0192 13.0152 19.064 13.027L19.134 13.037C19.1813 13.037 19.2279 13.0246 19.269 13.001M24.933 14.902L25.127 14.782C25.1573 14.7664 25.1831 14.7433 25.202 14.715C25.2252 14.6894 25.2417 14.6585 25.25 14.625C25.2608 14.5917 25.2625 14.5562 25.255 14.522C25.2533 14.487 25.2423 14.4532 25.223 14.424L25.181 14.371C25.1483 14.3384 25.1076 14.3149 25.063 14.303L24.992 14.293C24.9446 14.2936 24.8981 14.3064 24.857 14.33L24.663 14.45C24.6325 14.4649 24.6066 14.4877 24.588 14.516C24.5641 14.5411 24.5475 14.5722 24.54 14.606C24.5295 14.6397 24.5281 14.6756 24.536 14.71C24.536 14.745 24.547 14.778 24.566 14.807C24.581 14.826 24.596 14.843 24.609 14.861C24.642 14.893 24.6826 14.916 24.727 14.928L24.797 14.938C24.8447 14.9382 24.8916 14.9258 24.933 14.902ZM25.56 15.701L25.755 15.583C25.7855 15.5669 25.8113 15.5431 25.83 15.514C25.853 15.4887 25.8695 15.4582 25.878 15.425C25.8886 15.3913 25.89 15.3554 25.882 15.321C25.8802 15.2864 25.8691 15.2529 25.85 15.224L25.809 15.17C25.7762 15.1377 25.7355 15.1146 25.691 15.103L25.62 15.093C25.5726 15.0933 25.5262 15.1057 25.485 15.129L25.291 15.249C25.2604 15.2642 25.2345 15.2873 25.216 15.316C25.1921 15.3411 25.1755 15.3722 25.168 15.406C25.1571 15.4396 25.1554 15.4755 25.163 15.51C25.164 15.545 25.175 15.577 25.194 15.607L25.236 15.66C25.2692 15.6925 25.3101 15.7159 25.355 15.728L25.425 15.738C25.4728 15.7379 25.5197 15.7251 25.561 15.701"
    fill="#94A1B5" />
  <path fill-rule="evenodd" clip-rule="evenodd"
    d="M16.945 7.28201C16.895 7.4444 16.8111 7.59436 16.699 7.72201C16.409 8.15201 15.968 8.68901 15.557 8.79001C14.766 8.98401 13.568 8.59301 12.752 7.99301C12.262 7.63101 11.71 7.00901 11.642 6.53301C11.555 5.92301 11.775 5.16101 12.172 4.63301C12.242 4.54201 12.313 4.45801 12.392 4.38301L12.598 4.20001C12.621 4.17801 12.643 4.15601 12.666 4.13701L12.677 4.12801H12.679C12.951 3.92001 13.299 3.84101 13.779 3.91501C14.975 3.94301 16.064 4.73501 16.667 5.79501C16.703 5.85901 16.737 5.92301 16.768 5.99101C16.963 6.39401 17.078 6.85201 16.945 7.28201Z"
    fill="#94A1B5" />
  <path fill-rule="evenodd" clip-rule="evenodd"
    d="M11.133 2.80406L10.531 1.74106C10.463 1.62106 10.285 1.57106 10.165 1.64806C10.105 1.68297 10.0612 1.74021 10.0432 1.80727C10.0252 1.87434 10.0345 1.9458 10.069 2.00606L10.671 3.06906C10.739 3.18906 10.917 3.23906 11.036 3.16306C11.096 3.12793 11.1399 3.0706 11.158 3.00343C11.1762 2.93626 11.1672 2.86465 11.133 2.80406ZM12.55 2.06206L12.476 1.04506C12.466 0.908057 12.36 0.776057 12.208 0.782057C12.072 0.788057 11.93 0.898057 11.941 1.04506L12.015 2.06206C12.025 2.19806 12.131 2.33106 12.282 2.32406C12.418 2.31806 12.56 2.20806 12.549 2.06206M10.168 3.78006C9.72426 3.59291 9.26156 3.45443 8.78798 3.36706C8.65098 3.34306 8.49298 3.40406 8.45898 3.55006C8.42898 3.67806 8.49898 3.84606 8.64598 3.87306C8.97654 3.93178 9.3019 4.01671 9.61898 4.12706L9.77898 4.18606L9.84798 4.21306C9.85698 4.21606 9.94798 4.25306 9.89798 4.23206C9.96798 4.26106 10.028 4.27906 10.104 4.25906C10.1704 4.24038 10.2275 4.19759 10.264 4.13906C10.324 4.02606 10.305 3.83706 10.168 3.78006Z"
    fill="#94A1B5" />
  <path fill-rule="evenodd" clip-rule="evenodd"
    d="M20.504 15.28C20.4208 15.5378 20.2619 15.7646 20.048 15.931C19.46 16.386 18.641 16.351 17.934 16.313C17.757 16.302 17.541 16.297 17.364 16.226C17.3021 16.2022 17.2449 16.1676 17.195 16.124C17.01 15.956 17.057 15.714 17.181 15.527C17.1964 15.5032 17.216 15.4825 17.239 15.466C17.355 15.347 17.501 15.281 17.646 15.19C17.772 15.111 17.866 15.001 17.968 14.896C18.208 14.648 18.472 14.4 18.789 14.248C18.951 14.171 19.119 14.118 19.299 14.104C19.473 14.09 19.655 14.13 19.826 14.158C20.073 14.197 20.348 14.263 20.49 14.486C20.504 14.5085 20.5167 14.5319 20.528 14.556C20.626 14.779 20.578 15.063 20.504 15.281"
    fill="#94A1B5" />
  <path fill-rule="evenodd" clip-rule="evenodd"
    d="M20.504 15.28C20.4208 15.5379 20.2619 15.7647 20.048 15.931C19.46 16.386 18.641 16.351 17.934 16.313C17.757 16.302 17.541 16.297 17.364 16.226C18.926 15.824 19.289 14.755 20.528 14.556C20.626 14.779 20.578 15.063 20.504 15.281"
    fill="#94A1B5" />
  <path fill-rule="evenodd" clip-rule="evenodd"
    d="M21.334 15.994C21.42 16.251 21.574 16.478 21.791 16.644C22.378 17.099 23.197 17.064 23.905 17.026C24.081 17.015 24.297 17.01 24.473 16.939C24.5352 16.9153 24.5928 16.8808 24.643 16.837C24.828 16.669 24.781 16.427 24.657 16.24C24.6416 16.2162 24.6219 16.1955 24.599 16.179C24.483 16.06 24.337 15.994 24.192 15.903C24.066 15.824 23.972 15.714 23.87 15.609C23.63 15.361 23.366 15.113 23.05 14.961C22.8906 14.8813 22.7175 14.8325 22.54 14.817C22.365 14.803 22.184 14.843 22.013 14.871C21.766 14.91 21.491 14.976 21.348 15.199C21.334 15.2215 21.3213 15.2449 21.31 15.269C21.212 15.491 21.261 15.776 21.334 15.994Z"
    fill="#94A1B5" />
  <path fill-rule="evenodd" clip-rule="evenodd"
    d="M21.334 15.994C21.42 16.251 21.574 16.478 21.791 16.644C22.378 17.099 23.197 17.064 23.905 17.026C24.081 17.015 24.297 17.01 24.473 16.939C22.913 16.537 22.549 15.468 21.31 15.269C21.212 15.491 21.261 15.776 21.334 15.994Z"
    fill="#94A1B5" />
  <path fill-rule="evenodd" clip-rule="evenodd"
    d="M22.285 3.25501C22.2771 3.6545 22.1263 4.03794 21.8599 4.33573C21.5935 4.63352 21.2291 4.82592 20.833 4.87801C20.126 4.97001 19.409 4.60001 19.103 3.96301C18.85 3.43801 18.943 2.94101 19.154 2.42701C19.482 1.62701 19.919 0.861006 20.381 0.127006C20.4057 0.0881886 20.4399 0.0562372 20.4802 0.0341032C20.5206 0.0119691 20.5659 0.000366211 20.612 0.000366211C20.658 0.000366211 20.7033 0.0119691 20.7437 0.0341032C20.7841 0.0562372 20.8182 0.0881886 20.843 0.127006C21.1 0.537006 21.342 0.957006 21.569 1.38301C21.752 1.72301 21.923 2.07001 22.069 2.42701C22.155 2.63701 22.239 2.85701 22.271 3.08401L22.285 3.25401C22.2861 3.22256 22.2821 3.19113 22.273 3.16101L22.279 3.25501L22.275 3.33901L22.278 3.32701L22.285 3.25501Z"
    fill="#94A1B5" />
  <path fill-rule="evenodd" clip-rule="evenodd"
    d="M21.191 3.33002C21.191 3.36683 21.1883 3.40359 21.183 3.44002L21.193 3.37002C21.1835 3.4374 21.1654 3.50328 21.139 3.56602L21.166 3.50402C21.1383 3.56839 21.1023 3.6289 21.059 3.68402L21.101 3.63102C21.0573 3.68608 21.007 3.73547 20.951 3.77802L21.005 3.73802C20.9481 3.78055 20.8859 3.81551 20.82 3.84202L20.884 3.81602C20.8198 3.84194 20.7526 3.85974 20.684 3.86902L20.754 3.85902C20.7169 3.86427 20.6795 3.86694 20.642 3.86702C20.502 3.86802 20.368 3.98702 20.375 4.12902C20.3766 4.19888 20.4054 4.26536 20.4552 4.31431C20.5051 4.36325 20.5721 4.39077 20.642 4.39102C20.9281 4.39038 21.2028 4.27932 21.409 4.08102C21.611 3.88202 21.725 3.60902 21.726 3.32902C21.7247 3.25907 21.696 3.19244 21.6461 3.14344C21.5961 3.09445 21.529 3.067 21.459 3.06702C21.314 3.07302 21.192 3.18302 21.191 3.33002Z"
    fill="#94A1B5" />
  <path fill-rule="evenodd" clip-rule="evenodd"
    d="M34.21 10.675C34.074 11.372 33.802 12.1 33.328 12.638C31.738 14.454 30.14 15.435 27.854 15.778C27.576 15.844 27.404 15.782 27.306 15.716C27.2635 15.6887 27.2271 15.6529 27.199 15.611C26.6446 14.0642 26.501 12.4 26.782 10.781C26.922 9.98101 27.176 9.17701 27.684 8.53301C28.194 7.88901 28.99 7.42601 29.82 7.46301C30.222 7.48301 30.6 7.61301 30.97 7.77001C31.362 7.93501 31.75 8.13201 32.153 8.26201C32.627 8.41501 33.145 8.48301 33.55 8.76801C34.14 9.18001 34.347 9.97801 34.21 10.675ZM9.56398 12.618C9.74398 12.882 9.81098 13.338 9.63398 13.606C9.45698 13.873 9.04598 14.166 8.67998 14.051C8.65598 14.378 8.42798 15.142 7.72898 15.252C7.39898 15.306 7.05898 15.189 6.80198 14.978C6.79998 14.978 6.79798 14.976 6.79598 14.974C6.56298 15.257 6.06298 15.256 5.63098 15.057C5.38898 14.945 4.84498 14.423 4.95198 13.897C4.68198 14.176 4.03198 14.122 3.67898 13.865C3.39098 13.658 3.33798 13.165 3.40998 12.887C3.49298 12.557 3.67298 12.323 3.91498 12.163L3.84498 12.149C3.84498 12.149 3.72298 11.959 3.72698 11.686C3.72903 11.5336 3.76889 11.3842 3.84298 11.251L5.41298 10.579L6.45098 8.95601L6.63798 8.66601C6.6905 8.55414 6.767 8.4552 6.86206 8.37622C6.95711 8.29724 7.06838 8.24015 7.18798 8.20901C7.44798 8.13301 7.73998 8.14901 7.97798 8.19501C8.42798 8.28101 8.69198 8.80601 8.60798 9.24901C9.04298 9.05201 9.68998 9.20001 9.92798 9.60601C10.17 10.012 10.043 10.591 9.65198 10.863C9.83698 10.825 10.392 11.007 10.517 11.347C10.777 12.053 10.15 12.806 9.56398 12.617"
    fill="#94A1B5" />
  <path fill-rule="evenodd" clip-rule="evenodd"
    d="M9.56299 12.6181C9.74499 12.8821 9.81099 13.3381 9.63499 13.6061C9.45799 13.8731 9.04599 14.1661 8.67899 14.0521C8.65599 14.3771 8.42699 15.1421 7.72899 15.2521C7.39899 15.3061 7.05899 15.1891 6.80199 14.9781C6.92399 14.8141 7.08999 14.6771 7.25699 14.5551C7.33499 14.4991 7.41899 14.4401 7.45699 14.3531C7.51899 14.2101 7.43999 14.0521 7.43799 13.8961C7.43299 13.5891 7.71899 13.3631 7.98099 13.1961C8.24099 13.0281 8.53599 12.8261 8.56899 12.5201C8.59699 12.2441 8.39599 12.0031 8.22499 11.7821C8.05299 11.5621 7.89399 11.2721 8.00799 11.0171C8.08599 10.8441 8.27499 10.7401 8.34999 10.5651C8.43799 10.3651 8.34499 10.1231 8.18299 9.97506C8.01999 9.82706 7.80299 9.75306 7.58799 9.69806C7.37299 9.64306 7.15099 9.60206 6.95799 9.49906C6.73279 9.38063 6.55415 9.18966 6.45099 8.95706L6.63799 8.66506C6.89099 8.12806 7.52799 8.10906 7.97799 8.19506C8.42699 8.28206 8.69199 8.80506 8.60799 9.24906C9.04299 9.05106 9.68899 9.19906 9.92799 9.60606C10.171 10.0121 10.044 10.5901 9.65199 10.8631C9.83599 10.8251 10.392 11.0071 10.516 11.3471C10.776 12.0531 10.149 12.8051 9.56299 12.6181Z"
    fill="#94A1B5" />
  <path fill-rule="evenodd" clip-rule="evenodd"
    d="M6.36799 11.33C6.13038 11.4357 5.92699 11.6056 5.78071 11.8206C5.63442 12.0356 5.55106 12.2872 5.53999 12.547C5.5373 12.8027 5.60489 13.0542 5.73539 13.2741C5.86588 13.494 6.05427 13.6738 6.27999 13.794C6.79199 14.054 7.48599 13.964 7.81399 13.464C7.95799 13.245 7.99599 12.947 7.98199 12.694C7.9694 12.431 7.90303 12.1733 7.78699 11.937C7.67585 11.7087 7.49893 11.5189 7.27899 11.392C7.01875 11.2539 6.71506 11.2224 6.43199 11.304C6.09999 11.39 6.24099 11.897 6.57399 11.809C6.70919 11.7667 6.85508 11.7745 6.98499 11.831C7.11599 11.899 7.19499 11.981 7.26699 12.097C7.44099 12.374 7.50499 12.765 7.40699 13.08C7.38426 13.1455 7.34739 13.2053 7.29901 13.2551C7.25063 13.3049 7.19191 13.3434 7.12699 13.368C7.04399 13.4021 6.95505 13.4195 6.86529 13.4192C6.77554 13.4188 6.68674 13.4008 6.60399 13.366C6.45887 13.3038 6.33331 13.2035 6.24068 13.0757C6.14806 12.9478 6.09183 12.7972 6.07799 12.64C6.06503 12.4577 6.11363 12.2763 6.21599 12.125C6.31599 11.97 6.45599 11.861 6.63799 11.782C6.77099 11.725 6.80099 11.536 6.73499 11.424C6.65499 11.29 6.50099 11.273 6.36799 11.33Z"
    fill="#94A1B5" />
  <path fill-rule="evenodd" clip-rule="evenodd"
    d="M7.36399 10.965C7.37399 10.945 7.38599 10.928 7.39799 10.909C7.35799 10.969 7.40499 10.907 7.41899 10.894L7.44899 10.868C7.42299 10.888 7.42199 10.889 7.44699 10.872C7.47199 10.857 7.49699 10.841 7.52399 10.827C7.53947 10.8199 7.55515 10.8132 7.57099 10.807C7.60399 10.797 7.63599 10.787 7.67099 10.779C7.68099 10.776 7.77699 10.762 7.73399 10.766L7.81999 10.761C7.96079 10.7591 8.10022 10.7888 8.22799 10.848C8.28999 10.878 8.34599 10.912 8.40399 10.948C8.42899 10.965 8.43099 10.965 8.40799 10.948L8.44599 10.978C8.46662 10.996 8.48663 11.0146 8.50599 11.034C8.52599 11.054 8.54399 11.074 8.56199 11.096C8.52599 11.054 8.58499 11.129 8.59199 11.138C8.60899 11.165 8.62499 11.193 8.63999 11.221C8.64499 11.231 8.68199 11.317 8.66499 11.274C8.68699 11.331 8.70499 11.39 8.71499 11.45C8.70499 11.385 8.71499 11.48 8.71499 11.493V11.574C8.71057 11.616 8.70356 11.6578 8.69399 11.699L8.66499 11.787C8.65868 11.8005 8.65202 11.8138 8.64499 11.827C8.63199 11.853 8.61599 11.877 8.59999 11.902C8.58318 11.9215 8.56478 11.9395 8.54499 11.956C8.57199 11.936 8.57499 11.935 8.55099 11.952C8.52699 11.964 8.50499 11.977 8.47999 11.987C8.34799 12.044 8.31699 12.235 8.38399 12.347C8.46399 12.48 8.61699 12.497 8.75099 12.441C8.99199 12.337 9.14499 12.08 9.20899 11.839C9.27942 11.5714 9.25504 11.2876 9.13999 11.036C8.89399 10.479 8.23499 10.171 7.63499 10.254C7.35299 10.294 7.03699 10.441 6.90199 10.701C6.83599 10.827 6.86799 10.986 6.99699 11.06C7.11699 11.128 7.29699 11.092 7.36399 10.965ZM7.18899 8.20898C7.16299 8.47398 7.17999 9.52698 6.45499 10.629C5.71699 11.757 4.26699 11.634 3.72699 11.686C3.72932 11.5337 3.76917 11.3843 3.84299 11.251L5.41299 10.579L6.44999 8.95698L6.63799 8.66599C6.69038 8.55385 6.76697 8.45471 6.86224 8.37569C6.95751 8.29667 7.0691 8.23974 7.18899 8.20898Z"
    fill="#94A1B5" />
  <path fill-rule="evenodd" clip-rule="evenodd"
    d="M6.28497 6.68497C6.27997 6.40897 6.63997 6.34997 6.78497 6.55297C7.18097 7.11297 7.15897 7.85297 6.99297 8.49397L6.97197 8.56497L6.93997 8.69197L6.87997 8.87197L6.81197 9.04497C6.45697 9.95997 5.89097 10.784 4.93597 11.192C4.36897 11.435 3.73097 11.511 3.11597 11.488C2.47597 11.463 1.88297 11.225 1.52197 10.69C1.33897 10.419 1.72397 10.202 1.94197 10.372C2.07497 10.475 2.22597 10.348 2.38697 10.172L2.59897 9.92997C2.67097 9.84997 2.74497 9.77497 2.81897 9.71997C2.99281 9.57876 3.21 9.50177 3.43397 9.50197H3.61597C3.58183 9.45041 3.54547 9.40036 3.50697 9.35197L3.34997 9.15997C3.29038 9.09239 3.22834 9.02701 3.16397 8.96397L3.06797 8.87397C2.67997 8.53097 2.46997 8.11197 2.48797 7.59397C2.49197 7.43997 2.65797 7.27397 2.82597 7.33997C3.00197 7.40997 3.18597 7.44597 3.37197 7.46897L3.93197 7.52597C4.11697 7.54897 4.30097 7.58297 4.47697 7.65097C4.69897 7.73597 4.89397 7.85797 5.04097 8.01797L5.07497 8.05797L5.08497 8.04797L5.09797 8.03297C5.24497 7.85897 5.41997 7.71297 5.62497 7.56697L5.82297 7.42597C6.07997 7.23797 6.29297 7.03997 6.28597 6.68397L6.28497 6.68497Z"
    fill="#94A1B5" />
  <path fill-rule="evenodd" clip-rule="evenodd"
    d="M15.084 15.73C14.453 15.946 13.744 15.901 13.123 15.664C12.9 15.579 12.689 15.468 12.47 15.372C12.2011 15.2514 11.9268 15.1433 11.648 15.048C11.5146 15.0009 11.3791 14.9599 11.242 14.925C11.45 14.704 11.679 14.358 11.726 14.062C11.764 13.822 11.745 13.577 11.761 13.335C11.804 12.688 12.131 12.065 12.641 11.652C12.8993 11.4456 13.196 11.2924 13.5139 11.2012C13.8318 11.1101 14.1645 11.0828 14.493 11.121C14.8681 11.1734 15.2316 11.289 15.568 11.463C15.721 11.538 15.872 11.621 16.006 11.725C16.106 11.796 16.196 11.88 16.276 11.975C16.332 12.042 16.379 12.115 16.419 12.193L16.434 12.185C16.814 12.915 16.881 13.861 16.672 14.442C16.452 15.058 15.716 15.515 15.084 15.73Z"
    fill="#94A1B5" />
  <path fill-rule="evenodd" clip-rule="evenodd"
    d="M16.97 14.223C16.84 14.902 16.315 15.389 15.714 15.703C15.0203 16.0797 14.2115 16.1859 13.444 16.001C13.039 15.901 12.672 15.707 12.294 15.541C11.9345 15.3783 11.5627 15.2446 11.182 15.141C10.895 15.067 11.016 14.633 11.304 14.707C11.501 14.757 11.691 14.824 11.876 14.897C12.206 14.564 12.751 14.705 13.369 14.634C13.911 14.574 14.878 14.331 15.274 13.963C15.67 13.598 15.794 13.252 15.779 12.719C15.771 12.492 15.702 12.316 15.747 12.096C15.769 11.995 15.947 11.809 16.006 11.726C16.107 11.796 16.197 11.879 16.276 11.975C16.286 11.986 16.293 11.998 16.302 12.011C16.403 11.931 16.558 11.927 16.632 12.071C16.646 12.098 16.66 12.127 16.672 12.155C16.974 12.793 17.101 13.528 16.97 14.223Z"
    fill="#94A1B5" />
  <path fill-rule="evenodd" clip-rule="evenodd"
    d="M16.587 12.02C16.322 11.575 15.832 11.316 15.361 11.125C14.351 10.713 13.188 10.836 12.371 11.584C11.965 11.955 11.678 12.464 11.574 12.999C11.516 13.299 11.54 13.599 11.514 13.901C11.487 14.218 11.32 14.492 11.111 14.729C11.089 14.7438 11.0703 14.7628 11.0558 14.785C11.0414 14.8071 11.0316 14.832 11.027 14.858L11.024 14.871C11.0129 14.9267 11.0233 14.9846 11.053 15.033C11.059 15.043 11.065 15.053 11.073 15.061C11.076 15.067 11.081 15.072 11.086 15.078L11.102 15.093L11.113 15.103C11.16 15.141 11.219 15.163 11.279 15.153C11.797 15.196 12.297 15.363 12.814 15.416C13.4108 15.4868 14.0159 15.4313 14.59 15.253C15.52 14.953 16.474 14.373 16.74 13.39C16.861 12.938 16.83 12.43 16.587 12.02Z"
    fill="#94A1B5" />
  <path fill-rule="evenodd" clip-rule="evenodd"
    d="M12.562 14.0239L13.069 12.9439C13.139 12.7949 13.21 12.6439 13.321 12.5219C13.676 12.1279 14.314 12.1399 14.759 11.8459C14.792 12.1979 14.825 12.5559 14.757 12.9039C14.688 13.2509 14.503 13.5929 14.191 13.7709C14.0451 13.8473 13.8888 13.9019 13.727 13.9329C13.353 14.0189 12.944 13.9729 12.562 14.0239Z"
    fill="#94A1B5" />
  <path fill-rule="evenodd" clip-rule="evenodd"
    d="M12.793 14.157L13.201 13.288C13.311 13.054 13.404 12.765 13.622 12.603C13.772 12.49 13.982 12.429 14.185 12.366C14.429 12.29 14.678 12.212 14.895 12.073L14.492 11.846C14.54 12.366 14.616 13.018 14.212 13.424C14.033 13.604 13.752 13.678 13.499 13.709C13.189 13.746 12.873 13.723 12.562 13.762C12.419 13.78 12.295 13.87 12.295 14.024C12.295 14.152 12.418 14.304 12.562 14.287C13.25 14.201 14.055 14.333 14.59 13.794C15.109 13.273 15.09 12.521 15.027 11.846C15.009 11.662 14.809 11.501 14.624 11.619C14.206 11.889 13.652 11.905 13.244 12.232C13.007 12.422 12.89 12.701 12.766 12.966C12.62 13.275 12.476 13.584 12.332 13.892C12.271 14.02 12.294 14.174 12.427 14.251C12.543 14.317 12.733 14.286 12.793 14.157Z"
    fill="#94A1B5" />
  <path fill-rule="evenodd" clip-rule="evenodd"
    d="M12.744 13.846L14.924 11.725C14.924 11.725 15.56 12.527 15.014 13.418C14.469 14.309 12.881 14.235 12.559 14.22C12.236 14.206 12.744 13.846 12.744 13.846Z"
    fill="#94A1B5" />
  <path fill-rule="evenodd" clip-rule="evenodd"
    d="M34.211 10.675C34.075 11.372 33.802 12.1 33.329 12.638C31.737 14.454 30.139 15.434 27.853 15.779C27.576 15.844 27.403 15.783 27.305 15.716C28.123 15.228 32.297 12.604 31.536 10.198C31.346 9.59598 30.679 9.38898 30.133 8.97498C29.342 8.36898 28.673 7.70498 29.118 7.55898C29.377 7.47398 29.655 7.45898 29.878 7.46698C30.132 7.47398 30.316 7.51198 30.316 7.51198C30.706 7.67798 31.749 8.13098 32.153 8.26098C32.626 8.41498 33.144 8.48298 33.55 8.76798C33.861 8.98498 34.068 9.31198 34.17 9.67498C34.263 9.99598 34.275 10.347 34.211 10.675Z"
    fill="#94A1B5" />
  <path fill-rule="evenodd" clip-rule="evenodd"
    d="M29.36 9.62705L29.393 9.45605C29.404 9.42246 29.4057 9.38653 29.398 9.35205C29.3968 9.31701 29.3857 9.28302 29.366 9.25405C29.3494 9.22406 29.3253 9.19891 29.296 9.18105C29.2707 9.15742 29.2397 9.14087 29.206 9.13305L29.136 9.12305C29.0882 9.12312 29.0413 9.13589 29 9.16005C28.9822 9.17365 28.9642 9.18699 28.946 9.20005C28.9131 9.23233 28.8894 9.27268 28.877 9.31705C28.867 9.37405 28.855 9.43005 28.844 9.48705C28.8333 9.52107 28.8319 9.55732 28.84 9.59205C28.8411 9.6268 28.8514 9.66064 28.87 9.69005C28.888 9.72005 28.911 9.74505 28.94 9.76305C28.9661 9.78581 28.9973 9.80194 29.031 9.81005L29.103 9.81905C29.1501 9.81941 29.1964 9.80696 29.237 9.78305L29.292 9.74305C29.3246 9.71113 29.3481 9.67108 29.36 9.62705ZM31.527 10.64L31.767 10.33C31.787 10.3 31.797 10.267 31.799 10.232C31.807 10.1976 31.8056 10.1617 31.795 10.128C31.7863 10.0948 31.7694 10.0642 31.746 10.039C31.7275 10.0105 31.702 9.98705 31.672 9.97105C31.6089 9.93604 31.5348 9.92672 31.465 9.94505L31.401 9.97105C31.3617 9.99393 31.3287 10.0262 31.305 10.065L31.065 10.375C31.0457 10.4042 31.0346 10.4381 31.033 10.473C31.0253 10.5075 31.027 10.5435 31.038 10.577C31.0463 10.6106 31.0628 10.6415 31.086 10.667C31.1048 10.6958 31.1306 10.7192 31.161 10.735C31.2239 10.7706 31.2983 10.7799 31.368 10.761L31.431 10.735C31.4704 10.7119 31.5034 10.6792 31.527 10.64ZM29.797 11.109L29.703 11.595C29.6865 11.6631 29.6961 11.7348 29.73 11.796C29.7671 11.8559 29.8259 11.8991 29.8941 11.9166C29.9623 11.9341 30.0346 11.9246 30.096 11.89C30.153 11.856 30.206 11.8 30.219 11.734L30.313 11.249C30.3299 11.1804 30.3202 11.1079 30.286 11.046C30.2495 10.9875 30.1924 10.9447 30.126 10.926C30.0564 10.908 29.9826 10.9177 29.92 10.953C29.864 10.988 29.81 11.043 29.797 11.109ZM28.04 11.941C27.931 12.124 27.842 12.321 27.772 12.524C27.763 12.5577 27.7607 12.5927 27.7653 12.6273C27.77 12.6618 27.7814 12.695 27.799 12.725C27.8355 12.7836 27.8926 12.8264 27.959 12.845C28.0286 12.8637 28.1028 12.8547 28.166 12.82C28.2245 12.7837 28.2681 12.7276 28.289 12.662C28.311 12.596 28.337 12.531 28.364 12.467L28.337 12.529C28.385 12.418 28.44 12.309 28.502 12.206C28.5197 12.1759 28.5313 12.1425 28.5361 12.1078C28.5409 12.0732 28.5388 12.0379 28.53 12.004C28.5103 11.9381 28.4663 11.882 28.407 11.847C28.3442 11.8112 28.2699 11.8015 28.2 11.82C28.1335 11.8391 28.0764 11.8822 28.04 11.941ZM30.902 12.224C30.8959 12.2419 30.8892 12.2596 30.882 12.277L30.909 12.214C30.8882 12.2629 30.8613 12.3089 30.829 12.351L30.87 12.298L30.859 12.312C30.8331 12.3349 30.8137 12.3642 30.803 12.397C30.7861 12.4276 30.7781 12.4622 30.78 12.497C30.7782 12.5322 30.7861 12.5672 30.803 12.598C30.814 12.631 30.833 12.658 30.859 12.683L30.913 12.723C30.9536 12.747 30.9999 12.7595 31.047 12.759L31.119 12.75C31.163 12.7379 31.2032 12.7148 31.236 12.683C31.2773 12.6366 31.3141 12.5864 31.346 12.533C31.3742 12.4781 31.3986 12.4213 31.419 12.363C31.4295 12.3293 31.4309 12.2935 31.423 12.259C31.4216 12.2242 31.4109 12.1904 31.392 12.161C31.3755 12.1307 31.3514 12.1052 31.322 12.087C31.2962 12.0644 31.2653 12.0483 31.232 12.04L31.16 12.032C31.1126 12.0312 31.066 12.0433 31.025 12.067C31.0068 12.0804 30.9888 12.0941 30.971 12.108C30.938 12.1398 30.9142 12.1799 30.902 12.224ZM29.196 13.217L28.88 13.523C28.8547 13.5458 28.8357 13.5747 28.825 13.607C28.8081 13.6379 28.8002 13.6729 28.802 13.708C28.8 13.7435 28.8079 13.7789 28.825 13.81C28.835 13.842 28.855 13.87 28.88 13.894C28.931 13.94 28.998 13.974 29.07 13.97C29.14 13.9694 29.2072 13.9422 29.258 13.894C29.364 13.792 29.468 13.69 29.575 13.589C29.6002 13.5658 29.6191 13.5366 29.63 13.504C29.6462 13.4729 29.6538 13.4381 29.652 13.403C29.6538 13.3683 29.6462 13.3338 29.63 13.303C29.6197 13.27 29.6007 13.2403 29.575 13.217C29.5244 13.1675 29.4563 13.1398 29.3855 13.1398C29.3147 13.1398 29.2466 13.1675 29.196 13.217Z"
    fill="#94A1B5" />
  <path fill-rule="evenodd" clip-rule="evenodd"
    d="M16.945 7.28006C16.9175 7.37256 16.8778 7.461 16.827 7.54306C16.921 7.60306 16.977 7.71606 16.897 7.83506C16.7284 8.10842 16.5283 8.36114 16.301 8.58806C16.2351 8.65228 16.1653 8.7124 16.092 8.76806C15.797 8.99106 15.458 9.06806 15.089 9.06606C13.751 9.05706 12.197 8.20606 11.576 7.02406C11.274 6.45006 11.381 5.74306 11.618 5.16306C11.819 4.67506 12.125 4.31606 12.514 3.96806C12.734 3.77306 13.059 4.09006 12.84 4.28806C12.684 4.42806 12.542 4.56806 12.416 4.72106C12.4498 4.74626 12.4801 4.77586 12.506 4.80906C12.632 4.98306 12.611 5.21306 12.63 5.42506C12.668 5.83506 12.877 6.21706 13.17 6.51106C13.463 6.80406 13.855 6.97406 14.231 7.15206C14.847 7.44806 15.878 7.37206 16.056 7.10806C16.226 6.85806 16.216 6.26606 16.462 6.08606C16.5518 6.023 16.6593 5.99009 16.769 5.99206C16.964 6.39406 17.078 6.85106 16.945 7.28006Z"
    fill="#94A1B5" />
  <path fill-rule="evenodd" clip-rule="evenodd"
    d="M13.78 3.63202C13.911 3.63502 14.041 3.65102 14.17 3.67802L14.362 3.72702C15.325 3.93402 16.154 4.55802 16.711 5.36402C17.031 5.83002 17.301 6.40302 17.268 6.97802C17.236 7.51202 16.938 7.97102 16.48 8.25502C15.474 8.88202 14.218 8.37802 13.31 7.81502C12.371 7.23102 11.633 6.25702 11.821 5.11502C11.897 4.65502 12.154 4.18602 12.539 3.90302C12.784 3.72202 13.063 3.64702 13.353 3.63402C13.483 3.61002 13.625 3.60802 13.78 3.63202Z"
    fill="#94A1B5" />
  <path fill-rule="evenodd" clip-rule="evenodd"
    d="M24.1 8.63106C23.917 8.86806 23.742 9.04906 23.654 9.05206C23.402 9.06206 22.537 8.47806 22.38 8.33906C22.3464 8.30824 22.32 8.2704 22.3028 8.22822C22.2855 8.18605 22.2777 8.14058 22.28 8.09506C22.276 7.91506 22.366 7.69806 22.373 7.50606C22.377 7.41306 22.503 6.81106 22.599 6.81706C22.73 6.82406 22.922 7.23006 22.979 7.34606C23.034 7.46106 23.21 7.71206 23.34 7.75006C23.512 7.80006 24.497 7.51006 24.674 7.49206C24.849 7.47606 24.459 8.16406 24.1 8.63206"
    fill="#94A1B5" />
  <path fill-rule="evenodd" clip-rule="evenodd"
    d="M24.1 8.63098C23.917 8.86798 23.742 9.04898 23.654 9.05198C23.402 9.06198 22.537 8.47798 22.38 8.33898C22.3464 8.30816 22.32 8.27032 22.3028 8.22815C22.2855 8.18597 22.2777 8.14051 22.28 8.09498C22.515 7.98998 23.134 7.85698 24.1 8.63098Z"
    fill="#94A1B5" />
  <path fill-rule="evenodd" clip-rule="evenodd"
    d="M23.852 11.795C23.402 12.251 22.791 12.6 22.144 12.643C20.916 12.727 19.986 11.791 19.633 10.864C19.508 10.529 19.456 10.194 19.493 9.91098C19.561 9.40198 19.844 8.92598 20.263 8.56498C21.019 7.98398 21.751 8.04598 22.436 8.15198C23.104 8.25298 23.722 8.68198 24.096 9.24598C24.266 9.49598 24.385 9.77598 24.439 10.062C24.556 10.682 24.299 11.337 23.852 11.795Z"
    fill="#94A1B5" />
  <path fill-rule="evenodd" clip-rule="evenodd"
    d="M23.852 11.795C23.402 12.251 22.791 12.6 22.144 12.643C20.916 12.727 19.986 11.791 19.633 10.864C19.6511 10.8554 19.6703 10.8494 19.69 10.846C19.823 10.818 19.957 10.878 20.079 10.94C20.317 11.065 20.722 11.142 20.99 11.177C21.818 11.287 22.2 11.135 22.614 10.92C22.966 10.737 23.395 10.186 23.587 9.67002C23.648 9.50702 23.757 9.37002 23.874 9.24002C23.907 9.20402 24.054 9.27202 24.097 9.24602C24.267 9.49602 24.385 9.77602 24.439 10.062C24.556 10.682 24.299 11.337 23.852 11.795Z"
    fill="#94A1B5" />
  <path fill-rule="evenodd" clip-rule="evenodd"
    d="M21.415 11.889C21.631 11.959 21.857 12.003 22.083 12.028C22.147 12.035 22.229 11.994 22.272 11.952C22.2967 11.9278 22.3162 11.8989 22.3296 11.8671C22.343 11.8352 22.3498 11.801 22.3498 11.7665C22.3498 11.732 22.343 11.6978 22.3296 11.6659C22.3162 11.6341 22.2967 11.6052 22.272 11.581L22.218 11.54C22.1769 11.5165 22.1304 11.5041 22.083 11.504L22.053 11.5L22.124 11.51C21.9319 11.4849 21.7425 11.4424 21.558 11.383C21.4881 11.365 21.414 11.3747 21.351 11.41C21.2917 11.445 21.2477 11.501 21.228 11.567C21.2114 11.6345 21.2216 11.7057 21.2565 11.7658C21.2913 11.8259 21.3482 11.87 21.415 11.889Z"
    fill="#94A1B5" />
  <path fill-rule="evenodd" clip-rule="evenodd"
    d="M13.593 4.96604C13.774 5.26604 13.939 5.57604 14.086 5.89404C14.136 6.00304 14.304 6.03704 14.401 5.97604C14.514 5.90404 14.537 5.78304 14.483 5.66604C14.3363 5.34765 14.1717 5.03783 13.99 4.73804C13.929 4.63704 13.78 4.59104 13.676 4.65704C13.571 4.72304 13.526 4.85704 13.593 4.96604ZM14 5.90604C13.7009 5.77313 13.3806 5.69392 13.054 5.67204C12.934 5.66404 12.818 5.78204 12.824 5.89804C12.829 6.02604 12.924 6.11404 13.054 6.12304C13.11 6.12704 13.166 6.13304 13.223 6.14004L13.161 6.13204C13.3536 6.15849 13.5426 6.20715 13.724 6.27704C13.731 6.28004 13.739 6.28204 13.746 6.28604C13.762 6.29204 13.755 6.28904 13.726 6.27604C13.74 6.27904 13.756 6.29004 13.768 6.29604C13.8223 6.32489 13.8853 6.33272 13.945 6.31804C14.0027 6.30245 14.0523 6.26566 14.084 6.21504C14.136 6.11604 14.118 5.95704 14.001 5.90504M15.977 6.09404C15.6911 6.02031 15.4096 5.93016 15.134 5.82404C15.0755 5.80796 15.0131 5.81552 14.9602 5.84508C14.9072 5.87464 14.868 5.92383 14.851 5.98204C14.8431 6.01095 14.841 6.04116 14.845 6.07087C14.8489 6.10059 14.8588 6.12921 14.874 6.15504C14.9067 6.20414 14.9549 6.24078 15.011 6.25904C15.287 6.36504 15.568 6.45604 15.855 6.52904C15.971 6.55904 16.11 6.49104 16.138 6.37204C16.1531 6.31398 16.1447 6.25233 16.1148 6.20035C16.0849 6.14837 16.0348 6.1102 15.977 6.09404ZM14.38 6.39004C14.583 6.72804 14.819 7.04804 15.08 7.34604C15.16 7.43604 15.326 7.43204 15.406 7.34604C15.496 7.25104 15.49 7.12204 15.406 7.02704C15.3447 6.95747 15.285 6.88645 15.227 6.81404L15.206 6.78804C15.186 6.76304 15.23 6.81904 15.21 6.79404L15.17 6.74004C15.0285 6.55493 14.8977 6.36196 14.778 6.16204C14.716 6.06004 14.567 6.01504 14.462 6.08004C14.357 6.14704 14.314 6.28004 14.379 6.39004"
    fill="#94A1B5" />
  <path fill-rule="evenodd" clip-rule="evenodd"
    d="M6.01001 25.806C6.03201 25.836 6.05401 25.868 6.07401 25.9C6.06456 25.891 6.05617 25.881 6.04901 25.87L6.04701 25.866C6.03401 25.847 6.02101 25.827 6.01001 25.806Z"
    fill="#94A1B5" />
  <path fill-rule="evenodd" clip-rule="evenodd"
    d="M23.834 22.682C22.692 22.808 21.54 22.856 20.394 22.938C20.19 22.952 20.188 23.268 20.394 23.253C21.54 23.171 22.692 23.123 23.834 22.997C24.037 22.975 24.039 22.66 23.834 22.682ZM31.184 20.75C29.33 21.51 27.42 22.146 25.433 22.467C25.23 22.501 25.316 22.804 25.518 22.771C27.506 22.449 29.415 21.813 31.269 21.053C31.456 20.976 31.374 20.673 31.184 20.75ZM32.231 21.242C29.504 22.539 26.605 23.464 23.566 23.667C23.361 23.68 23.36 23.995 23.566 23.981C26.665 23.774 29.612 22.836 32.393 21.513C32.579 21.425 32.416 21.153 32.231 21.242ZM33.743 17.117C31.439 18.73 28.711 19.423 25.941 19.783C25.739 19.809 25.736 20.124 25.941 20.097C28.767 19.73 31.554 19.035 33.905 17.389C34.072 17.272 33.912 16.999 33.743 17.117Z"
    fill="#94A1B5" />
  <path fill-rule="evenodd" clip-rule="evenodd"
    d="M33.038 18.56C31.698 19.478 30.122 20.025 28.55 20.422C26.7 20.888 24.796 21.139 22.89 21.257C22.686 21.27 22.684 21.584 22.89 21.571C24.824 21.451 26.757 21.198 28.635 20.725C30.231 20.323 31.841 19.764 33.2 18.831C33.367 18.716 33.208 18.444 33.038 18.56ZM31.611 22.424C28.726 23.865 25.603 24.622 22.367 24.699C22.16 24.705 22.159 25.019 22.367 25.014C25.6351 24.9464 28.8476 24.1547 31.773 22.696C31.957 22.604 31.795 22.332 31.611 22.424ZM29.791 25.238C28.561 25.848 27.173 26.194 25.831 26.47C24.231 26.798 22.578 27.004 20.941 26.915C20.734 26.905 20.735 27.219 20.941 27.23C22.605 27.32 24.288 27.107 25.916 26.773C27.288 26.492 28.696 26.133 29.954 25.509C30.138 25.418 29.976 25.146 29.791 25.238ZM28.904 26.581C27.712 27.199 26.289 27.453 24.975 27.677C23.333 27.958 21.66 28.127 19.993 28.12C19.786 28.12 19.786 28.434 19.993 28.435C21.689 28.441 23.39 28.267 25.06 27.981C26.404 27.751 27.848 27.484 29.066 26.853C29.249 26.758 29.086 26.487 28.904 26.581ZM30.658 23.914C29.758 24.434 28.695 24.714 27.689 24.965C26.3573 25.3011 25.0026 25.5384 23.636 25.675C22.953 25.742 22.266 25.78 21.58 25.761C21.373 25.756 21.373 26.071 21.58 26.076C22.89 26.112 24.205 25.956 25.493 25.742C26.794 25.524 28.094 25.236 29.343 24.815C29.849 24.644 30.358 24.453 30.821 24.185C30.998 24.082 30.837 23.811 30.658 23.914ZM26.583 28.324C23.62 29.364 20.458 29.401 17.346 29.357C17.14 29.354 17.139 29.669 17.346 29.672C20.485 29.717 23.679 29.677 26.669 28.627C26.862 28.559 26.779 28.256 26.583 28.324Z"
    fill="#94A1B5" />
  <path fill-rule="evenodd" clip-rule="evenodd"
    d="M34.17 9.67504C33.172 9.90604 32.25 9.90604 30.777 9.00304C30.181 8.63804 29.933 7.86604 29.878 7.46704C30.132 7.47404 30.317 7.51204 30.317 7.51204C30.707 7.67804 31.75 8.13204 32.153 8.26104C32.627 8.41504 33.145 8.48404 33.549 8.76804C33.861 8.98504 34.067 9.31204 34.171 9.67504"
    fill="#94A1B5" />
  <path fill-rule="evenodd" clip-rule="evenodd"
    d="M34.934 9.18995C34.676 9.46995 34.269 9.54295 33.901 9.50195C33.3833 9.44292 32.8697 9.35276 32.363 9.23195C31.788 9.08995 31.163 8.91495 30.701 8.53395C30.353 8.22395 30.078 7.86195 29.926 7.42395C29.793 7.04795 29.734 6.63095 29.688 6.23695C29.596 5.40995 29.873 4.31495 30.865 4.16695C31.349 4.09795 31.736 4.35595 31.973 4.72595C32.124 4.96295 32.213 5.24395 32.225 5.51595C32.2301 5.75941 32.2032 6.00249 32.145 6.23895C32.118 6.36195 32.085 6.48395 32.05 6.60595C32.03 6.67795 32.015 6.80195 31.984 6.89495L31.978 6.90995L31.948 6.97195C31.947 6.97595 31.947 6.97895 31.945 6.98195H31.95C31.99 6.95895 32.037 6.94895 32.076 6.92395C32.1652 6.86246 32.2425 6.7852 32.304 6.69595C32.42 6.53995 32.499 6.36195 32.603 6.19895C32.823 5.85295 33.148 5.58895 33.572 5.53495C33.949 5.48495 34.32 5.63095 34.54 5.93895C34.624 6.0554 34.6804 6.18945 34.705 6.33095C34.739 6.53255 34.6969 6.73959 34.587 6.91195C34.397 7.21395 34.055 7.36895 33.739 7.51595C33.644 7.55895 33.537 7.59995 33.457 7.66895C33.387 7.73195 33.371 7.73795 33.432 7.78595C33.526 7.86095 33.778 7.80595 33.889 7.80195C34.224 7.78995 34.574 7.86195 34.823 8.08195C34.8688 8.12046 34.91 8.16408 34.946 8.21195C35.172 8.50495 35.189 8.91295 34.934 9.18995Z"
    fill="#94A1B5" />
  <path fill-rule="evenodd" clip-rule="evenodd"
    d="M32.225 5.51705C32.235 5.75905 32.197 6.00305 32.145 6.23905C32.118 6.36105 32.085 6.48505 32.05 6.60505C32.03 6.67805 32.015 6.80305 31.983 6.89505L31.978 6.91105L31.948 6.97205C31.948 6.97205 31.698 7.37805 31.514 7.19705C31.329 7.01705 32.151 5.61705 31.973 4.72705C32.123 4.96205 32.213 5.24405 32.225 5.51705Z"
    fill="#94A1B5" />
  <path fill-rule="evenodd" clip-rule="evenodd"
    d="M16.3 8.58802C16.2346 8.6524 16.1651 8.71253 16.092 8.76802C15.798 8.99102 15.458 9.06802 15.09 9.06702C13.75 9.05702 12.197 8.20702 11.576 7.02502L11.709 6.91602C11.709 6.91602 12.167 7.73902 13.724 8.42002C14.559 8.78502 15.364 8.85902 16.3 8.58802Z"
    fill="#94A1B5" />
  <path fill-rule="evenodd" clip-rule="evenodd"
    d="M16.97 14.223C16.84 14.902 16.315 15.389 15.714 15.703C15.0631 16.056 14.3098 16.1716 13.583 16.03C15.014 16 16.055 15.107 16.589 14.059C16.959 13.336 16.769 12.521 16.672 12.155C16.974 12.793 17.101 13.528 16.97 14.223Z"
    fill="#94A1B5" />
  <path fill-rule="evenodd" clip-rule="evenodd"
    d="M27.003 29.494C26.876 29.622 26.746 29.744 26.608 29.859C26.2 30.198 25.703 30.402 25.209 30.593C23.539 31.248 21.721 31.478 19.938 31.57C17.498 31.695 15.04 31.554 12.65 31.037C11.721 30.837 10.799 30.58 9.92701 30.203C9.28501 29.927 8.78801 29.342 8.34601 28.822C8.57401 29.062 10.22 30.613 14.909 30.944C19.999 31.301 24.212 31.123 26.999 29.495L27.003 29.494Z"
    fill="#94A1B5" />
  <path fill-rule="evenodd" clip-rule="evenodd"
    d="M33.596 7.36603C33.909 7.19803 34.768 6.79403 34.706 6.36403L34.705 6.33203C34.7388 6.53331 34.6968 6.73998 34.587 6.91203C34.397 7.21403 34.055 7.36903 33.739 7.51603C33.644 7.55903 33.537 7.60103 33.458 7.66903C33.386 7.73203 32.988 7.92003 32.988 7.73903C32.988 7.55903 33.281 7.53303 33.596 7.36603Z"
    fill="#94A1B5" />
</svg>