<?xml version="1.0" encoding="UTF-8"?>
<svg width="12px" height="14px" viewBox="0 0 12 14" version="1.1" xmlns="http://www.w3.org/2000/svg" xmlns:xlink="http://www.w3.org/1999/xlink">
    <!-- Generator: Sketch 52.6 (67491) - http://www.bohemiancoding.com/sketch -->
    <title>Path</title>
    <desc>Created with Sketch.</desc>
    <g id="Page-1" stroke="none" stroke-width="1" fill="none" fill-rule="evenodd">
        <g id="-Home-Alternative" transform="translate(-459.000000, -407.000000)" fill="#FFFFFF">
            <g id="Hero" transform="translate(-368.000000, -913.000000)">
                <g id="Text" transform="translate(508.000000, 1088.000000)">
                    <g id="Watch-the-video" transform="translate(167.000000, 219.000000)">
                        <g id="play" transform="translate(152.000000, 13.000000)">
                            <path d="M11.2729167,6.1578125 L1.12291667,0.116666667 C0.998958333,0.04375 0.871354167,0 0.725520833,0 C0.328125,0 0.00364583333,0.328125 0.00364583333,0.729166667 L0,0.729166667 L0,13.2708333 L0.00364583333,13.2708333 C0.00364583333,13.671875 0.328125,14 0.725520833,14 C0.875,14 0.998958333,13.9489583 1.13385417,13.8760417 L11.2729167,7.8421875 C11.5135417,7.64166667 11.6666667,7.3390625 11.6666667,7 C11.6666667,6.6609375 11.5135417,6.36197917 11.2729167,6.1578125 Z" id="Path"></path>
                        </g>
                    </g>
                </g>
            </g>
        </g>
    </g>
</svg>