<?xml version="1.0" encoding="UTF-8"?>
<svg width="22px" height="17px" viewBox="0 0 22 17" version="1.1" xmlns="http://www.w3.org/2000/svg" xmlns:xlink="http://www.w3.org/1999/xlink">
    <!-- Generator: Sketch 52.6 (67491) - http://www.bohemiancoding.com/sketch -->
    <title>reddit</title>
    <desc>Created with Sketch.</desc>
    <g id="Page-1" stroke="none" stroke-width="1" fill="none" fill-rule="evenodd">
        <g id="Support" transform="translate(-785.000000, -1517.000000)">
            <g id="Footer" transform="translate(0.000000, 1372.000000)">
                <g id="social-02" transform="translate(776.000000, 134.000000)">
                    <g id="reddit" transform="translate(9.000000, 11.000000)">
                        <polygon id="Shape" fill="#FFFFFF" points="7.54001021 10.0587992 7.54001021 10.0626712 8.18960013 10.0626712"></polygon>
                        <polygon id="Shape" fill="#FFFFFF" points="14.0359095 10.0587992 14.0359095 10.0626712 14.6854994 10.0626712"></polygon>
                        <path d="M21.2723413,8.16900137 C21.2723413,6.77844296 20.1069769,5.64758993 18.6739816,5.64758993 C18.1010433,5.64758993 17.5566869,5.82913155 17.1123674,6.15817575 C15.6624827,5.18112881 13.7630817,4.59868277 11.742857,4.4511802 L12.8328689,1.97011134 L16.004167,2.6887136 C16.105503,3.64054642 16.9265847,4.38688421 17.933449,4.38688421 C19.0078708,4.38688421 19.8822188,3.53842926 19.8822188,2.49582563 C19.8822188,1.45322199 19.0078708,0.604767044 17.933449,0.604767044 C17.2526788,0.604767044 16.6537569,0.946418294 16.3055767,1.46204693 L12.5990166,0.621156218 C12.284615,0.551817403 11.9767094,0.706884207 11.8519881,0.988021583 L10.3449395,4.41714114 C8.16361654,4.49026208 6.08492877,5.08657588 4.5155195,6.1253974 C4.08808933,5.8177852 3.55802395,5.64758993 2.99288071,5.64758993 C1.55988533,5.64758993 0.394521,6.77844296 0.394521,8.16900137 C0.394521,9.09057725 0.912893762,9.92390373 1.70799183,10.351283 C1.6975984,10.4622251 1.69370086,10.5756886 1.69370086,10.6904128 C1.69370086,14.1661785 5.7731256,16.9939414 10.7879598,16.9939414 C15.8014949,16.9939414 19.8822188,14.1661785 19.8822188,10.6904128 C19.8822188,10.5920778 19.8783213,10.4950034 19.8718254,10.3979291 C20.7188907,9.97937479 21.2723413,9.12587701 21.2723413,8.16900137 Z M17.933449,1.86547276 C18.2907235,1.86547276 18.583039,2.14787085 18.583039,2.49582563 C18.583039,2.8437804 18.2907235,3.12617849 17.933449,3.12617849 C17.5761746,3.12617849 17.2838591,2.8437804 17.2838591,2.49582563 C17.2838591,2.14787085 17.5761746,1.86547276 17.933449,1.86547276 Z M6.24083035,10.0600599 C6.24083035,9.3654111 6.8241621,8.79935423 7.54001021,8.79935423 C8.25585831,8.79935423 8.83919006,9.3654111 8.83919006,10.0600599 C8.83919006,10.7559695 8.25585831,11.3207657 7.54001021,11.3207657 C6.8241621,11.3207657 6.24083035,10.7559695 6.24083035,10.0600599 Z M13.7877661,14.2418208 C12.891332,14.870913 11.8389963,15.1860894 10.7879598,15.1860894 C9.73692334,15.1860894 8.68458766,14.870913 7.78815356,14.2418208 C7.49713727,14.0375865 7.43217828,13.6429856 7.64264541,13.3618482 C7.85311255,13.0807109 8.25975585,13.0176756 8.54947295,13.2206492 C9.88892738,14.159875 11.6869923,14.1623964 13.0264467,13.2206492 C13.3161638,13.0176756 13.721508,13.0781894 13.9332743,13.3618482 C14.1437414,13.6442463 14.0774832,14.0375865 13.7877661,14.2418208 Z M14.0359095,11.3207657 C13.3187622,11.3207657 12.7367296,10.7559695 12.7367296,10.0600599 C12.7367296,9.3654111 13.3187622,8.79935423 14.0359095,8.79935423 C14.7530568,8.79935423 15.3350893,9.3654111 15.3350893,10.0600599 C15.3350893,10.7559695 14.7530568,11.3207657 14.0359095,11.3207657 Z" id="Shape" fill="#52FCFF" fill-rule="nonzero"></path>
                    </g>
                </g>
            </g>
        </g>
    </g>
</svg>