<?xml version="1.0" encoding="UTF-8"?>
<svg width="21px" height="17px" viewBox="0 0 21 17" version="1.1" xmlns="http://www.w3.org/2000/svg" xmlns:xlink="http://www.w3.org/1999/xlink">
    <!-- Generator: Sketch 52.6 (67491) - http://www.bohemiancoding.com/sketch -->
    <title>Shape</title>
    <desc>Created with Sketch.</desc>
    <g id="Page-1" stroke="none" stroke-width="1" fill="none" fill-rule="evenodd">
        <g id="Support" transform="translate(-636.000000, -1519.000000)" fill="#52FCFF">
            <g id="Footer" transform="translate(0.000000, 1372.000000)">
                <g id="social-01" transform="translate(626.000000, 136.000000)">
                    <g id="twitter" transform="translate(9.000000, 11.000000)">
                        <path d="M21.8073058,2.20203311 C21.0297644,2.53186827 20.2012581,2.75049465 19.3374685,2.85664849 C20.2260872,2.34357157 20.9043124,1.53730784 21.2231697,0.565494648 C20.3946634,1.04318696 19.4799088,1.38060454 18.5050418,1.56890124 C17.7183529,0.758846297 16.5971251,0.257143 15.3739676,0.257143 C13.0008329,0.257143 11.0903027,2.11989025 11.0903027,4.40346168 C11.0903027,4.73203311 11.1190521,5.04796718 11.1896189,5.34873641 C7.62599644,5.18065948 4.47270677,3.52895619 2.35439655,1.01285729 C1.98457435,1.63335179 1.76764684,2.34357157 1.76764684,3.10813201 C1.76764684,4.54373641 2.5321203,5.81631882 3.67164313,6.55307707 C2.98296362,6.5404397 2.30735203,6.34708805 1.73497703,6.04252762 C1.73497703,6.05516498 1.73497703,6.07159355 1.73497703,6.08802212 C1.73497703,8.10241773 3.22079981,9.77560454 5.16922703,10.1610441 C4.8203135,10.2532968 4.44003696,10.2975276 4.04538571,10.2975276 C3.77095934,10.2975276 3.49391938,10.2823628 3.23386773,10.2267584 C3.78925443,11.8683518 5.36524587,13.0752199 7.23918594,13.1143957 C5.7808058,14.2176375 3.9290812,14.8823628 1.92446191,14.8823628 C1.57293479,14.8823628 1.2357824,14.8671979 0.89863,14.8254946 C2.79739912,16.0096155 5.04769535,16.6857144 7.47440854,16.6857144 C15.3622065,16.6857144 19.6746209,10.3670331 19.6746209,4.89000014 C19.6746209,4.70675838 19.6680869,4.52983531 19.6589394,4.35417597 C20.5096611,3.77032981 21.2244765,3.04115399 21.8073058,2.20203311 Z" id="Shape"></path>
                    </g>
                </g>
            </g>
        </g>
    </g>
</svg>