<?xml version="1.0" encoding="UTF-8"?>
<svg width="22px" height="14px" viewBox="0 0 22 14" version="1.1" xmlns="http://www.w3.org/2000/svg" xmlns:xlink="http://www.w3.org/1999/xlink">
    <!-- Generator: Sketch 52.6 (67491) - http://www.bohemiancoding.com/sketch -->
    <title>Shape</title>
    <desc>Created with Sketch.</desc>
    <g id="Page-1" stroke="none" stroke-width="1" fill="none" fill-rule="evenodd">
        <g id="Support" transform="translate(-685.000000, -1519.000000)" fill="#52FCFF" fill-rule="nonzero">
            <g id="Footer" transform="translate(0.000000, 1372.000000)">
                <g id="social-02" transform="translate(676.000000, 134.000000)">
                    <g id="youtube" transform="translate(9.000000, 13.000000)">
                        <path d="M20.6164041,1.49506451 C20.0492562,0.572674896 19.4337571,0.403012558 18.1805433,0.338493078 C16.9286364,0.26083074 13.7805739,0.228571 11.0532985,0.228571 C8.32079592,0.228571 5.17142662,0.26083074 3.92082645,0.337298273 C2.67022628,0.403012558 2.05342034,0.571480091 1.48104534,1.49506451 C0.896909215,2.41625931 0.596347,4.00296061 0.596347,6.79641516 C0.596347,6.79880477 0.596347,6.79999957 0.596347,6.79999957 C0.596347,6.80238918 0.596347,6.80358399 0.596347,6.80358399 L0.596347,6.8059736 C0.596347,9.58748009 0.896909215,11.1861294 1.48104534,12.0977658 C2.05342034,13.0201554 2.66891949,13.1874281 3.91951966,13.2650905 C5.17142662,13.3319996 8.32079592,13.3714281 11.0532985,13.3714281 C13.7805739,13.3714281 16.9286364,13.3319996 18.1818501,13.2662853 C19.4350639,13.1886229 20.050563,13.0213502 20.6177109,12.0989606 C21.2070742,11.1873242 21.5050228,9.5886749 21.5050228,6.8071684 C21.5050228,6.8071684 21.5050228,6.80358399 21.5050228,6.80119438 C21.5050228,6.80119438 21.5050228,6.79880477 21.5050228,6.79760996 C21.5050228,4.00296061 21.2070742,2.41625931 20.6164041,1.49506451 Z M8.43710042,10.3844152 L8.43710042,3.21558399 L14.9710616,6.79999957 L8.43710042,10.3844152 Z" id="Shape"></path>
                    </g>
                </g>
            </g>
        </g>
    </g>
</svg>