<svg xmlns="http://www.w3.org/2000/svg" width="186" height="64" viewBox="0 0 186 64" fill="none"><path d="M71.9099 38.3833V41.5753H58.7769V38.3833H63.4689V25.5922H58.7769V22.4002H71.9099V25.5922H67.2179V38.3833H71.9099Z" fill="#919A9F"></path><path d="M49.714 22.4358H46.126L43.504 37.5862L40.468 23.546C40.33 22.5745 39.916 22.4358 39.088 22.4358H37.156C36.328 22.4358 35.914 22.7133 35.776 23.546L32.74 37.5862L30.118 22.4358H26.208L29.934 40.6625C30.072 41.4952 30.348 41.634 31.314 41.634H33.936C34.764 41.634 35.04 41.4952 35.316 40.6625L38.214 27.4551L41.112 40.6625C41.25 41.4952 41.526 41.634 42.492 41.634H44.976C45.804 41.634 46.218 41.4952 46.356 40.6625C46.402 40.6625 49.714 22.4358 49.714 22.4358ZM51.646 45.8668H24V18.1335H51.577V45.8668H51.646Z" fill="#919A9F"></path><path d="M97.0719 36.6147C97.0719 38.6964 97.2099 40.223 97.4859 41.4721H101.212C101.074 40.5006 100.936 38.6964 100.936 36.3371C100.798 33.5615 99.9699 33.1451 98.0379 32.7288C100.246 32.3124 101.212 31.341 101.212 27.8714C101.212 25.0958 100.798 23.9855 99.9699 23.2916C99.4179 22.7365 98.4519 22.4589 96.9339 22.4589H85.3189V41.6571H89.1829V34.1397H94.5649C95.6689 34.1397 96.0829 34.2785 96.4969 34.5561C96.9339 34.8105 97.0719 35.2269 97.0719 36.6147ZM89.2059 31.0634V25.7665H95.4389C96.2669 25.7665 96.5429 25.9053 96.6809 26.0441C96.9569 26.3217 97.2329 26.738 97.2329 28.4034C97.2329 30.0688 96.9569 30.6239 96.6809 30.9015C96.5429 31.0403 96.2669 31.1791 95.4389 31.1791C95.4159 31.2022 89.2059 31.0634 89.2059 31.0634ZM106.755 45.8668H79.1089V18.1335H106.686V45.8668H106.755Z" fill="#919A9F"></path><path d="M140.428 22.4358V41.634H149.835C152.457 41.634 153.975 41.2176 155.079 40.2462C156.459 38.9971 157.149 36.7766 157.149 32.0349C157.149 27.2931 156.459 25.0726 155.079 23.8236C153.975 22.8521 152.457 22.4358 149.835 22.4358H140.428ZM153.285 32.0349C153.285 36.1983 153.009 37.1698 152.181 37.725C151.629 38.1413 150.939 38.2801 149.559 38.2801H144.292V25.6278H149.536C150.916 25.6278 151.606 25.6278 152.158 26.1829C153.009 26.8999 153.285 27.8714 153.285 32.0349ZM162.002 45.8668H134.425V18.1335H162.002V45.8668Z" fill="#919A9F"></path><path d="M111.883 25.5922V22.4002H128.19V28.5298H124.74V25.6153H118.093V30.1951H123.36V33.2484H118.116V38.3833H124.901V35.0525H128.351V41.5984H111.906V38.4064H114.528V25.6153H111.883V25.5922Z" fill="#919A9F"></path></svg>