<svg xmlns="http://www.w3.org/2000/svg" width="244" height="64" viewBox="0 0 244 64" fill="none"><path d="M100.608 28.0366V39.3811H96.2404V28.0366H91.8369V24.4064H105.012V28.0366H100.608ZM115.199 34.8887H108.237C108.213 35.8643 109.022 36.6811 110.046 36.6925C110.105 36.6925 110.165 36.6925 110.236 36.6925C111.307 36.6925 112.367 36.4089 113.295 35.8984L114.878 38.3942C113.45 39.2337 111.795 39.6874 110.117 39.6874C106.547 39.6874 104.607 37.2824 104.607 33.8337C104.607 29.9538 106.904 27.9572 109.998 27.9572C113.093 27.9572 115.259 29.9992 115.259 34.174C115.211 34.4463 115.211 34.6845 115.199 34.8774V34.8887ZM109.843 30.782C108.915 30.782 108.415 31.3832 108.273 32.5064H111.641C111.438 31.3719 111.046 30.782 109.855 30.782H109.843ZM122.721 39.6648C119.269 39.6648 117.198 37.566 117.198 33.7656C117.198 30.3622 119.031 27.9345 122.816 27.9345C124.72 27.8778 126.481 28.8648 127.35 30.4757L124.565 32.5177C124.006 31.5421 123.613 31.0656 122.744 31.0656C121.876 31.0656 121.197 32.0526 121.197 33.8337C121.197 35.6148 121.757 36.5337 122.863 36.5337C123.625 36.5337 124.173 36.1253 124.91 35.0589L127.469 36.9648C126.089 38.8933 124.815 39.6534 122.709 39.6534L122.721 39.6648ZM136.526 39.4492V33.0622C136.526 31.5874 136.014 31.2131 135.181 31.2131C134.348 31.2131 133.801 31.5988 133.801 33.0282V39.4606H129.754V25.3706L133.801 23.8278V28.9328C134.634 28.2748 135.693 27.9232 136.776 27.9459C139.359 27.9459 140.584 29.6022 140.584 32.5517V39.4379H136.526V39.4492Z" fill="#919A9F"></path><path d="M150.282 39.654C145.605 39.654 143.142 36.3641 143.142 31.917C143.142 27.0956 146.117 24.18 150.282 24.18C154.15 24.18 155.674 25.7683 156.757 28.6044L152.805 30.0792C152.234 28.6838 151.699 27.8103 150.259 27.8103C148.438 27.8103 147.64 29.546 147.64 31.9284C147.64 34.3107 148.402 36.0351 150.294 36.0351C151.663 36.0351 152.246 35.3317 153.103 33.9137L156.792 35.7855C155.674 38.2473 153.079 39.7901 150.27 39.6653H150.282V39.654ZM166.777 32.3821C166.325 31.8263 165.635 31.4746 164.897 31.4406C163.909 31.4406 163.302 31.8943 163.302 33.2557V39.3817H159.256V28.162H163.302V28.9788C164.457 27.8216 166.289 27.5834 167.73 28.4002L166.777 32.3935V32.3821ZM176.417 39.3931V38.6443C175.584 39.3023 174.537 39.654 173.466 39.6313C170.883 39.6313 169.658 37.975 169.658 35.0141V28.1733H173.704V34.5263C173.704 35.9784 174.228 36.3641 175.061 36.3641C175.894 36.3641 176.406 35.9784 176.406 34.5716V28.1733H180.476V39.4271L176.417 39.3931ZM190.175 39.3931V33.0061C190.175 31.5313 189.652 31.1569 188.83 31.1569C188.009 31.1569 187.45 31.5427 187.45 32.9721V39.4044H183.403V28.1847H187.45V28.9334C188.283 28.2754 189.342 27.9237 190.425 27.9464C193.008 27.9464 194.234 29.6027 194.234 32.5523V39.4384L190.175 39.4044V39.3931ZM202.136 39.62C198.685 39.62 196.602 37.5212 196.602 33.7208C196.602 30.3174 198.447 27.8897 202.219 27.8897C204.124 27.833 205.885 28.82 206.766 30.4309L203.981 32.4389C203.409 31.4632 203.029 30.9868 202.16 30.9868C201.291 30.9868 200.613 31.9737 200.613 33.7548C200.613 35.5359 201.172 36.4548 202.279 36.4548C203.04 36.4548 203.588 36.0464 204.326 34.98L206.885 36.8859C205.516 38.8599 204.231 39.6086 202.148 39.6086H202.136V39.62ZM215.941 39.4044V33.0174C215.941 31.5427 215.43 31.1683 214.597 31.1683C213.763 31.1683 213.228 31.554 213.228 32.9834V39.4158H209.182V25.3485L213.228 23.8057V28.9107C214.061 28.2527 215.108 27.9011 216.191 27.9237C218.786 27.9237 220 29.58 220 32.5296V39.4158H215.941V39.4044Z" fill="#919A9F"></path><path d="M24 18.1335V27.1411H33.4258V45.1335H42.8754V27.1411H52.3011V18.1335H24ZM61.7507 36.126V27.1297H52.3011V45.1222H80.6261V36.1146H61.7507V36.126ZM61.7507 18.1335H80.6261V27.1411H61.7507V18.1335Z" fill="#919A9F"></path></svg>