<svg xmlns="http://www.w3.org/2000/svg" width="174" height="64" viewBox="0 0 174 64" fill="none"><path d="M42.9379 42.6269V28.9877L37.6435 42.6269H35.2497L29.9211 28.9877V42.6269H24.5V22H32.034L36.4449 33.3806L40.8249 22H48.3589V42.6269H42.9379Z" fill="#919A9F"></path><path d="M59.129 42.6276V41.142C58.1839 42.2545 56.3551 42.9973 54.4031 42.9973C52.071 42.9973 49.1704 41.4209 49.1704 38.0767C49.1704 34.4602 52.071 33.2502 54.4031 33.2502C56.4202 33.2502 58.2181 33.9022 59.129 35.0147V33.5291C59.129 32.2318 57.9955 31.3344 56.0401 31.3344C54.5264 31.3344 53.0162 31.9225 51.7868 32.941L49.9889 29.6337C51.9443 27.9935 54.5607 27.3145 56.8928 27.3145C60.5468 27.3145 63.9816 28.6421 63.9816 33.2838V42.6242H59.129V42.6276ZM59.129 38.7926V37.465C58.6256 36.7558 57.4921 36.4129 56.4168 36.4129C55.16 36.4129 53.9922 36.9709 53.9922 38.1473C53.9922 39.3236 55.16 39.8782 56.4168 39.8782C57.4887 39.8782 58.6222 39.5119 59.129 38.7959" fill="#919A9F"></path><path d="M64.3276 40.6816L66.3447 37.2802C67.4782 38.2684 69.9028 39.2901 71.7007 39.2901C73.1493 39.2901 73.7486 38.8868 73.7486 38.2381C73.7486 36.3862 64.8961 38.302 64.8961 32.242C64.8961 29.6102 67.2282 27.3214 71.4165 27.3214C74.002 27.3214 76.1424 28.1246 77.7827 29.301L75.9266 32.6722C75.0123 31.805 73.2794 31.0353 71.4542 31.0353C70.3172 31.0353 69.5638 31.4656 69.5638 32.0537C69.5638 33.6906 78.3855 31.9899 78.3855 38.1138C78.3855 40.9606 75.8342 42.9974 71.485 42.9974C68.7453 42.9974 65.9372 42.1 64.3311 40.6783" fill="#919A9F"></path><path d="M89.3167 42.6269V33.9352C89.3167 32.1135 88.3373 31.5253 86.7962 31.5253C85.3785 31.5253 84.4333 32.2983 83.8648 32.9806V42.6269H79.0122V22H83.8648V29.5154C84.7792 28.4633 86.5771 27.3206 89.1284 27.3206C92.594 27.3206 94.1693 29.2364 94.1693 31.9891V42.6269H89.3167Z" fill="#919A9F"></path><path d="M104.817 42.6276V41.142C103.871 42.2545 102.043 42.9973 100.091 42.9973C97.7585 42.9973 94.8579 41.4209 94.8579 38.0767C94.8579 34.4602 97.7585 33.2502 100.091 33.2502C102.108 33.2502 103.906 33.9022 104.817 35.0147V33.5291C104.817 32.2318 103.683 31.3344 101.728 31.3344C100.214 31.3344 98.7037 31.9225 97.4743 32.941L95.6764 29.6337C97.6318 27.9935 100.248 27.3145 102.58 27.3145C106.234 27.3145 109.669 28.6421 109.669 33.2838V42.6242H104.817V42.6276ZM104.817 38.7926V37.465C104.313 36.7558 103.18 36.4129 102.104 36.4129C100.847 36.4129 99.6797 36.9709 99.6797 38.1473C99.6797 39.3236 100.847 39.8782 102.104 39.8782C103.176 39.8782 104.31 39.5119 104.817 38.7959" fill="#919A9F"></path><path d="M111.337 42.6269V22H116.19V29.4515C117.388 27.9659 119.025 27.3206 120.696 27.3206C124.511 27.3206 127.405 30.2548 127.405 35.1452C127.405 40.0355 124.443 43 120.696 43C118.994 43 117.45 42.3177 116.19 40.8993V42.6303H111.337V42.6269ZM119.09 38.7919C121.011 38.7919 122.46 37.4004 122.46 35.1452C122.46 32.8899 121.011 31.5253 119.09 31.5253C118.052 31.5253 116.789 32.0832 116.19 32.8865V37.4643C116.789 38.2676 118.052 38.7919 119.09 38.7919Z" fill="#919A9F"></path><path d="M132.956 22H128.103V42.6269H132.956V22Z" fill="#919A9F"></path><path d="M133.647 35.1459C133.647 30.8135 136.956 27.3214 141.716 27.3214C146.222 27.3214 149.5 30.5682 149.5 35.64V36.7223H138.661C139.007 38.0499 140.267 39.1658 142.469 39.1658C143.541 39.1658 145.308 38.702 146.188 37.8953L148.301 41.0177C146.788 42.3487 144.267 42.9974 141.935 42.9974C137.243 42.9974 133.647 39.9993 133.647 35.1426V35.1459ZM141.716 31.153C139.603 31.153 138.784 32.3865 138.596 33.4721H144.866C144.743 32.4201 143.952 31.153 141.716 31.153Z" fill="#919A9F"></path></svg>