<svg xmlns="http://www.w3.org/2000/svg" width="153" height="64" viewBox="0 0 153 64" fill="none"><path fill-rule="evenodd" clip-rule="evenodd" d="M61.7814 24.4352V35.8704H67.422V26.8102C67.5102 26.3704 67.5983 25.9306 67.8627 25.5787C68.2153 24.963 68.8322 24.6991 69.5373 24.787C70.5068 24.875 71.1237 25.4028 71.3 26.5463V35.7824H76.9407V30.5046C76.9407 26.0185 76.9407 25.1389 76.8525 24.6991C76.6763 23.1157 76.1475 21.8843 75.178 21.0046C74.3847 20.213 73.4153 19.7731 72.2695 19.5972C71.8288 19.5093 70.5949 19.5972 70.2424 19.6852C69.1847 19.9491 68.3915 20.3009 67.6864 21.0926L67.2458 21.4444V13H61.6051V24.4352H61.7814ZM121.714 13.1759C121.537 13.5278 115.808 27.338 115.808 27.338H122.507L125.503 20.213C127.178 16.2546 128.5 13 128.5 13H121.802L121.714 13.1759ZM49.4424 19.6852C48.2085 19.8611 47.239 20.213 46.2695 20.8287C44.3305 22.0602 43.0966 24.1713 42.7441 26.6343C42.5678 27.7778 42.6559 29.1852 42.9203 30.2407C43.6254 32.9676 45.4763 35.0787 47.8559 35.8704C48.7373 36.1343 49.0898 36.2222 50.1475 36.2222C50.9407 36.2222 51.2051 36.2222 51.4695 36.1343C52.6153 35.8704 53.4085 35.4306 54.1136 34.7269L54.4661 34.375V35.7824H59.9305V19.9491H54.4661V21.3565L54.2017 21.0926C53.5847 20.3889 52.7034 19.9491 51.5576 19.6852C51.2051 19.5972 51.0288 19.5972 50.3237 19.5972C49.8831 19.6852 49.5305 19.6852 49.4424 19.6852ZM85.4017 19.6852C83.9034 19.8611 82.317 20.5648 81.1712 21.4444C78.9678 23.2917 77.822 26.1944 78.2627 29.1852C78.7034 32.5278 81.083 35.0787 84.4322 35.9583C85.1373 36.1343 85.8424 36.2222 86.7237 36.2222C88.3102 36.2222 89.4559 35.9583 90.6898 35.3426C93.1576 34.1111 94.7441 31.912 95.0966 29.1852C95.1847 28.4815 95.1847 27.338 95.0966 26.7222C94.9203 25.4028 94.3915 24.0833 93.5983 23.0278C93.2458 22.588 92.5407 21.7963 92.1 21.4444C90.8661 20.4769 89.4559 19.8611 87.8695 19.6852C87.2525 19.5972 86.0186 19.5972 85.4017 19.6852ZM103.381 19.6852C101.883 19.8611 100.385 20.4769 99.239 21.4444C98.7983 21.7963 98.0051 22.588 97.7407 23.0278C96.9475 24.0833 96.5068 25.4028 96.2424 26.7222C96.1542 27.338 96.1542 28.5694 96.2424 29.1852C96.7712 32.7037 99.3271 35.4306 102.853 36.1343C103.558 36.3102 103.91 36.3102 104.703 36.3102C106.202 36.3102 107.524 36.0463 108.758 35.3426C112.019 33.6713 113.781 29.9769 112.988 26.1944C112.283 22.6759 109.463 20.125 105.849 19.6852C105.232 19.5972 103.998 19.5972 103.381 19.6852ZM24.5 20.037C24.5 20.037 25.9983 23.6435 27.8492 28.0417C29.7 32.4398 31.1983 36.0463 31.1983 36.0463C31.1983 36.0463 30.6695 37.3657 29.9644 38.9491C29.2593 40.5324 28.7305 41.7639 28.7305 41.8519C28.7305 41.9398 30.0525 41.8519 31.7271 41.8519H34.7237L39.2186 31.0324C41.6864 25.0509 43.7136 20.213 43.7136 20.125C43.7136 20.125 43.0966 20.037 40.7169 20.125H37.7203L35.8695 24.6991C35.0763 27.162 34.2831 29.2731 34.2831 29.2731C34.2831 29.2731 33.4898 27.162 32.4322 24.6991L30.6695 20.125H27.5847C25.9102 20.037 24.5 20.037 24.5 20.037ZM52.1746 24.787C53.3203 25.0509 54.2017 25.9306 54.5542 27.0741C54.6424 27.5139 54.6424 28.3056 54.5542 28.7454C54.2898 29.8889 53.4085 30.7685 52.2627 31.0324C51.822 31.1204 51.0288 31.1204 50.5881 31.0324C49.6186 30.7685 48.7373 30.0648 48.3847 29.1852C47.9441 28.2176 48.1203 26.9861 48.6492 26.1065C49.4424 24.963 50.7644 24.5231 52.1746 24.787ZM87.3407 24.875C88.5746 25.0509 89.5441 26.0185 89.8085 27.25C89.8966 27.6898 89.8966 28.3935 89.8085 28.8333C89.5441 29.9769 88.6627 30.7685 87.6051 31.1204C87.2525 31.2083 86.2831 31.2083 85.9305 31.1204C85.0492 30.8565 84.3441 30.2407 83.9034 29.4491C83.639 28.9213 83.639 28.6574 83.639 28.0417C83.639 27.5139 83.7271 27.25 83.9034 26.8102C84.1678 26.2824 84.5203 25.7546 85.0492 25.4028C85.578 24.875 86.4593 24.6991 87.3407 24.875ZM105.232 24.875C106.29 25.0509 107.171 25.7546 107.524 26.7222C107.7 27.162 107.788 27.4259 107.788 27.9537C107.788 28.5694 107.7 28.8333 107.524 29.3611C107.171 30.1528 106.378 30.7685 105.497 31.0324C105.144 31.1204 104.175 31.1204 103.822 31.0324C102.764 30.7685 101.883 29.8889 101.619 28.7454C101.531 28.3056 101.531 27.5139 101.619 27.0741C101.971 25.6667 103.205 24.6991 104.615 24.6991C104.792 24.787 105.056 24.787 105.232 24.875ZM117.219 28.7454C115.544 28.9213 114.31 30.1528 113.958 31.7361C113.869 32.1759 113.869 32.9676 113.958 33.4074C114.31 34.8148 115.368 35.7824 116.778 36.1343C116.954 36.1343 117.307 36.2222 117.571 36.2222C118.629 36.2222 119.51 35.8704 120.215 35.1667C121.008 34.375 121.273 33.5833 121.273 32.5278C121.273 31.2083 120.656 30.0648 119.598 29.4491C118.893 28.8333 117.924 28.6574 117.219 28.7454ZM70.7712 37.3657C69.6254 37.7176 69.0966 39.037 69.7136 40.0046C69.8898 40.2685 70.2424 40.6204 70.5068 40.7083C70.7712 40.7963 70.7712 40.7963 71.3 40.7963C71.7407 40.7963 71.8288 40.7963 72.0932 40.7083C72.4458 40.5324 72.7983 40.1806 72.9746 39.8287C73.4153 38.9491 72.9746 37.8935 72.0932 37.4537C71.8288 37.2778 71.7407 37.2778 71.3881 37.2778C71.0356 37.2778 70.9475 37.2778 70.7712 37.3657ZM66.0119 37.4537C64.5136 37.7176 63.5441 38.6852 63.1034 40.2685C63.0153 40.5324 63.0153 40.7963 63.0153 41.1481V41.7639H61.7814V44.4028H63.0153V50.7361H66.3644V44.4028H68.6559V41.7639H66.3644V41.5C66.4525 40.8843 66.7169 40.4444 67.2458 40.3565C67.5983 40.2685 68.1271 40.2685 68.4797 40.4444C68.6559 40.5324 68.7441 40.5324 68.7441 40.5324V37.7176L68.4797 37.6296C68.1271 37.4537 67.6864 37.4537 67.0695 37.4537C66.6288 37.3657 66.2763 37.4537 66.0119 37.4537ZM79.4085 41.588C78.7034 41.7639 78.1746 42.1157 77.822 42.5556L77.6458 42.8194V41.7639H74.2966V50.7361H77.6458V45.5463C77.7339 45.1944 77.9102 44.8426 78.0864 44.6667C78.5271 44.3148 79.3203 44.4028 79.6729 44.8426C79.8492 45.0772 79.9373 46.1327 79.9373 48.0093V50.6481H83.2864V47.6574C83.2864 44.4907 83.2864 44.1389 83.1102 43.5231C82.9339 42.9954 82.7576 42.5556 82.3169 42.2037C81.9644 41.8519 81.6119 41.588 81.083 41.5C80.6424 41.5 79.761 41.5 79.4085 41.588ZM87.7814 41.5C87.2525 41.588 86.4593 41.8519 86.0186 42.2037C85.0492 42.9074 84.4322 43.963 84.1678 45.2824C84.0797 45.8102 84.0797 46.7778 84.1678 47.3056C84.3441 48.0972 84.6085 48.8889 85.0492 49.4167C85.6661 50.2083 86.4593 50.7361 87.4288 50.912C87.9576 51 88.839 51 89.2797 50.8241C89.8085 50.6481 90.161 50.4722 90.6017 50.1204L90.9542 49.7685V50.6481H94.3034V41.6759H90.9542V42.5556L90.6898 42.4676C90.2492 42.0278 89.6322 41.6759 88.9271 41.588C88.6627 41.5 88.0458 41.5 87.7814 41.5ZM100.561 41.588C99.9441 41.6759 99.3271 42.1157 98.9746 42.5556L98.7983 42.7315V41.6759H95.4492V50.6481H98.7983V48.0972C98.7983 46.2793 98.8571 45.2238 98.9746 44.9306C99.1508 44.5787 99.5034 44.4028 99.8559 44.4028C100.208 44.4028 100.385 44.4907 100.649 44.6667C101.002 45.0185 101.002 44.9306 101.002 47.9213V50.5602H104.351V47.3056C104.351 45.1358 104.321 43.9336 104.263 43.6991C104.175 43.5231 104.086 43.1713 103.998 42.9074C103.822 42.5556 103.734 42.4676 103.469 42.2037C103.117 41.8519 102.853 41.6759 102.5 41.5C101.883 41.5 101.178 41.412 100.561 41.588ZM109.286 41.588C107.788 41.8519 106.642 42.5556 105.937 43.787C105.761 44.1389 105.585 44.5787 105.408 45.0185C105.32 45.4583 105.32 45.5463 105.32 46.25C105.32 47.0417 105.32 47.3056 105.585 47.9213C106.114 49.4167 107.347 50.5602 109.022 50.912C109.286 51 109.551 51 110.168 51C111.049 51 111.402 50.912 112.019 50.6481L112.371 50.4722V47.4815L112.107 47.6574C111.666 47.9213 111.402 48.0093 110.873 48.0093C110.344 48.0093 110.08 48.0093 109.727 47.8333C109.375 47.6574 109.11 47.3935 108.934 47.0417C108.875 46.8657 108.846 46.6312 108.846 46.338C108.846 45.9861 108.846 45.8981 108.934 45.6343C109.198 44.9306 109.815 44.5787 110.697 44.4907C111.314 44.4907 111.578 44.4907 112.459 44.9306V41.9398L112.195 41.8519C111.225 41.5 110.168 41.412 109.286 41.588ZM116.866 41.588C114.31 42.0278 112.724 44.2269 112.9 46.7778C112.988 47.6574 113.253 48.4491 113.693 49.0648C114.31 50.0324 115.28 50.6481 116.514 50.912C117.042 51 118.453 51 119.069 50.912C119.951 50.7361 120.744 50.2963 121.361 49.6806C121.625 49.4167 122.066 48.8009 122.066 48.8009C122.066 48.8009 121.449 48.537 120.656 48.2731L119.246 47.7454L119.069 47.9213C118.805 48.1852 118.629 48.2731 118.276 48.3611C117.307 48.625 116.337 48.0972 116.161 47.2176V47.0417H122.331V46.25C122.331 45.7222 122.331 45.3704 122.242 45.1944C122.066 44.1389 121.625 43.4352 121.008 42.7315C120.392 42.1157 119.686 41.7639 118.717 41.588C118.364 41.5 117.307 41.5 116.866 41.588ZM69.6254 46.25V50.7361H72.9746V41.7639H69.6254V46.25ZM118.188 44.0509C118.453 44.1389 118.541 44.2269 118.805 44.4028C118.981 44.5787 119.158 44.7546 119.158 45.0185V45.1944H117.659C115.985 45.1944 116.073 45.1944 116.249 44.8426C116.514 44.2269 117.307 43.875 118.188 44.0509ZM89.7203 44.4907C90.161 44.5787 90.6898 45.0185 90.8661 45.4583C91.3068 46.4259 90.8661 47.5694 89.8085 47.9213C89.4559 48.0093 88.9271 48.0093 88.5746 47.9213C88.0458 47.7454 87.517 47.3056 87.4288 46.7778C87.3407 46.5139 87.3407 46.4259 87.3407 46.162C87.3407 45.8102 87.3407 45.7222 87.5169 45.4583C87.8695 44.6667 88.7508 44.3148 89.7203 44.4907Z" fill="#919A9F"></path></svg>