<svg xmlns="http://www.w3.org/2000/svg" width="242" height="64" viewBox="0 0 242 64" fill="none"><path d="M35.8453 25.4503L37.9732 26.7798L37.1597 34.3806L48.6089 27.4777C48.4028 25.8504 47.8605 24.2824 47.0157 22.871C46.1709 21.4597 45.0416 20.2351 43.698 19.2733C42.3545 18.3116 40.8253 17.6332 39.2054 17.2803C37.5855 16.9274 35.9096 16.9075 34.2816 17.2219C32.6536 17.5363 31.1084 18.1782 29.7419 19.1078C28.3753 20.0374 27.2167 21.2349 26.3379 22.6258C25.4591 24.0167 24.8789 25.5714 24.6334 27.1933C24.3878 28.8153 24.4821 30.4698 24.9104 32.0542L35.8453 25.4503Z" fill="#919A9F"></path><path d="M36.1951 38.216L34.0673 36.8866L34.8808 29.289L25.9258 34.693C27.122 36.9376 29.0089 38.748 31.3138 39.8629C33.6188 40.9778 36.2226 41.3395 38.749 40.8956C41.2755 40.4517 43.5938 39.2253 45.3692 37.3935C47.1446 35.5617 48.2851 33.2194 48.6259 30.7048L36.1951 38.216Z" fill="#919A9F"></path><path d="M37.2603 24.3569C38.2053 24.3569 38.9713 23.5995 38.9713 22.6652C38.9713 21.7309 38.2053 20.9735 37.2603 20.9735C36.3154 20.9735 35.5493 21.7309 35.5493 22.6652C35.5493 23.5995 36.3154 24.3569 37.2603 24.3569Z" fill="#1F2324"></path><path d="M54.77 40.1402L57.7752 40.097V19.0991L54.77 19.1423V40.1402ZM69.1438 25.55C67.7992 25.55 65.51 26.1416 64.4948 27.7468V25.8491H61.6577V40.1402H64.4948V32.4064C64.4948 29.5881 66.6462 28.3251 68.7774 28.3251C70.7942 28.3251 72.1388 29.8207 72.1388 32.0442V40.1402H74.9726V31.8946C74.9726 29.8639 74.4078 28.2022 73.2918 27.0921C72.2834 26.0818 70.848 25.55 69.1438 25.55ZM83.504 36.4644L79.1644 25.8524H76.1289L82.1326 40.1402H84.8486L90.8825 25.8524H87.8168L83.504 36.4644ZM136.451 25.55C132.081 25.55 128.904 28.6608 128.904 32.9515C128.904 37.2421 132.152 40.4427 136.451 40.4427C137.453 40.4678 138.45 40.2912 139.381 39.9236C140.312 39.5561 141.157 39.0052 141.866 38.3046C142.575 37.604 143.133 36.7681 143.505 35.8479C143.877 34.9277 144.056 33.9422 144.031 32.9515C144.031 28.6608 140.858 25.55 136.451 25.55ZM136.451 37.7905C133.799 37.7905 131.782 35.71 131.782 32.9515C131.782 30.2428 133.799 28.2022 136.461 28.2022C137.091 28.1934 137.716 28.3108 138.299 28.5472C138.882 28.7837 139.411 29.1343 139.853 29.5781C140.295 30.0218 140.642 30.5494 140.872 31.1292C141.103 31.7089 141.212 32.3288 141.194 32.9515C141.194 35.71 139.154 37.7905 136.451 37.7905ZM153.826 25.55C151.732 25.55 149.816 26.4507 148.841 27.8765V25.8491H146.004V47H148.841V38.1461C149.809 39.5852 151.655 40.4327 153.857 40.4327C158.035 40.4327 161.067 37.3086 161.067 33.0013C161.067 28.694 158.022 25.55 153.826 25.55ZM153.581 37.7905C152.953 37.7924 152.33 37.6703 151.75 37.4315C151.17 37.1927 150.644 36.8419 150.203 36.3997C149.761 35.9575 149.414 35.4327 149.18 34.856C148.946 34.2793 148.831 33.6624 148.841 33.0412C148.841 30.2827 150.878 28.2022 153.581 28.2022C156.173 28.2022 158.2 30.3292 158.2 33.0412C158.2 35.7532 156.213 37.7905 153.581 37.7905ZM190.658 27.8432C189.69 26.4041 187.845 25.5566 185.643 25.5566C181.465 25.5566 178.433 28.6808 178.433 32.988C178.433 37.2953 181.478 40.4493 185.673 40.4493C187.767 40.4493 189.683 39.5487 190.658 38.1229V40.1402H193.495V18.1452H190.658V27.8432ZM185.902 37.7905C183.327 37.7905 181.313 35.6635 181.313 32.9515C181.313 30.2395 183.273 28.2022 185.902 28.2022C186.532 28.1981 187.157 28.3185 187.74 28.5561C188.323 28.7938 188.852 29.144 189.296 29.5863C189.74 30.0285 190.09 30.554 190.327 31.1318C190.563 31.7096 190.68 32.3283 190.672 32.9515C190.658 35.2979 188.988 37.7905 185.902 37.7905ZM197.085 25.8524H199.923V40.1402H197.085V25.8524ZM217.275 25.8491H214.437V27.5109C213.429 26.2679 211.691 25.5434 209.661 25.5434H209.432C205.254 25.5434 202.222 28.6675 202.222 32.9747C202.222 37.282 205.267 40.436 209.462 40.436H209.701C211.634 40.436 213.419 39.665 214.448 38.4419V40.1402H217.5V25.8491H217.275ZM209.789 37.7805C207.271 37.7141 205.318 35.6203 205.318 32.9481C205.318 30.276 207.234 28.2653 209.789 28.2055C212.395 28.251 214.473 30.3711 214.437 32.9481C214.437 35.2646 212.794 37.7174 209.789 37.7839V37.7805ZM112.729 31.406C111.246 31.0305 110.198 30.6948 110.198 29.7808C110.198 28.7539 111.246 28.036 112.752 28.036C113.845 28.0577 114.899 28.4337 115.754 29.1062L115.825 29.1593L117.348 27.0722L117.28 27.019C115.938 25.9855 114.275 25.4441 112.574 25.4869C110.016 25.4869 107.263 26.8794 107.263 29.9304C107.263 32.0574 109.058 33.0944 110.561 33.5863C111.065 33.7524 111.569 33.8821 112.08 34.0084C113.65 34.4072 115.008 34.7528 115.008 35.9626C115.008 36.8101 114.144 37.7074 112.544 37.7074C111.028 37.6658 109.568 37.1321 108.389 36.1886L108.315 36.1354L106.796 38.2824L106.86 38.3322C108.492 39.6131 110.524 40.2934 112.608 40.2566C115.196 40.2566 117.949 38.7311 117.949 35.9028C117.949 33.0744 115.31 32.0608 112.729 31.406ZM176.587 32.7521C176.587 28.488 173.8 25.5168 169.767 25.5168C165.689 25.5168 162.731 28.5644 162.731 32.7587C162.704 33.7635 162.88 34.7634 163.25 35.6996C163.621 36.6357 164.177 37.4891 164.886 38.2093C166.156 39.432 167.863 40.1093 169.636 40.0937H169.77C172.268 40.0505 173.898 39.6417 175.878 37.528L175.938 37.4648L173.972 35.6136L173.911 35.6801C173.414 36.2574 172.793 36.7185 172.094 37.03C171.395 37.3415 170.634 37.4957 169.867 37.4814C167.676 37.4814 165.948 35.8928 165.541 33.5165L176.49 33.4932H176.57V33.4134C176.581 33.284 176.581 33.154 176.57 33.0246C176.59 32.9714 176.587 32.8983 176.587 32.7521ZM165.975 31.3097C166.348 29.2458 167.716 28.1091 169.837 28.1091C171.891 28.1091 173.289 29.3023 173.599 31.3097H165.975ZM105.226 32.7521C105.226 28.488 102.419 25.5168 98.4123 25.5168C94.3348 25.5168 91.3767 28.5644 91.3767 32.7587C91.3494 33.7635 91.526 34.7634 91.8961 35.6996C92.2662 36.6357 92.8222 37.4891 93.5314 38.2093C94.8014 39.432 96.5085 40.1093 98.2812 40.0937H98.4123C100.913 40.0505 102.544 39.6417 104.523 37.528L104.584 37.4648L102.617 35.6136L102.557 35.6801C102.059 36.2588 101.436 36.7206 100.735 37.0322C100.034 37.3437 99.2716 37.4972 98.503 37.4814C96.308 37.4814 94.5835 35.8928 94.1768 33.5165L105.122 33.4932H105.206V33.4134C105.215 33.284 105.215 33.1541 105.206 33.0246C105.226 32.9714 105.226 32.8983 105.226 32.7521ZM94.6037 31.3097C94.9802 29.2458 96.3483 28.1091 98.4694 28.1091C100.523 28.1091 101.922 29.3023 102.231 31.3097H94.6037ZM127.244 37.1723C126.854 37.2755 126.451 37.3236 126.047 37.3153C125.724 37.33 125.4 37.2786 125.098 37.1643C124.795 37.0499 124.52 36.875 124.289 36.6505C123.98 36.2916 123.916 35.7399 123.916 35.0253V28.2919H127.95V25.8491H123.916V21.2228H121.075V25.8491H119.516V28.2919H121.075V34.8791C121.075 36.4644 121.432 37.631 122.165 38.4419C122.643 38.9639 123.231 39.3756 123.888 39.6478C124.545 39.92 125.255 40.0462 125.966 40.0173C126.679 40.0239 127.389 39.9275 128.074 39.7314L128.158 39.7049L127.328 37.1491L127.244 37.1723ZM198.504 19.006C198.263 19.0055 198.024 19.0526 197.802 19.1445C197.579 19.2364 197.378 19.3713 197.209 19.5412C197.04 19.7111 196.907 19.9127 196.817 20.1341C196.728 20.3555 196.684 20.5923 196.689 20.8306C196.685 21.0673 196.73 21.3023 196.82 21.5216C196.91 21.741 197.043 21.9403 197.212 22.1076C197.382 22.275 197.583 22.4071 197.805 22.496C198.027 22.5849 198.265 22.6289 198.504 22.6253C198.746 22.6306 198.986 22.5881 199.211 22.5003C199.435 22.4124 199.64 22.281 199.813 22.1138C199.985 21.9465 200.122 21.7469 200.216 21.5265C200.309 21.3061 200.357 21.0695 200.356 20.8306C200.357 20.5902 200.31 20.352 200.217 20.1298C200.124 19.9076 199.988 19.7058 199.815 19.5361C199.643 19.3664 199.438 19.2322 199.213 19.1412C198.988 19.0502 198.747 19.0042 198.504 19.006Z" fill="#919A9F"></path></svg>