<svg xmlns="http://www.w3.org/2000/svg" width="162" height="64" viewBox="0 0 162 64" fill="none"><path d="M93.4468 26.3022C91.6125 26.3022 90.1721 26.6557 88.7305 27.3621C88.7305 23.5928 88.7305 20.1774 88.8623 19L80.0826 20.4129V21.1199L80.9997 21.2374C82.1776 21.4729 82.5726 22.0613 82.8322 23.4753C83.0965 26.3022 82.964 41.3796 82.8322 43.8535C85.1909 44.325 87.6809 44.6785 90.1709 44.6785C97.1158 44.6785 101.308 40.7911 101.308 34.6659C101.308 29.8371 97.9017 26.3027 93.4462 26.3027L93.4468 26.3022ZM90.4329 43.382C89.9084 43.382 89.2526 43.382 88.8606 43.265C88.7287 41.6161 88.5986 34.6659 88.7287 28.5411C89.5152 28.3051 90.0385 28.1876 90.6948 28.1876C93.5792 28.1876 95.1515 31.25 95.1515 35.0183C95.1509 39.7317 93.1848 43.3825 90.4329 43.3825V43.382ZM47.0616 19.471H24V20.5304L25.3103 20.6479C27.0127 20.8834 27.6691 21.8253 27.9298 24.0632C28.3242 28.3035 28.1924 35.9608 27.9298 39.6111C27.6679 41.8495 27.0133 42.91 25.3103 43.0264L24 43.263V44.2049H38.8064V43.263L37.2341 43.0264C35.5311 42.9095 34.8753 41.8495 34.614 39.6111C34.4821 38.0791 34.3514 35.6052 34.3514 32.5433L37.496 32.6608C39.4621 32.6608 40.3781 34.0743 40.7719 36.0762H41.9515V27.7161H40.7719C40.3775 29.7186 39.4621 31.1315 37.496 31.1315L34.352 31.25C34.352 27.2446 34.4827 23.4758 34.6146 21.2379H39.2002C42.7391 21.2379 44.5734 23.2398 45.8831 26.7742L47.1935 26.4207L47.0616 19.471Z" fill="#919A9F"></path><path d="M54.5307 26.0679C61.0824 26.0679 64.3583 30.0733 64.3583 35.3735C64.3583 40.6738 60.6892 44.6802 54.1375 44.6802C47.5858 44.6802 44.3105 40.6743 44.3105 35.3735C44.3105 30.0727 47.979 26.0679 54.5307 26.0679ZM54.1375 27.2458C51.2549 27.2458 50.4684 30.7797 50.4684 35.373C50.4684 39.9663 51.7788 43.5002 54.4 43.5002C57.4116 43.5002 58.1992 39.9663 58.1992 35.373C58.1992 30.7797 56.89 27.2458 54.1375 27.2458ZM103.011 35.4915C103.011 30.6622 106.418 26.0679 113.101 26.0679C118.603 26.0679 121.224 29.7198 121.224 34.5491H109.038C108.906 38.9074 111.265 42.0878 115.983 42.0878C118.08 42.0878 119.128 41.6178 120.439 40.7929L120.962 41.3813C119.651 43.0302 116.769 44.6802 113.101 44.6802C107.204 44.6797 103.011 40.9103 103.011 35.4921V35.4915ZM109.038 33.2536L115.197 33.1351C115.197 30.7797 114.803 27.2458 112.576 27.2458C110.35 27.2458 109.168 30.5437 109.038 33.2536ZM136.819 27.0104C135.247 26.4209 133.15 26.0674 130.792 26.0674C125.945 26.0674 122.93 28.6582 122.93 31.7211C122.93 34.784 125.155 36.0795 128.303 37.0219C131.578 38.0808 132.496 38.9063 132.496 40.3198C132.496 41.7332 131.317 43.0287 129.22 43.0287C126.731 43.0287 124.896 41.7338 123.455 38.1994L122.537 38.4359L122.669 43.6187C124.241 44.2071 127.123 44.6792 129.614 44.6792C134.724 44.6792 138.001 42.3222 138.001 38.6714C138.001 36.1975 136.559 34.7845 133.152 33.6055C129.483 32.3106 128.173 31.4862 128.173 29.9542C128.173 28.4222 129.355 27.3628 130.927 27.3628C133.284 27.3628 134.856 28.6588 136.038 31.8391L136.954 31.6036L136.82 27.0104H136.819ZM81.3915 26.5389C79.1646 25.362 75.233 25.9499 73.1368 30.1907L73.2669 26.0679L64.4889 27.5988V28.3058L65.4061 28.4233C66.5863 28.5418 67.109 29.1303 67.2409 30.6617C67.5028 33.4886 67.3716 38.4364 67.2409 40.9098C67.109 42.3222 66.5863 43.0287 65.4061 43.1472L64.4889 43.2657V44.2077H76.674V43.2657L75.1017 43.1472C73.792 43.0287 73.3988 42.3222 73.2669 40.9098C73.005 38.6714 73.005 34.1956 73.1368 31.3682C73.7914 30.5432 76.674 29.8372 79.2947 31.3682L81.3915 26.5378V26.5389Z" fill="#919A9F"></path></svg>