<svg xmlns="http://www.w3.org/2000/svg" width="264" height="40" viewBox="0 0 264 40" fill="none"><g clip-path="url(#clip0_1794_10602)"><path d="M19.0767 3.21993C19.4183 2.39864 20.5817 2.39864 20.9233 3.21993L25.0555 13.1549C25.1995 13.5011 25.5251 13.7377 25.8989 13.7677L36.6245 14.6275C37.5112 14.6986 37.8707 15.8051 37.1952 16.3838L29.0234 23.3838C28.7386 23.6277 28.6142 24.0105 28.7012 24.3753L31.1978 34.8417C31.4042 35.7069 30.463 36.3908 29.7039 35.9271L20.5213 30.3184C20.2012 30.1229 19.7988 30.1229 19.4787 30.3184L10.2961 35.9271C9.53702 36.3908 8.59577 35.7069 8.80215 34.8417L11.2988 24.3753C11.3858 24.0105 11.2614 23.6277 10.9766 23.3838L2.80483 16.3838C2.12929 15.8051 2.48882 14.6986 3.37547 14.6275L14.1011 13.7677C14.4749 13.7377 14.8005 13.5011 14.9445 13.1549L19.0767 3.21993Z" fill="#272C2F"></path><g clip-path="url(#clip1_1794_10602)"><path d="M19.0767 3.21993C19.4183 2.39864 20.5817 2.39864 20.9233 3.21993L25.0555 13.1549C25.1995 13.5011 25.5251 13.7377 25.8989 13.7677L36.6245 14.6275C37.5112 14.6986 37.8707 15.8051 37.1952 16.3838L29.0234 23.3838C28.7386 23.6277 28.6142 24.0105 28.7012 24.3753L31.1978 34.8417C31.4042 35.7069 30.463 36.3908 29.7039 35.9271L20.5213 30.3184C20.2012 30.1229 19.7988 30.1229 19.4787 30.3184L10.2961 35.9271C9.53702 36.3908 8.59577 35.7069 8.80215 34.8417L11.2988 24.3753C11.3858 24.0105 11.2614 23.6277 10.9766 23.3838L2.80483 16.3838C2.12929 15.8051 2.48882 14.6986 3.37547 14.6275L14.1011 13.7677C14.4749 13.7377 14.8005 13.5011 14.9445 13.1549L19.0767 3.21993Z" fill="#EA9C2F"></path></g></g><g clip-path="url(#clip2_1794_10602)"><path d="M75.0767 3.21993C75.4183 2.39864 76.5817 2.39864 76.9233 3.21993L81.0555 13.1549C81.1995 13.5011 81.5251 13.7377 81.8989 13.7677L92.6245 14.6275C93.5112 14.6986 93.8707 15.8051 93.1952 16.3838L85.0234 23.3838C84.7386 23.6277 84.6142 24.0105 84.7012 24.3753L87.1978 34.8417C87.4042 35.7069 86.463 36.3908 85.7039 35.9271L76.5213 30.3184C76.2012 30.1229 75.7988 30.1229 75.4787 30.3184L66.2961 35.9271C65.537 36.3908 64.5958 35.7069 64.8022 34.8417L67.2988 24.3753C67.3858 24.0105 67.2614 23.6277 66.9766 23.3838L58.8048 16.3838C58.1293 15.8051 58.4888 14.6986 59.3755 14.6275L70.1011 13.7677C70.4749 13.7377 70.8005 13.5011 70.9445 13.1549L75.0767 3.21993Z" fill="#272C2F"></path><g clip-path="url(#clip3_1794_10602)"><path d="M75.0767 3.21993C75.4183 2.39864 76.5817 2.39864 76.9233 3.21993L81.0555 13.1549C81.1995 13.5011 81.5251 13.7377 81.8989 13.7677L92.6245 14.6275C93.5112 14.6986 93.8707 15.8051 93.1952 16.3838L85.0234 23.3838C84.7386 23.6277 84.6142 24.0105 84.7012 24.3753L87.1978 34.8417C87.4042 35.7069 86.463 36.3908 85.7039 35.9271L76.5213 30.3184C76.2012 30.1229 75.7988 30.1229 75.4787 30.3184L66.2961 35.9271C65.537 36.3908 64.5958 35.7069 64.8022 34.8417L67.2988 24.3753C67.3858 24.0105 67.2614 23.6277 66.9766 23.3838L58.8048 16.3838C58.1293 15.8051 58.4888 14.6986 59.3755 14.6275L70.1011 13.7677C70.4749 13.7377 70.8005 13.5011 70.9445 13.1549L75.0767 3.21993Z" fill="#EA9C2F"></path></g></g><g clip-path="url(#clip4_1794_10602)"><path d="M131.077 3.21993C131.418 2.39864 132.582 2.39864 132.923 3.21993L137.056 13.1549C137.2 13.5011 137.525 13.7377 137.899 13.7677L148.625 14.6275C149.511 14.6986 149.871 15.8051 149.195 16.3838L141.023 23.3838C140.739 23.6277 140.614 24.0105 140.701 24.3753L143.198 34.8417C143.404 35.7069 142.463 36.3908 141.704 35.9271L132.521 30.3184C132.201 30.1229 131.799 30.1229 131.479 30.3184L122.296 35.9271C121.537 36.3908 120.596 35.7069 120.802 34.8417L123.299 24.3753C123.386 24.0105 123.261 23.6277 122.977 23.3838L114.805 16.3838C114.129 15.8051 114.489 14.6986 115.375 14.6275L126.101 13.7677C126.475 13.7377 126.8 13.5011 126.944 13.1549L131.077 3.21993Z" fill="#272C2F"></path><g clip-path="url(#clip5_1794_10602)"><path d="M131.077 3.21993C131.418 2.39864 132.582 2.39864 132.923 3.21993L137.056 13.1549C137.2 13.5011 137.525 13.7377 137.899 13.7677L148.625 14.6275C149.511 14.6986 149.871 15.8051 149.195 16.3838L141.023 23.3838C140.739 23.6277 140.614 24.0105 140.701 24.3753L143.198 34.8417C143.404 35.7069 142.463 36.3908 141.704 35.9271L132.521 30.3184C132.201 30.1229 131.799 30.1229 131.479 30.3184L122.296 35.9271C121.537 36.3908 120.596 35.7069 120.802 34.8417L123.299 24.3753C123.386 24.0105 123.261 23.6277 122.977 23.3838L114.805 16.3838C114.129 15.8051 114.489 14.6986 115.375 14.6275L126.101 13.7677C126.475 13.7377 126.8 13.5011 126.944 13.1549L131.077 3.21993Z" fill="#EA9C2F"></path></g></g><g clip-path="url(#clip6_1794_10602)"><path d="M187.077 3.21993C187.418 2.39864 188.582 2.39864 188.923 3.21993L193.056 13.1549C193.2 13.5011 193.525 13.7377 193.899 13.7677L204.625 14.6275C205.511 14.6986 205.871 15.8051 205.195 16.3838L197.023 23.3838C196.739 23.6277 196.614 24.0105 196.701 24.3753L199.198 34.8417C199.404 35.7069 198.463 36.3908 197.704 35.9271L188.521 30.3184C188.201 30.1229 187.799 30.1229 187.479 30.3184L178.296 35.9271C177.537 36.3908 176.596 35.7069 176.802 34.8417L179.299 24.3753C179.386 24.0105 179.261 23.6277 178.977 23.3838L170.805 16.3838C170.129 15.8051 170.489 14.6986 171.375 14.6275L182.101 13.7677C182.475 13.7377 182.8 13.5011 182.944 13.1549L187.077 3.21993Z" fill="#272C2F"></path><g clip-path="url(#clip7_1794_10602)"><path d="M187.077 3.21993C187.418 2.39864 188.582 2.39864 188.923 3.21993L193.056 13.1549C193.2 13.5011 193.525 13.7377 193.899 13.7677L204.625 14.6275C205.511 14.6986 205.871 15.8051 205.195 16.3838L197.023 23.3838C196.739 23.6277 196.614 24.0105 196.701 24.3753L199.198 34.8417C199.404 35.7069 198.463 36.3908 197.704 35.9271L188.521 30.3184C188.201 30.1229 187.799 30.1229 187.479 30.3184L178.296 35.9271C177.537 36.3908 176.596 35.7069 176.802 34.8417L179.299 24.3753C179.386 24.0105 179.261 23.6277 178.977 23.3838L170.805 16.3838C170.129 15.8051 170.489 14.6986 171.375 14.6275L182.101 13.7677C182.475 13.7377 182.8 13.5011 182.944 13.1549L187.077 3.21993Z" fill="#EA9C2F"></path></g></g><g clip-path="url(#clip8_1794_10602)"><path d="M243.077 3.21993C243.418 2.39864 244.582 2.39864 244.923 3.21993L249.056 13.1549C249.2 13.5011 249.525 13.7377 249.899 13.7677L260.625 14.6275C261.511 14.6986 261.871 15.8051 261.195 16.3838L253.023 23.3838C252.739 23.6277 252.614 24.0105 252.701 24.3753L255.198 34.8417C255.404 35.7069 254.463 36.3908 253.704 35.9271L244.521 30.3184C244.201 30.1229 243.799 30.1229 243.479 30.3184L234.296 35.9271C233.537 36.3908 232.596 35.7069 232.802 34.8417L235.299 24.3753C235.386 24.0105 235.261 23.6277 234.977 23.3838L226.805 16.3838C226.129 15.8051 226.489 14.6986 227.375 14.6275L238.101 13.7677C238.475 13.7377 238.8 13.5011 238.944 13.1549L243.077 3.21993Z" fill="#272C2F"></path><g clip-path="url(#clip9_1794_10602)"><path d="M243.077 3.21993C243.418 2.39864 244.582 2.39864 244.923 3.21993L249.056 13.1549C249.2 13.5011 249.525 13.7377 249.899 13.7677L260.625 14.6275C261.511 14.6986 261.871 15.8051 261.195 16.3838L253.023 23.3838C252.739 23.6277 252.614 24.0105 252.701 24.3753L255.198 34.8417C255.404 35.7069 254.463 36.3908 253.704 35.9271L244.521 30.3184C244.201 30.1229 243.799 30.1229 243.479 30.3184L234.296 35.9271C233.537 36.3908 232.596 35.7069 232.802 34.8417L235.299 24.3753C235.386 24.0105 235.261 23.6277 234.977 23.3838L226.805 16.3838C226.129 15.8051 226.489 14.6986 227.375 14.6275L238.101 13.7677C238.475 13.7377 238.8 13.5011 238.944 13.1549L243.077 3.21993Z" fill="#EA9C2F"></path></g></g><defs><clipPath id="clip0_1794_10602"><rect width="40" height="40" fill="white"></rect></clipPath><clipPath id="clip1_1794_10602"><rect width="40" height="40" fill="white"></rect></clipPath><clipPath id="clip2_1794_10602"><rect width="40" height="40" fill="white" transform="translate(56)"></rect></clipPath><clipPath id="clip3_1794_10602"><rect width="40" height="40" fill="white" transform="translate(56)"></rect></clipPath><clipPath id="clip4_1794_10602"><rect width="40" height="40" fill="white" transform="translate(112)"></rect></clipPath><clipPath id="clip5_1794_10602"><rect width="40" height="40" fill="white" transform="translate(112)"></rect></clipPath><clipPath id="clip6_1794_10602"><rect width="40" height="40" fill="white" transform="translate(168)"></rect></clipPath><clipPath id="clip7_1794_10602"><rect width="40" height="40" fill="white" transform="translate(168)"></rect></clipPath><clipPath id="clip8_1794_10602"><rect width="40" height="40" fill="white" transform="translate(224)"></rect></clipPath><clipPath id="clip9_1794_10602"><rect width="30" height="40" fill="white" transform="translate(224)"></rect></clipPath></defs></svg>