<svg xmlns="http://www.w3.org/2000/svg" width="194" height="64" viewBox="0 0 194 64" fill="none"><path d="M37.25 32.5013C37.25 33.2373 37.8537 33.8123 38.6263 33.8123C39.399 33.8123 40.0027 33.2373 40.0027 32.5013C40.0027 31.7653 39.399 31.1902 38.6263 31.1902C37.8537 31.2132 37.25 31.7883 37.25 32.5013ZM48.7919 31.2132C48.0192 31.2132 47.4156 31.7883 47.4156 32.5243C47.4156 33.2603 48.0192 33.8353 48.7919 33.8353C49.5646 33.8353 50.1682 33.2603 50.1682 32.5243C50.1682 31.7883 49.5646 31.2132 48.7919 31.2132ZM48.7919 41.0573C48.0192 41.0573 47.4156 41.6324 47.4156 42.3684C47.4156 43.1044 48.0192 43.6794 48.7919 43.6794C49.5646 43.6794 50.1682 43.1044 50.1682 42.3684C50.1682 41.6324 49.5646 41.0573 48.7919 41.0573Z" fill="#919A9F"></path><path d="M51.7128 20.3805C50.3365 18.7475 47.8735 18.6785 46.4248 19.9665L46.2557 20.1275L45.9177 20.3805C44.5414 21.4385 42.4889 21.3465 41.2092 20.1275V20.0355C40.7746 19.6215 40.195 19.2995 39.5914 19.1385C39.4948 19.1385 39.3258 19.0465 39.2533 19.0465H37.877C37.7804 19.0465 37.708 19.0465 37.6114 19.1385H37.4424C37.3458 19.1385 37.2734 19.2305 37.1768 19.2305C37.1768 19.2305 37.0802 19.2305 37.0802 19.3225C36.9836 19.3225 36.9112 19.4145 36.8146 19.4145C36.8146 19.4145 36.718 19.4145 36.718 19.5065C36.6214 19.5985 36.549 19.5985 36.4524 19.6675C36.4524 19.6675 36.3558 19.6675 36.3558 19.7595C36.2592 19.8515 36.1868 19.8515 36.0902 19.9205L35.9936 20.0125L35.8246 20.1735L35.4865 20.4265C34.1102 21.4845 32.0578 21.3925 30.8746 20.1735C30.8746 20.1735 30.778 20.1735 30.778 20.0815L30.609 19.9205C30.1019 19.5065 29.4983 19.1845 28.8222 19.1155H27.2768C27.2768 19.2075 27.1802 19.2075 27.1078 19.2765H27.0836C26.649 19.4375 26.2385 19.5985 25.8763 19.9205L25.7797 20.0125L25.5141 20.2655C25.1761 20.5875 25.0071 21.0015 24.838 21.3235C24.838 21.4155 24.7415 21.4845 24.7415 21.5765C24.7415 21.6685 24.6449 21.7375 24.6449 21.8985C24.5483 22.4735 24.5483 23.0486 24.7415 23.6006C24.7415 23.6926 24.838 23.7616 24.838 23.8536V23.9456C24.838 24.0376 24.9346 24.1066 24.9346 24.1986C25.0312 24.2906 25.0312 24.3596 25.1037 24.5206C25.2727 24.6126 25.4417 24.7736 25.5383 24.8426L25.7073 25.0036L25.8763 25.1646C27.1561 26.3836 27.1561 28.4996 25.7797 29.8106C25.6107 29.9716 25.3451 30.2246 25.2727 30.3856C25.1761 30.4776 25.1761 30.5466 25.1037 30.7076V30.7996C25.0071 30.8916 25.0071 30.9606 24.9346 31.0526V31.1446C24.9346 31.2366 24.838 31.3056 24.838 31.3976V31.4896C24.838 31.5816 24.838 31.6506 24.7415 31.7426V32.9617C24.7415 33.0537 24.7415 33.1227 24.838 33.2147V33.3067C25.0071 33.8817 25.3451 34.4567 25.8522 34.9397C27.2285 36.2507 27.2285 38.3667 25.8522 39.6547L25.7556 39.7467L25.5866 39.9077V39.9997C25.49 40.0917 25.4176 40.1607 25.4176 40.2527C25.4176 40.2527 25.4176 40.3447 25.321 40.3447C25.2244 40.4367 25.2244 40.5057 25.1519 40.5977L25.0554 40.6897C25.0554 40.7817 24.9588 40.7817 24.9588 40.8507C24.9588 40.9197 24.8622 40.9427 24.8622 41.0117C24.8622 41.0731 24.83 41.1267 24.7656 41.1727C24.5966 41.4947 24.5 41.9088 24.5 42.2308V42.8748C24.5966 43.1278 24.5966 43.3578 24.7656 43.5188C24.7656 43.6108 24.8622 43.6798 24.8622 43.6798C24.8622 43.6798 24.8622 43.7718 24.9588 43.7718C24.9588 43.8638 25.0554 43.9328 25.0554 44.0248C25.0554 44.0248 25.0554 44.1168 25.1519 44.1168C25.2485 44.2778 25.321 44.3698 25.4176 44.4388C25.4176 44.4388 25.4176 44.5308 25.5141 44.5308C25.5141 44.5308 25.5141 44.6228 25.6107 44.6228C25.6107 44.7148 25.7073 44.7148 25.7073 44.7148L25.8039 44.8068C25.9005 44.8988 25.9729 44.8988 25.9729 44.9678L26.0695 45.0598C26.0695 45.0598 26.1661 45.0598 26.1661 45.1518C26.2627 45.2438 26.3351 45.3128 26.4317 45.3128C26.4317 45.3128 26.5283 45.3128 26.5283 45.4048C26.6249 45.4968 26.6973 45.4968 26.7939 45.5658H26.8422C26.9388 45.6578 27.0112 45.6578 27.1802 45.6578C27.2768 45.6578 27.4458 45.7498 27.5183 45.7498H27.6149C27.7114 45.7498 27.7839 45.7498 27.8805 45.8418H28.6532C28.9188 45.8418 29.0878 45.7498 29.3292 45.7498H29.4258C29.5224 45.7498 29.5949 45.6578 29.6914 45.6578H29.7397C29.8363 45.6578 29.9088 45.5658 30.0053 45.5658H30.1019C30.2709 45.4738 30.5366 45.3128 30.7056 45.2438L30.9712 44.9908L31.0678 44.8988C32.4441 43.5188 34.6656 43.5188 36.0177 44.8988C37.5631 46.4398 40.1226 46.3708 41.5714 44.6458C42.5855 43.4268 42.5855 41.6327 41.5714 40.3217C40.195 38.6887 37.7321 38.6197 36.2834 39.9077L36.1143 40.0687L35.7763 40.3217C34.4 41.3797 32.3475 41.2877 31.0678 40.0687L30.8987 39.9077L30.6331 39.5857C29.5224 38.2747 29.619 36.3197 30.8987 35.1007C31.6714 34.4567 32.0095 33.5597 32.0095 32.6627V32.4096C32.0095 31.6046 31.6714 30.7766 30.9953 30.2016C30.9953 30.1096 30.8987 30.1096 30.8987 30.0406L30.6331 29.7186C29.5224 28.4076 29.619 26.4526 30.8987 25.2336L30.9953 25.1416L31.0919 25.0496C32.4683 23.6696 34.6897 23.6696 36.0419 25.0496L36.1385 25.1416L36.2351 25.2336L36.4041 25.3946C36.5007 25.3946 36.5007 25.4866 36.5731 25.4866C36.6455 25.4866 36.6697 25.5786 36.7421 25.5786C36.8146 25.5786 36.8387 25.6706 36.9112 25.6706C36.9836 25.6706 37.0077 25.7626 37.0802 25.7626C37.1526 25.7626 37.1768 25.8546 37.2492 25.8546C37.3216 25.8546 37.3458 25.9466 37.4182 25.9466C37.4907 25.9466 37.5148 25.9466 37.5873 26.0386C37.6516 26.0386 37.708 26.0692 37.7563 26.1306H39.205C39.3016 26.1306 39.3741 26.1306 39.4707 26.0386H39.6397C39.7363 26.0386 39.8087 25.9466 39.9053 25.9466H40.0019C40.0985 25.9466 40.1709 25.8546 40.3399 25.7856C40.678 25.6246 41.016 25.3716 41.2816 25.1416L41.3782 25.0496C42.7545 23.6696 44.976 23.6696 46.3282 25.0496C47.777 26.6826 50.433 26.5906 51.8094 24.8886C52.7269 23.3936 52.7269 21.5995 51.7128 20.3805Z" fill="#919A9F"></path><path d="M71.2007 30.4771C70.6937 29.9941 70.259 29.6721 69.6554 29.4191C69.1483 29.1661 68.5447 29.0051 67.772 29.0051C67.0959 29.0051 66.3956 29.1661 65.8886 29.4191C65.3815 29.6721 64.9469 29.9941 64.6088 30.4771C64.2708 30.8911 64.0052 31.3741 63.8361 31.9491C63.6671 32.5241 63.5705 33.0991 63.5705 33.6511C63.5705 34.2032 63.6671 34.8012 63.9086 35.3532C64.0776 35.9282 64.4157 36.3192 64.7537 36.7332C65.0918 37.1472 65.5988 37.4692 66.13 37.6992C66.6371 37.9522 67.2408 38.0212 67.9169 38.0212C68.6895 38.0212 69.2932 37.8602 69.8003 37.6072C70.3073 37.3542 70.8144 37.0322 71.249 36.5492L73.0359 38.3432C72.3598 39.0792 71.5871 39.5622 70.7178 39.8842C69.8727 40.2062 68.931 40.3672 67.8927 40.3672C66.8544 40.3672 65.8403 40.2062 64.9952 39.8842C64.1501 39.5622 63.3774 39.0792 62.7737 38.5042C62.1701 37.9292 61.663 37.1932 61.3249 36.3882C60.9869 35.5832 60.8179 34.5942 60.8179 33.6281C60.8179 32.6621 60.9869 31.6731 61.3249 30.8681C61.663 30.0631 62.1701 29.3271 62.7737 28.6601C63.3774 28.0851 64.1501 27.6021 64.9952 27.2801C65.8403 26.9581 66.8786 26.7971 67.8927 26.7971C68.9069 26.7971 69.8486 26.9581 70.7178 27.2801C71.6595 27.6021 72.4322 28.1771 73.1083 28.8211L71.2007 30.4771ZM76.9958 33.4901C76.9958 34.1342 77.0924 34.8012 77.3339 35.2842C77.5029 35.8592 77.841 36.3422 78.179 36.7562C78.5171 37.1702 79.0241 37.4922 79.5553 37.6532C80.0624 37.9062 80.7627 37.9752 81.4387 37.9752C82.1148 37.9752 82.7185 37.8832 83.3222 37.6532C83.8292 37.4002 84.3363 37.0782 84.6985 36.7562C85.0365 36.3422 85.3746 35.8592 85.5436 35.2842C85.7126 34.7092 85.8816 34.1342 85.8816 33.4901C85.8816 32.8461 85.7851 32.1791 85.5436 31.6961C85.3746 31.1211 85.0365 30.6381 84.6985 30.2241C84.3604 29.8101 83.8534 29.4881 83.3222 29.3271C82.8151 29.0741 82.1148 29.0051 81.4387 29.0051C80.7627 29.0051 80.159 29.0971 79.5553 29.3271C79.0483 29.5801 78.5412 29.9021 78.179 30.2241C77.841 30.6381 77.5029 31.1211 77.3339 31.6961C77.1649 32.2711 76.9958 32.8461 76.9958 33.4901ZM74.2673 33.4901C74.2673 32.5241 74.4363 31.6271 74.7744 30.7991C75.1124 29.9941 75.6195 29.2581 76.3197 28.5911C76.9958 27.9471 77.6961 27.4411 78.6378 27.1191C79.4829 26.7971 80.4246 26.5441 81.4629 26.5441C82.5012 26.5441 83.4187 26.7051 84.288 27.1191C85.1331 27.4411 85.9058 27.9241 86.606 28.5911C87.3063 29.2581 87.7168 29.9711 88.1514 30.7991C88.4894 31.6041 88.6585 32.5011 88.6585 33.4901C88.6585 34.4792 88.4894 35.3532 88.1514 36.1812C87.8134 36.9862 87.3063 37.7222 86.606 38.3892C85.9058 39.0562 85.2297 39.4472 84.288 39.8612C83.4429 40.1832 82.5012 40.4362 81.4629 40.4362C80.4246 40.4362 79.507 40.2752 78.6378 39.8612C77.7927 39.5392 77.02 39.0562 76.3197 38.3892C75.6437 37.7452 75.209 37.0782 74.7744 36.1812C74.5329 35.3532 74.2673 34.4562 74.2673 33.4901ZM91.2904 40.0912H93.8499V27.0731H91.2904V40.0912ZM90.6868 22.335C90.6868 21.852 90.8558 21.438 91.1938 21.024C91.5319 20.702 91.9665 20.449 92.4736 20.449C92.9806 20.449 93.4153 20.61 93.7533 21.024C94.0914 21.346 94.2604 21.829 94.2604 22.335C94.2604 22.841 94.0914 23.232 93.7533 23.646C93.4153 23.968 92.9806 24.2211 92.4736 24.2211C91.9665 24.2211 91.5319 24.0601 91.1938 23.646C90.8558 23.301 90.6868 22.818 90.6868 22.335ZM97.4235 27.0501H100.007V29.0741H100.104C100.442 28.3381 100.949 27.7631 101.818 27.3721C102.591 26.9581 103.533 26.7281 104.643 26.7281C105.319 26.7281 105.923 26.8201 106.527 27.0501C107.13 27.2111 107.637 27.5331 108.072 27.9471C108.507 28.3611 108.845 28.8441 109.183 29.4881C109.448 30.1321 109.617 30.8681 109.617 31.7651V40.1602H107.01V32.4321C107.01 31.8571 106.913 31.2821 106.744 30.8911C106.575 30.4771 106.309 30.0861 106.068 29.8331C105.802 29.5801 105.464 29.3501 105.054 29.2581C104.716 29.1661 104.281 29.0971 103.846 29.0971C103.339 29.0971 102.832 29.1891 102.398 29.3501C101.963 29.5111 101.553 29.7641 101.19 30.1551C100.852 30.4771 100.587 30.9601 100.418 31.5351C100.249 32.1101 100.152 32.7541 100.152 33.4901V40.2522H97.5926V27.0731L97.4235 27.0501ZM119.059 38.0442C119.735 38.0442 120.338 37.9522 120.942 37.7222C121.546 37.4692 121.956 37.1472 122.391 36.7562C122.729 36.3422 123.067 35.8592 123.236 35.2842C123.405 34.7092 123.574 34.1342 123.574 33.4211C123.574 32.7771 123.477 32.1101 123.236 31.5581C123.067 30.9831 122.729 30.5001 122.391 30.0861C121.956 29.6721 121.546 29.3501 120.942 29.1201C120.338 28.8671 119.735 28.7981 119.059 28.7981C118.382 28.7981 117.779 28.8901 117.175 29.1201C116.571 29.3731 116.161 29.6951 115.726 30.0861C115.388 30.5001 115.05 30.9831 114.881 31.5581C114.712 32.1331 114.543 32.7081 114.543 33.4211C114.543 34.0651 114.64 34.7322 114.881 35.2842C115.05 35.8592 115.388 36.3422 115.726 36.7562C116.064 37.1702 116.571 37.4922 117.175 37.7222C117.682 37.8832 118.382 38.0442 119.059 38.0442ZM126.158 39.9992H123.598V38.1362H123.501C122.994 38.8722 122.294 39.3552 121.449 39.7692C120.604 40.1832 119.662 40.3442 118.721 40.3442C117.706 40.3442 116.668 40.1832 115.823 39.8612C114.978 39.5392 114.205 39.0562 113.602 38.3892C112.998 37.7452 112.491 37.0092 112.225 36.1812C111.887 35.3762 111.718 34.4792 111.718 33.4901C111.718 32.5011 111.887 31.6271 112.225 30.7301C112.563 29.9251 112.998 29.1891 113.602 28.5221C114.205 27.8781 114.978 27.3721 115.823 27.0501C116.668 26.7281 117.61 26.5671 118.721 26.5671C119.662 26.5671 120.604 26.7281 121.449 27.1421C122.294 27.5561 122.994 28.1081 123.405 28.7751H123.501V19H126.061V39.9992H126.158ZM139.221 32.4321C139.221 31.8571 139.124 31.3741 138.955 30.8911C138.786 30.4081 138.52 29.9941 138.182 29.6721C137.844 29.3501 137.41 29.0971 136.975 28.8671C136.468 28.7061 135.961 28.5451 135.261 28.5451C134.657 28.5451 134.053 28.6371 133.546 28.8671C133.039 29.1201 132.605 29.3501 132.17 29.7641C131.832 30.0861 131.494 30.5001 131.325 30.9831C131.156 31.4661 130.987 31.8801 130.987 32.2941H139.197L139.221 32.4321ZM131.035 34.4562C131.035 35.0312 131.204 35.5142 131.47 35.9972C131.735 36.4802 132.073 36.8942 132.484 37.2162C132.918 37.5382 133.426 37.7912 133.933 37.9522C134.536 38.1132 135.043 38.2052 135.647 38.2052C136.42 38.2052 137.192 38.0442 137.772 37.6302C138.376 37.3082 138.883 36.8252 139.39 36.2502L141.346 37.7222C139.897 39.5162 137.844 40.4132 135.285 40.4132C134.174 40.4132 133.232 40.2522 132.387 39.9302C131.542 39.6082 130.769 39.1252 130.166 38.4582C129.562 37.8142 129.055 37.1472 128.789 36.2502C128.451 35.4452 128.282 34.5482 128.282 33.5591C128.282 32.5701 128.451 31.6961 128.789 30.8681C129.128 30.0631 129.635 29.3271 130.238 28.6601C130.842 28.0161 131.615 27.6021 132.46 27.1881C133.305 26.8661 134.247 26.7051 135.285 26.7051C136.492 26.7051 137.506 26.8661 138.351 27.2801C139.197 27.6941 139.897 28.1771 140.404 28.8211C140.911 29.4651 141.346 30.2011 141.611 31.0291C141.877 31.8341 141.949 32.6621 141.949 33.5591V34.4562H131.035ZM152.042 30.3161C151.704 29.9941 151.366 29.6721 150.932 29.4191C150.497 29.1661 149.917 29.0051 149.314 29.0051C148.71 29.0051 148.203 29.1661 147.696 29.4191C147.261 29.6721 147.02 29.9941 147.02 30.4771C147.02 30.8911 147.189 31.2131 147.455 31.3741C147.72 31.6271 148.058 31.7881 148.396 31.9491C148.734 32.1101 149.169 32.2021 149.507 32.2711C149.942 32.3631 150.28 32.4321 150.521 32.4321C151.028 32.5931 151.632 32.6851 152.066 32.9151C152.574 33.0761 153.008 33.3291 153.346 33.6511C153.684 33.9731 153.95 34.2952 154.191 34.7092C154.36 35.1232 154.529 35.6062 154.529 36.2502C154.529 36.9862 154.36 37.6302 154.022 38.1132C153.684 38.5962 153.25 39.0792 152.743 39.4242C152.235 39.7692 151.632 39.9992 150.956 40.1602C150.28 40.3212 149.579 40.4132 149 40.4132C147.889 40.4132 146.875 40.2522 146.006 39.9302C145.161 39.6082 144.388 39.0332 143.688 38.1362L145.644 36.5952C146.078 37.0092 146.489 37.3312 147.02 37.6532C147.551 37.9752 148.131 38.1362 148.903 38.1362C149.241 38.1362 149.579 38.1362 149.917 38.0442C150.255 37.9522 150.521 37.8832 150.763 37.7222C151.028 37.5612 151.197 37.4002 151.366 37.2392C151.535 36.9862 151.632 36.7562 151.632 36.5032C151.632 36.1812 151.535 35.8592 151.294 35.6062C151.028 35.3532 150.787 35.1922 150.449 35.0312C150.111 34.8702 149.773 34.7782 149.435 34.7092L148.42 34.4562C147.913 34.2952 147.31 34.2032 146.875 34.0421C146.368 33.8811 145.933 33.6281 145.595 33.3981C145.257 33.1451 144.919 32.7541 144.654 32.3401C144.388 31.9261 144.316 31.3741 144.316 30.7991C144.316 30.1551 144.485 29.4881 144.75 29.0051C145.016 28.5221 145.426 28.1081 145.957 27.7861C146.465 27.4641 146.972 27.2111 147.575 27.0501C148.179 26.8891 148.855 26.7971 149.459 26.7971C150.4 26.7971 151.245 26.9581 152.115 27.2801C152.96 27.6021 153.66 28.1771 154.167 28.9131L152.042 30.3161ZM157.016 19.322H159.576V32.5011L165.395 26.9581H168.896L162.667 32.8231L169.5 39.8152H165.83L159.6 33.1451V39.8152H157.041V19.322" fill="#919A9F"></path></svg>