<?xml version="1.0" encoding="UTF-8"?> <svg xmlns="http://www.w3.org/2000/svg" width="20" height="21" viewBox="0 0 20 21" fill="none"><path fill-rule="evenodd" clip-rule="evenodd" d="M14.6877 20.4821C13.2477 20.4291 9.16674 19.8651 4.89274 15.5921C0.619742 11.3181 0.056742 7.23809 0.002742 5.79709C-0.077258 3.60109 1.60474 1.46809 3.54774 0.635093C3.78172 0.534059 4.03794 0.495593 4.29127 0.523468C4.5446 0.551343 4.78633 0.644602 4.99274 0.794092C6.59274 1.96009 7.69674 3.72409 8.64474 5.11109C8.85333 5.41582 8.94251 5.78664 8.8953 6.15289C8.84809 6.51914 8.66778 6.85522 8.38874 7.09709L6.43774 8.54609C6.34348 8.61416 6.27713 8.71412 6.25102 8.82742C6.2249 8.94071 6.24079 9.05963 6.29574 9.16209C6.73774 9.96509 7.52374 11.1611 8.42374 12.0611C9.32474 12.9611 10.5767 13.7991 11.4357 14.2911C11.5434 14.3516 11.6702 14.3685 11.79 14.3383C11.9098 14.3082 12.0135 14.2333 12.0797 14.1291L13.3497 12.1961C13.5832 11.8859 13.9277 11.6782 14.3109 11.6163C14.6942 11.5544 15.0865 11.6432 15.4057 11.8641C16.8127 12.8381 18.4547 13.9231 19.6567 15.4621C19.8184 15.67 19.9212 15.9175 19.9544 16.1787C19.9877 16.44 19.9501 16.7053 19.8457 16.9471C19.0087 18.9001 16.8907 20.5631 14.6877 20.4821Z" fill="white"></path></svg> 