<svg xmlns="http://www.w3.org/2000/svg" width="163" height="64" viewBox="0 0 163 64" fill="none"><path d="M81.5 64C99.1731 64 113.5 49.6731 113.5 32C113.5 14.3269 99.1731 0 81.5 0C63.8269 0 49.5 14.3269 49.5 32C49.5 49.6731 63.8269 64 81.5 64Z" fill="#919A9F"></path><path d="M69.0216 14.5802H71.2916V51.5002H69.0216V14.5802ZM59.7316 28.0202C59.7616 25.6902 63.7916 25.6002 63.7916 27.9102L63.8216 29.9002H66.8916V28.0502C67.0916 21.9102 56.5216 21.9102 56.6016 27.9402V38.5702C56.5116 44.5902 67.1216 44.7702 66.9216 38.5702V36.3502H63.7916V38.7402C63.7916 41.0402 59.7516 41.1002 59.7316 38.7402V28.0302V28.0202ZM77.3516 25.6302C77.3516 25.6302 77.8916 24.8302 79.2816 24.0702C81.0716 23.0802 82.8316 24.0702 82.5816 23.9602C84.0016 24.5902 84.5116 26.0902 84.6316 27.8002V40.3902H86.6216V42.6902H81.5016V27.6302C81.5016 25.4402 77.8116 25.5002 77.7516 27.7402V42.6902H73.1716V40.3902H74.6216V26.2702H72.8916V23.9702H77.3216L77.3516 25.6502V25.6302ZM100.432 38.5002C100.542 40.2102 101.062 41.7102 102.482 42.3402C102.222 42.2302 103.162 42.7102 104.162 42.6802H107.172V40.3802C107.172 40.3802 105.922 40.3502 105.242 40.3802C104.392 40.3802 103.652 39.9802 103.592 38.7902V26.2602H106.602V23.9902H103.592V19.1002H100.442V38.5102L100.432 38.5002ZM94.7716 36.3402V38.7302C94.7716 41.0302 90.7316 41.0902 90.7116 38.7302V33.7602H97.3316C97.6416 33.7602 97.9016 33.5002 97.9016 33.1902V28.0702C98.1016 21.9002 87.5016 21.9002 87.5816 27.9302V38.5602C87.4916 44.5802 98.1016 44.7602 97.9016 38.5602V36.3402H94.7716ZM90.7116 27.9002C90.7716 25.6002 94.7716 25.6002 94.7716 27.9302V31.4002H90.7116V27.9002Z" fill="#1F2324"></path></svg>