<svg xmlns="http://www.w3.org/2000/svg" width="231" height="64" viewBox="0 0 231 64" fill="none"><path d="M53.816 42.164L45.4178 45.8092V45.4602C43.7459 45.8868 42.0352 46.1195 40.2856 46.197C32.3928 46.1195 26.133 42.0089 26.0552 37.1228V35.3002C28.6214 39.0617 33.948 41.5823 40.2856 41.466C42.3851 41.5436 44.4458 41.2721 46.4676 40.7292L47.2063 38.9066C44.9512 39.6046 42.6184 39.9924 40.2856 39.9924C32.3928 40.0312 26.133 35.9207 26.0552 30.9182V29.4446C28.6214 32.9347 33.9091 35.4165 40.2856 35.3002C43.0461 35.4553 45.8066 34.9512 48.295 33.8266L48.6449 32.004C46.0399 33.2837 43.1627 33.9429 40.2467 33.8266C32.3539 33.9429 26.0941 29.8324 26.0163 24.7524V23.2788C28.5825 26.8464 33.9091 29.3283 40.2467 29.4446C43.6682 29.3283 47.0508 28.4751 50.1224 26.924L50.4723 24.7524C47.9451 26.6138 44.2125 27.8547 40.2856 28.0098C32.3539 27.8159 26.0941 23.7054 26.0163 18.5478C26.0941 13.6617 32.3539 9.51237 40.2467 9.47359C44.9512 9.55115 49.3059 11.2186 51.9109 13.8556L52.183 14.2434H54.0104L53.7383 13.8168C51.1333 10.3267 45.9621 8 40.2078 8C31.4985 8 24.5 12.8086 24.5 18.5478V37.4718C24.811 43.0947 31.6152 47.6706 40.2078 47.6706C45.9621 47.6318 51.0555 45.3827 53.816 42.164Z" fill="#919A9F"></path><path d="M50.3947 55L53.3496 42.5133L44.8736 46.1972L50.0448 24.5199H40.0913L42.6574 13.8558H74.3452L71.7791 24.5199H61.4757L59.2595 30.4143L70.6904 25.6445L50.3947 55ZM55.5658 39.9151L54.0884 47.2443L66.258 28.8632L56.3046 33.2839L60.7369 23.0076H70.6904L72.5178 15.2906H43.785L41.9576 23.0076H51.911L47.1287 43.5603L55.5658 39.9151Z" fill="#919A9F"></path><path d="M94.0187 20.9909C94.0187 21.5338 93.8632 22.038 93.6688 22.5033C93.4355 22.9686 93.1245 23.3952 92.7357 23.7442C91.8414 24.4422 90.7528 24.83 89.6252 24.7525C89.0031 24.7912 88.381 24.6749 87.7978 24.4422C87.2146 24.2096 86.7092 23.8218 86.2815 23.3564C85.465 22.4257 85.0762 21.1073 85.0762 19.4398V18.7805C85.0373 17.8111 85.2317 16.8804 85.6205 15.9885C85.9704 15.2129 86.5148 14.5924 87.2146 14.1271C88.07 13.6618 89.042 13.4291 90.014 13.5066C90.986 13.5842 91.9192 13.9332 92.6968 14.5149C93.5133 15.2517 93.9798 16.2987 94.0576 17.3845H91.8025C91.8025 16.8028 91.6081 16.2599 91.2193 15.8334C90.7916 15.4844 90.2084 15.3292 89.6641 15.368C89.353 15.3292 89.0031 15.4068 88.6921 15.5619C88.381 15.717 88.1477 15.9109 87.9533 16.1824C87.5645 16.7253 87.3701 17.5784 87.3701 18.703V19.5173C87.3701 20.7195 87.5645 21.5726 87.9145 22.1155C88.1089 22.387 88.3421 22.6196 88.6532 22.736C88.9642 22.8911 89.2753 22.9299 89.6252 22.9299C90.2084 22.9686 90.7528 22.8135 91.1804 22.4645C91.5692 22.0767 91.7636 21.5338 91.7636 20.9909H94.0187Z" fill="#919A9F"></path><path d="M104.555 19.4016C104.594 20.3711 104.4 21.3405 103.972 22.2324C103.622 23.008 103.039 23.6672 102.339 24.1326C101.6 24.5592 100.745 24.7918 99.8894 24.7918C99.0341 24.7918 98.1787 24.5592 97.44 24.1326C96.7012 23.6672 96.118 23.0468 95.7681 22.2712C95.3793 21.3793 95.146 20.4486 95.1849 19.4792V18.9362C95.146 17.9668 95.3793 16.9973 95.7681 16.0666C96.118 15.2911 96.7012 14.6318 97.44 14.1665C98.1787 13.7399 99.0341 13.5072 99.8894 13.5072C100.745 13.5072 101.6 13.7399 102.339 14.1665C103.078 14.6318 103.622 15.2911 104.011 16.0666C104.4 16.9585 104.633 17.928 104.594 18.8975V19.4016H104.555ZM102.261 18.8975C102.261 17.7341 102.067 16.881 101.639 16.2605C101.445 15.9891 101.172 15.7564 100.861 15.6013C100.55 15.4462 100.2 15.3686 99.8894 15.3686C99.5395 15.3686 99.1896 15.4462 98.9174 15.6013C98.6064 15.7564 98.3342 15.9891 98.1398 16.2605C97.7121 16.8422 97.5177 17.7341 97.5177 18.8587V19.4016C97.4788 20.2935 97.6732 21.2242 98.1398 21.9998C98.3342 22.2712 98.6064 22.5039 98.9174 22.659C99.2285 22.8141 99.5784 22.8917 99.9283 22.8917C100.278 22.8917 100.628 22.8141 100.939 22.659C101.25 22.5039 101.522 22.2712 101.717 21.9998C102.106 21.4181 102.339 20.5262 102.339 19.4016V18.8975H102.261Z" fill="#919A9F"></path><path d="M108.599 24.597H106.344V13.6226H108.599V24.597Z" fill="#919A9F"></path><path d="M119.64 24.597H117.385L112.992 17.3842V24.597H110.737V13.6226H112.992L117.424 20.8355V13.6226H119.679V24.597H119.64Z" fill="#919A9F"></path><path d="M129.672 15.4845H126.289V24.6363H124.073V15.4845H120.768V13.6619H129.711V15.4845H129.672Z" fill="#919A9F"></path><path d="M137.604 19.8665H133.25V22.8137H138.343V24.6363H130.956V13.6619H138.304V15.4845H133.211V18.0827H137.565V19.8665H137.604Z" fill="#919A9F"></path><path d="M141.958 22.7744H146.779V24.597H139.703V13.6226H141.958V22.7744Z" fill="#919A9F"></path><path d="M154.672 19.8665H150.317V22.8137H155.411V24.6363H148.023V13.6619H155.372V15.4845H150.279V18.0827H154.633V19.8665H154.672Z" fill="#919A9F"></path><path d="M165.481 23.2402C165.015 23.7831 164.431 24.1709 163.77 24.3647C162.993 24.6362 162.137 24.7913 161.282 24.7525C160.388 24.7913 159.532 24.5586 158.794 24.1321C158.055 23.7055 157.472 23.0851 157.122 22.3095C156.694 21.4563 156.5 20.4869 156.539 19.5174V18.7806C156.5 17.8112 156.694 16.8417 157.083 15.9498C157.433 15.1742 157.977 14.5537 158.677 14.1272C159.416 13.7006 160.271 13.4679 161.126 13.5067C162.448 13.5067 163.459 13.8169 164.198 14.4374C164.976 15.1354 165.442 16.1049 165.52 17.1519H163.304C163.265 16.609 163.032 16.1437 162.643 15.7559C162.254 15.4457 161.749 15.2905 161.204 15.3293C160.854 15.3293 160.504 15.3681 160.193 15.5232C159.882 15.6783 159.61 15.911 159.416 16.1824C159.027 16.7641 158.794 17.6173 158.794 18.7418V19.4399C158.794 20.6032 159.027 21.4563 159.455 22.038C159.688 22.3483 159.96 22.5809 160.31 22.736C160.66 22.8912 161.01 22.9687 161.399 22.9299C162.254 22.9299 162.837 22.736 163.226 22.387V20.4869H161.165V18.8194H165.481V23.2402Z" fill="#919A9F"></path><path d="M171.352 20.6033H169.564V24.6363H167.309V13.6619H171.391C172.674 13.6619 173.685 13.9333 174.385 14.515C174.735 14.8253 175.007 15.1743 175.201 15.6008C175.396 16.0274 175.474 16.4927 175.435 16.9581C175.474 17.6173 175.279 18.2766 174.929 18.8195C174.579 19.3624 174.035 19.7502 173.452 20.0216L175.823 24.5199V24.6363H173.374L171.352 20.6033ZM169.564 18.7419H171.391C171.858 18.7807 172.363 18.6256 172.713 18.3153C172.869 18.1602 172.985 17.9663 173.063 17.7724C173.141 17.5785 173.18 17.3459 173.18 17.1132C173.18 16.8805 173.141 16.6866 173.102 16.454C173.024 16.2601 172.907 16.0662 172.752 15.8723C172.557 15.7172 172.363 15.6008 172.13 15.5233C171.897 15.4457 171.663 15.4069 171.391 15.4457H169.564V18.7419Z" fill="#919A9F"></path><path d="M183.366 22.3478H179.4L178.661 24.597H176.25L180.333 13.6226H182.433L186.554 24.597H184.143L183.366 22.3478ZM180.022 20.5252H182.782L181.383 16.4147L180.022 20.5252Z" fill="#919A9F"></path><path d="M189.859 20.7584V24.6363H187.604V13.6619H191.881C192.62 13.6619 193.358 13.817 194.058 14.1272C194.641 14.3987 195.147 14.864 195.497 15.4069C195.847 15.9886 196.002 16.6479 196.002 17.3071C196.041 17.7724 195.924 18.2766 195.73 18.7031C195.536 19.1297 195.264 19.5175 194.875 19.8277C194.136 20.4482 193.125 20.7584 191.803 20.7584H189.859ZM189.859 18.897H191.881C192.386 18.9358 192.853 18.7807 193.242 18.4705C193.397 18.3153 193.514 18.1214 193.631 17.9276C193.708 17.7337 193.747 17.501 193.747 17.2683C193.747 17.0356 193.708 16.803 193.631 16.5703C193.553 16.3376 193.436 16.1437 193.281 15.9498C193.125 15.7947 192.892 15.6396 192.658 15.5621C192.425 15.4845 192.192 15.4457 191.959 15.4457H189.898V18.897H189.859Z" fill="#919A9F"></path><path d="M206.5 24.597H204.245V19.9048H199.813V24.597H197.558V13.6226H199.813V18.0822H204.245V13.6226H206.5V24.597Z" fill="#919A9F"></path><path d="M92.1526 36.3478H89.3532V43.9484H87.448V36.3478H84.6875V34.8354H92.1526V36.3478Z" fill="#919A9F"></path><path d="M94.8743 37.8988C95.1075 37.6273 95.3797 37.3947 95.6908 37.2396C96.0018 37.0844 96.3517 37.0069 96.7017 37.0069C98.1791 37.0069 98.9179 37.86 98.9567 39.5663V43.9095H97.1293V39.6051C97.1682 39.2948 97.0516 38.9846 96.8961 38.7519C96.7794 38.6356 96.6628 38.558 96.5073 38.5193C96.3517 38.4805 96.1962 38.4417 96.0407 38.4805C95.8074 38.4805 95.5741 38.5193 95.3797 38.6356C95.1853 38.7519 94.9909 38.907 94.8743 39.1009V43.9095H93.0469V34.2536H94.8743V37.8988Z" fill="#919A9F"></path><path d="M103.428 44.103C102.961 44.103 102.534 44.0642 102.106 43.9091C101.678 43.754 101.289 43.5213 100.978 43.2111C100.667 42.9009 100.395 42.5131 100.24 42.0865C100.084 41.66 100.006 41.2334 100.006 40.768V40.5742C100.006 39.9537 100.123 39.3332 100.395 38.7516C100.628 38.2474 101.017 37.8209 101.523 37.5106C102.028 37.2004 102.611 37.0453 103.195 37.0841C103.622 37.0453 104.011 37.1228 104.4 37.278C104.789 37.4331 105.139 37.6658 105.411 37.976C105.955 38.5577 106.227 39.4108 106.227 40.4578V41.1946H101.912C101.95 41.6212 102.145 41.9702 102.456 42.2804C102.767 42.5519 103.156 42.707 103.583 42.6682C103.894 42.6682 104.205 42.6294 104.517 42.4743C104.789 42.358 105.061 42.1253 105.255 41.8926L106.149 42.9009C105.877 43.2887 105.489 43.5989 105.061 43.7928C104.517 43.9867 103.972 44.103 103.428 44.103ZM103.233 38.5189C103.078 38.5189 102.922 38.5577 102.767 38.5964C102.611 38.674 102.495 38.7516 102.378 38.8679C102.145 39.1781 101.989 39.5271 101.95 39.9149H104.478V39.7598C104.478 39.4108 104.361 39.1006 104.167 38.8291C104.05 38.7128 103.894 38.6352 103.739 38.5577C103.544 38.5189 103.389 38.5189 103.233 38.5189Z" fill="#919A9F"></path><path d="M110.97 43.948V38.4802H109.959V37.1617H110.97V36.58C110.931 36.2698 111.009 35.9208 111.126 35.6105C111.243 35.3003 111.398 35.0289 111.631 34.7962C112.137 34.3696 112.798 34.1369 113.459 34.1757C113.77 34.1757 114.081 34.2145 114.392 34.2921V35.6881C114.197 35.6493 114.042 35.6105 113.848 35.6493C113.148 35.6493 112.837 35.9595 112.837 36.6188V37.1617H114.197V38.4802H112.798V43.948H110.97Z" fill="#919A9F"></path><path d="M119.174 43.2886C118.941 43.56 118.669 43.7927 118.358 43.909C118.047 44.0641 117.697 44.1029 117.347 44.1029C117.036 44.1417 116.725 44.0641 116.453 43.9866C116.18 43.8703 115.908 43.7151 115.675 43.4825C115.247 42.9783 115.053 42.3191 115.092 41.6599V37.2003H116.919V41.5823C116.919 42.2803 117.23 42.6293 117.891 42.6293C118.124 42.6681 118.397 42.5906 118.63 42.513C118.863 42.3967 119.058 42.2415 119.174 42.0089V37.2003H121.002V43.9866H119.291L119.174 43.2886Z" fill="#919A9F"></path><path d="M124.501 35.4943V37.1618H125.668V38.4803H124.501V41.854C124.501 42.0479 124.54 42.2418 124.657 42.3969C124.735 42.4745 124.812 42.5132 124.929 42.552C125.007 42.5908 125.123 42.5908 125.24 42.5908C125.434 42.5908 125.59 42.5908 125.784 42.552V43.9093C125.434 44.0256 125.046 44.0644 124.696 44.0644C123.413 44.0644 122.752 43.4051 122.752 42.1254V38.4803H121.741V37.1618H122.752V35.4943H124.501Z" fill="#919A9F"></path><path d="M130.761 43.2886C130.528 43.56 130.256 43.7927 129.945 43.909C129.634 44.0641 129.284 44.1029 128.934 44.1029C128.623 44.1417 128.312 44.0641 128.04 43.9866C127.767 43.8703 127.495 43.7151 127.262 43.4825C126.834 42.9783 126.64 42.3191 126.679 41.6599V37.2003H128.506V41.5823C128.506 42.2803 128.817 42.6293 129.478 42.6293C129.711 42.6681 129.984 42.5906 130.217 42.513C130.45 42.3967 130.645 42.2415 130.761 42.0089V37.2003H132.589V43.9866H130.878L130.761 43.2886Z" fill="#919A9F"></path><path d="M137.721 38.8681C137.487 38.8293 137.293 38.8293 137.06 38.8293C136.36 38.8293 135.932 39.062 135.699 39.5274V43.9869H133.872V37.2006H135.582L135.621 38.015C135.777 37.7435 135.971 37.5109 136.243 37.317C136.515 37.1619 136.827 37.0455 137.138 37.0843C137.332 37.0843 137.526 37.1231 137.721 37.1619V38.8681Z" fill="#919A9F"></path><path d="M141.608 44.103C141.141 44.103 140.714 44.0642 140.286 43.9091C139.858 43.754 139.47 43.5213 139.159 43.2111C138.847 42.9009 138.575 42.5131 138.42 42.0865C138.264 41.66 138.187 41.2334 138.187 40.768V40.5742C138.187 39.9537 138.303 39.3332 138.575 38.7516C138.809 38.2474 139.197 37.8209 139.703 37.5106C140.208 37.2004 140.792 37.0453 141.375 37.0841C141.802 37.0453 142.191 37.1228 142.58 37.278C142.969 37.4331 143.319 37.6658 143.591 37.976C144.135 38.5577 144.407 39.4108 144.407 40.4578V41.1946H140.053C140.092 41.6212 140.286 41.9702 140.597 42.2804C140.908 42.5519 141.297 42.707 141.725 42.6682C142.036 42.6682 142.347 42.6294 142.658 42.4743C142.93 42.358 143.202 42.1253 143.397 41.8926L144.291 42.9009C144.019 43.2887 143.63 43.5989 143.202 43.7928C142.658 43.9867 142.152 44.103 141.608 44.103ZM141.375 38.5189C141.219 38.5189 141.064 38.5577 140.908 38.5964C140.753 38.674 140.636 38.7516 140.519 38.8679C140.286 39.1781 140.131 39.5271 140.092 39.9149H142.619V39.7598C142.619 39.4108 142.502 39.1006 142.308 38.8291C142.191 38.7128 142.036 38.6352 141.88 38.5577C141.725 38.5189 141.569 38.5189 141.375 38.5189Z" fill="#919A9F"></path><path d="M148.375 40.4972C148.375 39.8767 148.491 39.2563 148.763 38.7133C148.997 38.2092 149.385 37.7827 149.891 37.4724C150.396 37.1622 150.98 37.0459 151.602 37.0459C152.029 37.0459 152.418 37.0846 152.807 37.2398C153.196 37.3949 153.546 37.5888 153.857 37.899C154.479 38.5195 154.79 39.3338 154.829 40.1869V40.6523C154.868 41.583 154.557 42.4749 153.973 43.1729C153.351 43.7934 152.496 44.1036 151.64 44.1036C150.785 44.1036 149.93 43.7546 149.308 43.1729C148.686 42.4749 148.375 41.5442 148.413 40.6135V40.4972H148.375ZM150.163 40.6523C150.124 41.1564 150.241 41.6993 150.513 42.1259C150.63 42.281 150.785 42.3973 150.98 42.5137C151.174 42.5912 151.368 42.63 151.563 42.6688C151.757 42.6688 151.952 42.63 152.146 42.5524C152.34 42.4749 152.496 42.3198 152.613 42.1647C152.885 41.6605 153.04 41.1176 153.001 40.5359C153.04 40.0318 152.885 39.4889 152.613 39.0624C152.496 38.9072 152.34 38.7521 152.146 38.6746C151.952 38.597 151.757 38.5582 151.563 38.5582C151.368 38.5582 151.174 38.597 150.98 38.6746C150.785 38.7521 150.63 38.9072 150.513 39.0624C150.28 39.5277 150.124 40.0706 150.163 40.6523Z" fill="#919A9F"></path><path d="M156.423 43.948V38.4802H155.412V37.1617H156.423V36.58C156.384 36.2698 156.461 35.9208 156.578 35.6105C156.695 35.3003 156.85 35.0289 157.083 34.7962C157.589 34.3696 158.25 34.1369 158.911 34.1757C159.222 34.1757 159.533 34.2145 159.844 34.2921V35.6881C159.65 35.6493 159.494 35.6105 159.3 35.6493C158.6 35.6493 158.289 35.9595 158.289 36.6188V37.1617H159.65V38.4802H158.289V43.948H156.423Z" fill="#919A9F"></path><path d="M165.481 37.1616L165.52 37.9372C165.753 37.6657 166.064 37.4331 166.375 37.278C166.725 37.1228 167.075 37.0453 167.464 37.0841C167.853 37.0453 168.203 37.1228 168.514 37.3167C168.825 37.5106 169.097 37.7821 169.252 38.1311C169.486 37.7821 169.797 37.5106 170.147 37.3555C170.497 37.1616 170.885 37.0841 171.313 37.1228C171.624 37.0841 171.935 37.1616 172.207 37.2392C172.479 37.3555 172.752 37.5106 172.946 37.7433C173.335 38.325 173.529 38.9842 173.49 39.6822V44.0255H171.663V39.6822C171.702 39.372 171.624 39.1006 171.43 38.8291C171.313 38.7128 171.196 38.6352 171.041 38.5964C170.885 38.5577 170.769 38.5189 170.613 38.5577C170.38 38.5577 170.108 38.5964 169.913 38.7516C169.719 38.9067 169.563 39.1006 169.486 39.3332V43.9867H167.658V39.6435C167.697 39.3332 167.619 39.023 167.425 38.7903C167.308 38.674 167.192 38.6352 167.075 38.5577C166.919 38.5189 166.803 38.4801 166.647 38.5189C166.414 38.5189 166.181 38.5577 165.986 38.674C165.792 38.7903 165.636 38.9454 165.52 39.1781V43.9867H163.692V37.2004H165.481V37.1616Z" fill="#919A9F"></path><path d="M174.618 40.4972C174.618 39.8767 174.735 39.2563 175.007 38.7133C175.24 38.2092 175.629 37.7827 176.135 37.4724C176.64 37.1622 177.223 37.0459 177.845 37.0459C178.273 37.0459 178.662 37.0846 179.051 37.2398C179.439 37.3949 179.789 37.5888 180.1 37.899C180.722 38.5195 181.033 39.3338 181.072 40.1869V40.6523C181.111 41.583 180.8 42.4749 180.217 43.1729C179.595 43.7934 178.74 44.1036 177.884 44.1036C177.029 44.1036 176.173 43.7546 175.551 43.1729C174.929 42.4749 174.618 41.5442 174.657 40.6135V40.4972H174.618ZM176.446 40.6523C176.407 41.1564 176.523 41.6993 176.795 42.1259C176.912 42.281 177.068 42.3973 177.262 42.5137C177.456 42.5912 177.651 42.63 177.845 42.6688C178.04 42.7076 178.234 42.63 178.428 42.5524C178.623 42.4749 178.778 42.3198 178.895 42.1647C179.167 41.6605 179.323 41.1176 179.284 40.5359C179.323 40.0318 179.167 39.4889 178.895 39.0624C178.778 38.9072 178.623 38.7521 178.428 38.6746C178.234 38.597 178.04 38.5582 177.845 38.5582C177.651 38.5582 177.456 38.597 177.262 38.6746C177.068 38.7521 176.912 38.9072 176.795 39.0624C176.523 39.5277 176.407 40.0706 176.446 40.6523Z" fill="#919A9F"></path><path d="M183.872 37.1616L183.911 37.9372C184.144 37.627 184.455 37.3943 184.766 37.2392C185.116 37.0841 185.466 37.0065 185.855 37.0065C186.166 36.9678 186.438 37.0453 186.749 37.1229C187.021 37.2392 187.294 37.3943 187.488 37.627C187.877 38.1699 188.071 38.8291 188.032 39.5271V43.9091H186.205V39.5659C186.244 39.2557 186.127 38.9455 185.972 38.7128C185.855 38.6352 185.738 38.5577 185.583 38.4801C185.427 38.4413 185.272 38.4026 185.155 38.4413C184.922 38.4413 184.689 38.4801 184.494 38.5965C184.3 38.7128 184.105 38.8679 184.028 39.1006V43.9091H182.2V37.1229H183.872V37.1616Z" fill="#919A9F"></path><path d="M192.581 44.1032C192.115 44.1032 191.687 44.0644 191.259 43.9093C190.832 43.7542 190.443 43.5215 190.132 43.2113C189.821 42.9011 189.548 42.5133 189.393 42.0867C189.237 41.6602 189.16 41.2336 189.16 40.7683V40.5744C189.16 39.9539 189.276 39.3334 189.548 38.7518C189.782 38.2476 190.171 37.8211 190.676 37.5108C191.181 37.2006 191.765 37.0455 192.348 37.0843C192.776 37.0455 193.164 37.1231 193.553 37.2782C193.942 37.4333 194.292 37.666 194.564 37.9762C195.108 38.5579 195.381 39.411 195.381 40.458V41.1948H191.026C191.065 41.6214 191.259 41.9704 191.57 42.2806C191.881 42.5521 192.27 42.7072 192.698 42.6684C193.009 42.6684 193.32 42.6296 193.631 42.4745C193.903 42.3582 194.175 42.1255 194.37 41.8928L195.264 42.9011C194.992 43.2889 194.603 43.5991 194.175 43.793C193.631 43.9869 193.087 44.1032 192.581 44.1032ZM192.348 38.5191C192.192 38.5191 192.037 38.5579 191.881 38.5967C191.726 38.6742 191.609 38.7518 191.493 38.8681C191.259 39.1783 191.104 39.5273 191.065 39.9151H193.592V39.76C193.592 39.411 193.475 39.1008 193.281 38.8293C193.164 38.713 193.009 38.6354 192.853 38.5579C192.698 38.5191 192.503 38.5191 192.348 38.5191Z" fill="#919A9F"></path><path d="M198.841 41.3881L200.085 37.1613H202.029L199.308 44.9946L199.152 45.3436C198.997 45.7313 198.724 46.0804 198.374 46.313C198.025 46.5457 197.597 46.662 197.169 46.662C196.897 46.662 196.625 46.6233 196.353 46.5457V45.1884H196.625C196.897 45.1884 197.169 45.1497 197.402 45.0333C197.597 44.917 197.714 44.7231 197.791 44.5292L198.025 43.9863L195.653 37.1613H197.597L198.841 41.3881Z" fill="#919A9F"></path></svg>