<svg xmlns="http://www.w3.org/2000/svg" width="162" height="64" viewBox="0 0 162 64" fill="none"><path d="M97.7375 24.0862C97.4525 24.9242 97.1865 25.8714 96.7495 26.6911C98.1746 26.1629 100.018 26.1629 101.595 25.7439C100.455 25.0335 98.5736 25.0335 97.7375 24.0862Z" fill="#919A9F"></path><path d="M94.0514 33.2306C91.0494 33.3399 87.9142 33.9046 84.9121 33.9046C85.4632 31.5729 86.4702 29.4052 86.9072 27.365C84.9121 29.8242 81.492 32.0101 80.086 35.1615C79.231 37.3474 80.96 38.4404 82.9361 38.4404C87.3632 38.4404 90.7833 34.8882 95.3435 34.8882C95.8945 33.6495 95.4955 32.1558 94.9065 31.3361C94.6215 31.9919 94.4885 32.6841 94.0514 33.2306Z" fill="#919A9F"></path><path d="M99.8107 21.3727C99.7721 21.3917 99.7143 21.4299 99.6758 21.4489C99.6758 21.4489 99.7721 21.4489 99.8107 21.3727Z" fill="#919A9F"></path><path d="M137.982 19.9701C127.132 18.3306 116.739 15.0699 104.066 15.835C103.286 15.835 102.355 15.9807 101.576 15.9807C100.474 15.9807 99.5434 15.3796 98.4603 15.2521C93.0072 14.3595 88.067 15.999 84.3429 17.6384C83.5828 17.9481 82.1768 18.9682 81.3978 18.9682C80.4667 18.9682 78.9087 18.0756 77.6736 17.7841C72.2585 16.2904 64.1832 14.3595 60.003 17.4745C54.7209 16.7276 49.9327 17.9116 45.8856 19.0957C45.7146 16.1083 42.7695 14.3413 39.3684 15.2339C37.0313 15.835 35.1692 17.0191 32.8511 17.9116C28.367 19.5511 23.6928 23.1032 24.0158 28.7685C24.1868 31.4462 25.4219 33.5229 26.1819 35.4538C27.1129 37.3847 27.892 39.0241 29.298 41.2465C28.975 41.8476 28.671 42.303 28.538 43.0317C27.778 49.2616 36.4423 49.4255 41.0974 47.6403C45.1255 46.0009 49.3247 43.1774 52.1178 41.1008C49.9517 50.4638 65.1332 50.9192 69.0093 46.1648C74.5955 50.0084 86.2049 49.5895 92.1141 46.3106C97.3773 50.4638 109.31 48.9701 116.606 47.3489C120.33 46.6202 123.579 45.8552 126.068 44.2339C128.69 42.4487 130.248 39.771 130.875 36.3464C130.4 34.9984 129.469 34.1058 128.709 33.0675C129.165 32.3388 129.165 30.8451 129.032 29.6428C132.281 27.4205 134.942 23.9776 137.26 21.1723C137.526 20.8627 138.115 20.4073 137.982 19.9701ZM129.887 23.504C127.721 25.8903 125.232 27.6755 120.729 27.9669C117.48 28.1309 114.231 27.5298 110.811 27.5298C110.051 27.9852 110.051 29.1692 109.424 29.9161C114.079 30.8087 117.195 28.2948 121.679 28.5863C123.237 28.732 124.795 29.3149 124.928 30.5172C125.099 32.3024 123.237 33.9418 121.679 34.5247C118.43 35.7088 112.692 35.1259 108.664 35.7088C107.258 36.0185 105.548 36.6014 105.871 37.494C106.023 38.0951 108.189 38.5323 109.12 38.5323C114.402 38.9695 118.278 37.0386 122.306 36.4556C123.693 36.2917 125.726 36.2917 126.486 36.8928C125.707 41.6472 121.679 42.3941 116.72 43.5781C111.305 44.9261 104.636 46.4016 97.9663 45.0719C95.3062 44.4707 94.0902 44.1793 94.5462 41.0643C90.4991 43.4142 82.8988 46.8388 75.2986 44.9079C71.7264 44.0153 68.4773 42.8313 68.4773 38.5141C68.0023 39.5706 67.5463 40.5907 66.9193 41.793C66.4633 42.6856 66.1593 44.1793 65.2282 44.7804C63.5372 46.1284 56.8489 45.9645 56.0699 44.0518C55.4429 42.2666 56.8489 38.3866 57.305 37.2025C58.54 33.9236 60.2501 32.0109 59.319 28.1309C58.388 28.5863 57.761 29.4789 57.153 30.2075C53.2768 34.379 49.5527 38.9877 44.1375 41.9569C41.6674 43.3049 38.8743 44.9444 35.4542 44.9444C34.2192 44.9444 33.1361 44.7804 32.5091 44.0518C32.5091 42.722 33.9152 42.4305 34.3712 41.5379C32.3381 38.8784 30.7991 36.0367 29.412 32.6303C28.785 31.1365 27.854 29.6428 28.177 27.4387C28.633 23.5769 32.6611 22.2107 36.2332 20.8991C38.0953 20.1704 39.8054 18.6767 41.6484 18.9682C42.4275 20.7534 41.6484 22.7025 41.1924 24.6334C40.4324 27.5844 39.6534 30.8633 40.4324 34.4337C41.6674 33.9783 42.4655 32.9399 43.2255 31.7559C43.7005 30.7176 44.9355 29.2421 45.0875 28.0398C45.2396 26.8558 44.4605 25.6535 44.7645 24.4694C45.3916 22.5203 49.8947 21.9192 51.9088 21.482C54.0748 21.0448 56.3929 20.7534 58.882 21.0448C59.661 21.1905 60.4401 21.482 61.0481 21.482C61.6561 21.482 62.2831 20.4437 62.9101 20.1522C65.2282 18.8225 69.2754 19.8426 72.2015 20.4619C74.2155 20.9173 76.2296 21.5184 78.2437 21.9556C77.3126 23.1397 76.2106 24.3419 75.1276 25.6717C74.1965 27.0197 73.2655 28.3495 72.3345 29.8432C74.8235 27.4569 78.2437 25.0888 82.1008 22.9939C86.9079 20.4437 93.5772 17.2012 100.227 19.4236C100.227 20.1522 99.9044 20.7534 99.7714 21.3545C99.7714 21.3909 99.7714 21.4091 99.7524 21.4274C100.645 20.9355 101.557 19.6968 102.735 19.5693C112.331 18.531 122.876 21.5184 130.457 22.5203C130.647 22.9211 130.039 23.2125 129.887 23.504Z" fill="#919A9F"></path></svg>