<svg xmlns="http://www.w3.org/2000/svg" width="210" height="64" viewBox="0 0 210 64" fill="none"><g clip-path="url(#clip0_1794_10455)"><path d="M51.7506 32.6573L41.1936 14.5219C41.145 14.4308 41.0694 14.3558 40.9776 14.3076C40.8912 14.2541 40.7886 14.2273 40.686 14.2273C40.5834 14.2273 40.4808 14.2541 40.389 14.3023C40.2972 14.3558 40.2216 14.4255 40.173 14.5165L37.014 19.9475C36.9114 20.1243 36.8574 20.3278 36.8574 20.5313C36.8574 20.7348 36.9114 20.9384 37.014 21.1151L43.899 32.9466C44.0016 33.1233 44.1528 33.2733 44.331 33.375C44.5092 33.4768 44.7144 33.5304 44.9196 33.5304H51.243C51.3456 33.5304 51.4482 33.5036 51.54 33.45C51.6318 33.3965 51.702 33.3268 51.756 33.2358C51.81 33.1447 51.837 33.0483 51.837 32.9412C51.837 32.8394 51.81 32.7377 51.7614 32.6466L51.7506 32.6573Z" fill="#919A9F"></path><path d="M24.081 42.1307L34.638 24.0006C34.692 23.9095 34.7622 23.8399 34.854 23.7863C34.9458 23.7328 35.043 23.706 35.151 23.706C35.259 23.706 35.3562 23.7328 35.448 23.7863C35.5398 23.8399 35.61 23.9095 35.664 24.0006L38.8284 29.4316C38.931 29.6083 38.985 29.8119 38.985 30.0154C38.985 30.2189 38.931 30.4225 38.8284 30.5992L31.9434 42.4306C31.8408 42.6074 31.6896 42.7574 31.5114 42.8591C31.3332 42.9609 31.128 43.0145 30.9228 43.0145H24.594C24.4914 43.0145 24.3888 42.9877 24.297 42.9341C24.2052 42.8806 24.1296 42.8109 24.081 42.7199C24.027 42.6288 24 42.5271 24 42.4253C24 42.3235 24.027 42.2218 24.081 42.1307Z" fill="#919A9F"></path><path d="M35.6599 43.0103H56.7685C56.8711 43.0103 56.9737 42.9836 57.0655 42.93C57.1573 42.8764 57.2275 42.8068 57.2815 42.7158C57.3355 42.6247 57.3625 42.5283 57.3625 42.4212C57.3625 42.3194 57.3355 42.2176 57.2815 42.1266L54.1225 36.6956C54.0199 36.5188 53.8687 36.3689 53.6905 36.2671C53.5123 36.1653 53.3071 36.1118 53.1019 36.1118H39.3319C39.1267 36.1118 38.9215 36.1653 38.7433 36.2671C38.5651 36.3689 38.4139 36.5188 38.3113 36.6956L35.1523 42.1266C35.0983 42.2176 35.0713 42.3141 35.0713 42.4212C35.0713 42.5229 35.0983 42.6247 35.1523 42.7158C35.2063 42.8068 35.2765 42.8764 35.3683 42.93C35.4601 42.9836 35.5573 43.0103 35.6653 43.0103H35.6599Z" fill="#919A9F"></path><path d="M75.1052 32.0244V31.6173C75.1052 30.5997 74.7596 29.8177 74.0684 29.2767C73.3988 28.7144 72.5132 28.4358 71.4224 28.4358C70.5854 28.4358 69.9212 28.5804 69.4406 28.875C68.9816 29.1482 68.5388 29.5606 68.1176 30.123C67.9934 30.289 67.853 30.4015 67.7072 30.4658C67.5614 30.53 67.3616 30.5568 67.1078 30.5568H66.1628C65.9306 30.5568 65.72 30.4711 65.531 30.3051C65.3636 30.1391 65.288 29.9409 65.3096 29.7106C65.3744 29.0839 65.6768 28.4733 66.2222 27.8681C66.7892 27.2414 67.5344 26.7326 68.4578 26.3363C69.3812 25.9399 70.364 25.7418 71.417 25.7418C73.3664 25.7418 74.9432 26.2827 76.1366 27.3646C77.3516 28.4465 77.9618 29.9677 77.9618 31.9226V41.4402C77.9618 41.6706 77.8808 41.8687 77.708 42.0348C77.5406 42.2008 77.3408 42.2865 77.1086 42.2865H75.9422C75.71 42.2865 75.5102 42.2008 75.3428 42.0348C75.1754 41.8687 75.089 41.6706 75.089 41.4402V40.1602C74.7542 40.91 74.0414 41.5045 72.9506 41.9384C71.8598 42.3776 70.769 42.5918 69.6782 42.5918C68.5874 42.5918 67.6532 42.4043 66.8162 42.0294C65.9792 41.6331 65.3258 41.1028 64.8668 40.4387C64.424 39.7745 64.208 39.0247 64.208 38.1891C64.208 36.6305 64.7966 35.4094 65.9684 34.5363C67.1456 33.6419 68.7062 33.0367 70.6556 32.726L75.0944 32.0083L75.1052 32.0244ZM75.1052 34.5203L71.39 35.1148C70.0238 35.3237 68.9654 35.6665 68.2094 36.1431C67.4534 36.5984 67.0754 37.1822 67.0754 37.8892C67.0754 38.4087 67.3184 38.8801 67.799 39.2925C68.2796 39.7103 69.014 39.9191 70.0022 39.9191C71.5142 39.9191 72.74 39.4907 73.685 38.6391C74.63 37.7874 75.0998 36.6734 75.0998 35.2969V34.5149L75.1052 34.5203Z" fill="#919A9F"></path><path d="M85.426 41.4499C85.426 41.6802 85.3396 41.8784 85.1722 42.0444C85.0048 42.2104 84.805 42.2961 84.5728 42.2961H83.4064C83.1742 42.2961 82.9744 42.2104 82.807 42.0444C82.6396 41.8784 82.5532 41.6802 82.5532 41.4499V20.9738C82.5532 20.7435 82.6396 20.5453 82.807 20.3793C82.9744 20.2133 83.1742 20.1276 83.4064 20.1276H84.5728C84.805 20.1276 85.0048 20.2133 85.1722 20.3793C85.3396 20.5453 85.426 20.7435 85.426 20.9738V41.4499Z" fill="#919A9F"></path><path d="M96.7603 39.9246C98.8555 39.9246 100.276 39.1105 101.01 37.4876C101.156 37.1769 101.302 36.9573 101.453 36.8341C101.604 36.711 101.798 36.6467 102.052 36.6467H102.997C103.229 36.6467 103.429 36.7324 103.597 36.8984C103.764 37.043 103.85 37.2198 103.85 37.4287C103.85 38.1357 103.57 38.8962 103.003 39.705C102.436 40.5191 101.62 41.2047 100.546 41.767C99.4764 42.3294 98.2182 42.6079 96.771 42.6079C95.3238 42.6079 93.99 42.2973 92.8992 41.6706C91.8084 41.044 90.9714 40.1924 90.3828 39.1105C89.7942 38.0071 89.4702 36.7806 89.4054 35.4255C89.3838 35.1738 89.373 34.6971 89.373 33.9901C89.373 33.492 89.3838 33.1385 89.4054 32.9296C89.5944 30.8086 90.318 29.0786 91.5762 27.7503C92.8344 26.4221 94.5678 25.7525 96.771 25.7525C98.2182 25.7525 99.4656 26.0311 100.513 26.5934C101.582 27.1344 102.392 27.8093 102.938 28.6234C103.505 29.4161 103.807 30.1659 103.85 30.8729C103.872 31.1032 103.786 31.3014 103.597 31.4674C103.429 31.6335 103.229 31.7192 102.997 31.7192H102.052C101.798 31.7192 101.604 31.6549 101.453 31.5317C101.302 31.4085 101.161 31.1889 101.01 30.8783C100.276 29.2554 98.8609 28.4413 96.7603 28.4413C95.6047 28.4413 94.6002 28.8269 93.7416 29.5982C92.883 30.3694 92.3863 31.5317 92.262 33.0956C92.2404 33.326 92.2296 33.7009 92.2296 34.2204C92.2296 34.6971 92.2404 35.0506 92.262 35.2809C92.4079 36.8395 92.8992 38.0071 93.7416 38.7784C94.6002 39.5497 95.6101 39.9353 96.7603 39.9353V39.9246Z" fill="#919A9F"></path><path d="M122.145 41.4499C122.145 41.6802 122.058 41.8784 121.891 42.0444C121.724 42.2104 121.524 42.2961 121.292 42.2961H120.125C119.893 42.2961 119.693 42.2104 119.526 42.0444C119.358 41.8784 119.272 41.6802 119.272 41.4499V33.2123C119.272 31.6537 118.883 30.4647 118.106 29.6559C117.328 28.8418 116.248 28.4401 114.866 28.4401C113.483 28.4401 112.419 28.8472 111.626 29.6559C110.848 30.47 110.459 31.6537 110.459 33.2123V41.4499C110.459 41.6802 110.378 41.8784 110.205 42.0444C110.038 42.2104 109.838 42.2961 109.606 42.2961H108.44C108.207 42.2961 108.008 42.2104 107.84 42.0444C107.673 41.8784 107.586 41.6802 107.586 41.4499V20.9738C107.586 20.7435 107.673 20.5453 107.84 20.3793C108.008 20.2133 108.207 20.1276 108.44 20.1276H109.606C109.838 20.1276 110.038 20.2133 110.205 20.3793C110.373 20.5453 110.459 20.7435 110.459 20.9738V27.8724C110.918 27.2671 111.55 26.769 112.349 26.3727C113.165 25.9549 114.164 25.746 115.341 25.746C116.664 25.746 117.836 26.0245 118.867 26.5869C119.893 27.1493 120.692 27.9581 121.259 29.0239C121.848 30.063 122.139 31.3002 122.139 32.7356V41.4445L122.145 41.4499Z" fill="#919A9F"></path><path d="M133.172 25.7525C135.418 25.7525 137.189 26.4595 138.491 27.8735C139.792 29.2875 140.44 31.2157 140.44 33.6473V34.4882C140.44 34.7185 140.359 34.9167 140.186 35.0827C140.019 35.2488 139.819 35.3345 139.587 35.3345H128.76V35.5219C128.803 36.8931 129.219 37.975 130.018 38.7677C130.834 39.5389 131.887 39.9246 133.166 39.9246C134.214 39.9246 135.024 39.7907 135.591 39.5175C136.18 39.2444 136.703 38.8641 137.162 38.3606C137.33 38.1946 137.476 38.0821 137.605 38.0178C137.751 37.9536 137.94 37.9268 138.172 37.9268H139.117C139.371 37.9268 139.576 38.0125 139.744 38.1785C139.911 38.3445 139.987 38.5427 139.965 38.773C139.884 39.3354 139.565 39.9192 139.02 40.5191C138.496 41.1029 137.729 41.601 136.725 42.0188C135.737 42.4151 134.554 42.6133 133.166 42.6133C131.779 42.6133 130.628 42.3134 129.581 41.7081C128.533 41.0815 127.691 40.2299 127.064 39.1479C126.454 38.066 126.087 36.8502 125.963 35.4951C125.92 34.8685 125.898 34.3918 125.898 34.0597C125.898 33.7277 125.92 33.2456 125.963 32.6243C126.087 31.3335 126.454 30.1713 127.064 29.1268C127.696 28.0878 128.522 27.2629 129.548 26.6631C130.596 26.0578 131.806 25.7579 133.166 25.7579L133.172 25.7525ZM137.611 32.7154V32.6243C137.611 31.3549 137.2 30.348 136.385 29.5982C135.586 28.8269 134.516 28.4413 133.177 28.4413C131.962 28.4413 130.92 28.8269 130.061 29.5982C129.224 30.3694 128.792 31.3764 128.771 32.6243V32.7154H137.616H137.611Z" fill="#919A9F"></path><path d="M147.104 27.8738C147.606 27.2311 148.173 26.7169 148.805 26.342C149.437 25.9456 150.274 25.7474 151.321 25.7474C153.778 25.7474 155.496 26.6526 156.484 28.4629C157.094 27.5899 157.785 26.9204 158.563 26.4651C159.34 25.9885 160.356 25.7474 161.614 25.7474C163.671 25.7474 165.189 26.3634 166.177 27.5899C167.181 28.8164 167.689 30.5571 167.689 32.8013V41.4459C167.689 41.6762 167.608 41.8744 167.435 42.0404C167.268 42.2065 167.068 42.2922 166.836 42.2922H165.669C165.437 42.2922 165.237 42.2065 165.07 42.0404C164.902 41.8744 164.816 41.6762 164.816 41.4459V33.112C164.816 29.9894 163.579 28.4308 161.101 28.4308C159.967 28.4308 159.065 28.8057 158.395 29.5556C157.726 30.3054 157.391 31.4195 157.391 32.8977V41.4513C157.391 41.6816 157.31 41.8798 157.137 42.0458C156.97 42.2118 156.77 42.2975 156.538 42.2975H155.371C155.139 42.2975 154.939 42.2118 154.772 42.0458C154.605 41.8798 154.518 41.6816 154.518 41.4513V33.1173C154.518 29.9948 153.282 28.4362 150.803 28.4362C149.669 28.4362 148.767 28.8111 148.098 29.5609C147.428 30.3108 147.088 31.4248 147.088 32.9031V41.4566C147.088 41.6869 147.007 41.8851 146.834 42.0512C146.667 42.2172 146.467 42.3029 146.235 42.3029H145.068C144.836 42.3029 144.636 42.2172 144.469 42.0512C144.301 41.8851 144.215 41.6869 144.215 41.4566V26.9043C144.215 26.674 144.296 26.4759 144.469 26.3098C144.636 26.1438 144.836 26.0581 145.068 26.0581H146.235C146.467 26.0581 146.667 26.1438 146.834 26.3098C147.001 26.4759 147.088 26.674 147.088 26.9043V27.8738H147.104Z" fill="#919A9F"></path><path d="M176.497 47.4758C176.308 47.9739 176.006 48.2256 175.585 48.2256H174.294C174.083 48.2256 173.905 48.1506 173.759 48.006C173.614 47.8614 173.538 47.6847 173.538 47.4758C173.538 47.3901 173.549 47.3204 173.57 47.2562L176.594 40.7325L170.363 27.0318C170.341 26.9676 170.33 26.8979 170.33 26.8123C170.33 26.6034 170.406 26.4266 170.552 26.282C170.698 26.1374 170.876 26.0624 171.086 26.0624H172.377C172.798 26.0624 173.101 26.3141 173.29 26.8123L178.133 37.4225L183.042 26.8123C183.231 26.3141 183.533 26.0624 183.955 26.0624H185.245C185.456 26.0624 185.634 26.1374 185.78 26.282C185.926 26.4266 186.001 26.6034 186.001 26.8123C186.001 26.8979 185.99 26.9676 185.969 27.0318L176.497 47.4758Z" fill="#919A9F"></path></g><defs><clipPath id="clip0_1794_10455"><rect width="162" height="34" fill="white" transform="translate(24 14.2273)"></rect></clipPath></defs></svg>