<svg xmlns="http://www.w3.org/2000/svg" width="178" height="64" viewBox="0 0 178 64" fill="none"><path fill-rule="evenodd" clip-rule="evenodd" d="M34.9935 20.8479C34.993 22.4143 34.8894 24.4177 34.763 25.3001L34.5335 26.9047L33.6138 26.794C32.2485 26.6298 29.5821 25.9019 27.7152 25.1837C26.6293 24.7658 26.0449 24.6199 26.0014 24.7555C24.7304 28.713 23.9553 31.2369 24.002 31.2663C24.0347 31.287 24.9441 31.5605 26.023 31.8742C27.6923 32.3597 31.1159 33.7453 31.8961 34.2513C32.3361 34.5364 30.178 38.3589 28.2226 40.7578C27.707 41.3904 27.3611 41.96 27.454 42.0235C27.547 42.0871 28.7452 42.9731 30.1167 43.9924C32.7755 45.9684 33.0041 46.0727 33.288 45.439C33.8529 44.1779 37.9247 39.1555 38.3821 39.1555C38.7286 39.1555 41.3257 42.254 42.5826 44.1669C43.1846 45.0834 43.7786 45.8359 43.9023 45.8394C44.0704 45.8442 47.0624 43.7179 49.3983 41.9338C49.4346 41.9061 49.1281 41.4935 48.7171 41.0167C47.5215 39.63 44.6493 35.0069 44.6493 34.4693C44.6493 34.0957 49.7065 32.0232 51.7623 31.5546C52.3213 31.4271 52.7784 31.2837 52.7784 31.2358C52.7784 31.1879 52.2994 29.6668 51.7139 27.8558L50.6492 24.5629L49.088 25.1631C45.4781 26.5503 42.2841 27.1499 42.119 26.4711C41.8449 25.3453 41.6147 21.6812 41.7085 19.9438L41.8135 18H38.4038H34.9944L34.9935 20.8479ZM62.1446 31.7421V45.4843H66.1208H70.097V40.5117V35.5392H75.3986H80.7003V32.3749V29.2106H75.3986H70.097V27.0408V24.871H76.4589H82.8208V21.4355V18H72.4827H62.1446V31.7421ZM122.406 22.607V25.7751H121.169H119.932V28.0353V30.2955H121.169H122.406V35.509C122.406 41.3216 122.531 42.3828 123.363 43.6515C124.562 45.4789 128.007 46.2773 131.773 45.6002L132.921 45.3938L132.97 42.7267L133.019 40.0596H132.153C129.459 40.0596 129.475 40.0913 129.475 34.7185V30.2955H131.242H133.009V28.0353V25.7751H131.247H129.484L129.435 22.656L129.387 19.5369L125.897 19.4879L122.406 19.4389V22.607ZM91.392 25.3459C91.1975 25.3849 90.6011 25.5052 90.0665 25.6127C83.8494 26.8645 80.5271 34.5199 83.5457 40.6382C87.0167 47.6739 98.5576 47.8197 102.113 40.8731C106.15 32.9844 99.7175 23.6684 91.392 25.3459ZM141.352 25.4967C138.246 26.2196 136.246 27.9237 135.457 30.5197C134.878 32.4225 134.641 32.2845 138.492 32.2845H141.854L142.026 31.7873C142.475 30.4924 143.111 30.0312 144.42 30.0505C145.897 30.0724 146.736 31.104 146.279 32.3348C145.972 33.1604 144.873 33.5327 141.393 33.99C135.442 34.7718 132.963 38.0504 134.842 42.6516C136.281 46.1757 142.559 47.0724 145.638 44.1936L146.572 43.3205L146.667 43.905C146.72 44.2265 146.847 44.7136 146.95 44.9868L147.138 45.4843H150.589C154.185 45.4843 154.246 45.4691 153.818 44.7037C153.658 44.4162 153.57 42.4415 153.498 37.4378C153.378 29.1257 153.179 28.3496 150.753 26.7054C148.857 25.4204 144.234 24.826 141.352 25.4967ZM115.855 25.6607C114.623 26.0006 113.452 26.7879 112.725 27.765C111.853 28.9369 111.803 28.9074 111.803 27.2216V25.7751H108.445H105.088V35.6296V45.4843H108.605H112.123L112.194 40.5569C112.301 33.1777 113.029 31.8994 117.184 31.7978L118.941 31.7547L118.907 28.7483C118.888 27.0947 118.828 25.6679 118.773 25.5777C118.633 25.3446 116.813 25.3965 115.855 25.6607ZM93.6093 30.2955C95.8583 30.2955 96.9617 36.9031 95.1898 39.7616C94.3404 41.1322 92.535 41.5519 91.3275 40.659C88.3344 38.4462 89.8442 29.252 93.0409 30.2239C93.1704 30.2633 93.426 30.2955 93.6093 30.2955ZM146.58 38.1159C146.437 40.3719 145.619 41.3358 143.726 41.4758C140.18 41.7383 140.263 38.4764 143.826 37.562C144.643 37.3524 145.506 37.1015 145.743 37.0044C146.625 36.6442 146.67 36.704 146.58 38.1159Z" fill="#919A9F"></path></svg>