<svg width="120" height="120" viewBox="0 0 120 120" fill="none" xmlns="http://www.w3.org/2000/svg">
<g clip-path="url(#clip0_2128_1868)">
<path d="M60 120C26.9 120 0 93.1 0 60C0 26.9 26.9 0 60 0C93.1 0 120 26.9 120 60C120 93.1 93.1 120 60 120Z" fill="white"/>
<path d="M60 90C76.5685 90 90 76.5685 90 60C90 43.4315 76.5685 30 60 30C43.4315 30 30 43.4315 30 60C30 76.5685 43.4315 90 60 90Z" fill="#CED2DB"/>
<path d="M90 60C90 67.9565 86.8393 75.5871 81.2132 81.2132C75.5871 86.8393 67.9565 90 60 90C52.0435 90 44.4129 86.8393 38.7868 81.2132C33.1607 75.5871 30 67.9565 30 60H90Z" fill="#0052FF"/>
<path d="M60 30C67.9565 30 75.5871 33.1607 81.2132 38.7868C86.8393 44.4129 90 52.0435 90 60C90 67.9565 86.8393 75.5871 81.2132 81.2132C75.5871 86.8393 67.9565 90 60 90V30Z" fill="#0052FF"/>
<path d="M60 60V90C67.9565 90 75.5871 86.8393 81.2132 81.2132C86.8393 75.5871 90 67.9565 90 60H60Z" fill="#CED2DB"/>
<path d="M60 46C43.4375 46 30 52.75 30 61C30 48.625 43.4375 38 60 38" fill="#FEFFFF"/>
<path d="M60 50C58.0109 50 56.1032 49.2098 54.6967 47.8033C53.2902 46.3968 52.5 44.4891 52.5 42.5C52.5 40.5109 53.2902 38.6032 54.6967 37.1967C56.1032 35.7902 58.0109 35 60 35" fill="#0052FF"/>
<path d="M60 74C76.5625 74 90 67.25 90 59C90 71.375 76.5625 82 60 82" fill="#FEFFFF"/>
<path d="M60 70.5C61.9891 70.5 63.8968 71.2902 65.3033 72.6967C66.7098 74.1032 67.5 76.0109 67.5 78C67.5 79.9891 66.7098 81.8968 65.3033 83.3033C63.8968 84.7098 61.9891 85.5 60 85.5" fill="#0052FF"/>
<path d="M60 70.5C58.0109 70.5 56.1032 71.2902 54.6967 72.6967C53.2902 74.1032 52.5 76.0109 52.5 78C52.5 79.9891 53.2902 81.8968 54.6967 83.3033C56.1032 84.7098 58.0109 85.5 60 85.5" fill="#0A0B0D"/>
<path d="M60 35C61.9891 35 63.8968 35.7902 65.3033 37.1967C66.7098 38.6032 67.5 40.5109 67.5 42.5C67.5 44.4891 66.7098 46.3968 65.3033 47.8033C63.8968 49.2098 61.9891 50 60 50" fill="#0A0B0D"/>
</g>
<defs>
<clipPath id="clip0_2128_1868">
<rect width="120" height="120" fill="white"/>
</clipPath>
</defs>
</svg>
