<svg width="120" height="120" viewBox="0 0 120 120" fill="none" xmlns="http://www.w3.org/2000/svg">
<g clip-path="url(#clip0_2127_1335)">
<path d="M60 120C26.9 120 0 93.1 0 60C0 26.9 26.9 0 60 0C93.1 0 120 26.9 120 60C120 93.1 93.1 120 60 120Z" fill="white"/>
<path d="M89.9999 58.9998L30 58.9998L30 85.9997L89.9999 85.9997V58.9998Z" fill="#0052FF"/>
<path d="M43.3494 59.5998L40.9494 64.2497L45.1494 68.4497L49.7994 66.0497C50.8494 65.5997 51.8994 65.4497 52.9494 65.8997C53.9994 66.3497 54.7494 67.2497 55.1994 68.2997L56.8494 73.2497H62.8494L64.4994 68.2997C64.7994 67.2497 65.6994 66.3497 66.5994 66.0497C67.6494 65.5997 68.8494 65.5997 69.7494 66.1997L74.3994 68.5997L78.5994 64.3997L76.4994 59.8998C76.3494 59.5998 76.3494 59.2998 76.1994 58.9998L43.6494 58.9998C43.4994 59.1498 43.4994 59.4498 43.3494 59.5998Z" fill="#101114"/>
<path fill-rule="evenodd" clip-rule="evenodd" d="M78.8999 45.2L83.8499 46.85H83.6999V52.85L78.7499 54.5C77.9697 54.8343 77.2724 55.3344 76.7809 56H43.3006C42.8939 55.265 42.1239 54.5997 41.25 54.35L36.3 52.7V46.7L41.25 45.05C42.3 44.6 43.2 43.85 43.65 42.8C44.1 41.75 43.95 40.7 43.5 39.65L41.1 35L45.45 30.65L50.1 33.05C51 33.65 52.2 33.65 53.25 33.2C54.15 32.9 55.05 32 55.35 30.95L57 26H63L64.95 31.25C65.4 32.3 66.15 33.2 67.2 33.65C68.25 34.1 69.3 33.95 70.35 33.5L74.9999 31.1L79.1999 35.3L76.7999 39.95C76.2 40.85 76.1999 42.05 76.6499 43.1C76.9499 44 77.8499 44.9 78.8999 45.2ZM54.45 49.7C54.45 52.85 57 55.25 60 55.25C63 55.25 65.55 52.85 65.55 49.7C65.55 46.55 63 44.15 60 44.15C56.85 44.15 54.45 46.7 54.45 49.7Z" fill="#CED2DB"/>
</g>
<defs>
<clipPath id="clip0_2127_1335">
<rect width="120" height="120" fill="white"/>
</clipPath>
</defs>
</svg>
