<svg width="120" height="120" viewBox="0 0 120 120" fill="none" xmlns="http://www.w3.org/2000/svg">
<g clip-path="url(#clip0_2127_1345)">
<path d="M60 120C26.9 120 0 93.1 0 60C0 26.9 26.9 0 60 0C93.1 0 120 26.9 120 60C120 93.1 93.1 120 60 120Z" fill="white"/>
<path d="M90 72.417L60.219 89.9999L59.9312 54.7058L90 72.417Z" fill="#0052FF"/>
<path d="M90 47.7112L60.219 65.2941L30 47.4611L59.9312 30L90 47.7112Z" fill="#0052FF"/>
<path d="M59.9308 42.353L40.5262 53.6732L60.1181 65.2348L60.2193 77.6471L90.0003 60.0642L59.9308 42.353Z" fill="#101114"/>
<path d="M36.5686 55.9822L56.0351 67.4701L56.0983 75.2154L30 59.8141L36.5686 55.9822Z" fill="#CED2DB"/>
</g>
<defs>
<clipPath id="clip0_2127_1345">
<rect width="120" height="120" fill="white"/>
</clipPath>
</defs>
</svg>
