<svg width="120" height="120" viewBox="0 0 120 120" fill="none" xmlns="http://www.w3.org/2000/svg">
<g clip-path="url(#clip0_2128_1860)">
<path d="M60 120C26.9 120 0 93.1 0 60C0 26.9 26.9 0 60 0C93.1 0 120 26.9 120 60C120 93.1 93.1 120 60 120Z" fill="white"/>
<path d="M60 41.9592C64.1421 41.9592 67.5 38.6014 67.5 34.4592C67.5 30.3171 64.1421 26.9592 60 26.9592C55.8579 26.9592 52.5 30.3171 52.5 34.4592C52.5 38.6014 55.8579 41.9592 60 41.9592Z" fill="#0052FF"/>
<path d="M90 62H30V87H90V62Z" fill="#CED2DB"/>
<path d="M41.9234 58C44.1102 51.6559 51.3723 47 60 47C68.6277 47 75.8898 51.6559 78.0766 58H41.9234Z" fill="#0052FF"/>
<path d="M78.75 62H41.25V87H78.75V62Z" fill="#0A0B0D"/>
<path fill-rule="evenodd" clip-rule="evenodd" d="M67.1131 70.4041L57.0833 79.978L51.6369 74.7791L53.3631 72.9707L57.0833 76.5218L65.3869 68.5957L67.1131 70.4041Z" fill="white"/>
</g>
<defs>
<clipPath id="clip0_2128_1860">
<rect width="120" height="120" fill="white"/>
</clipPath>
</defs>
</svg>
