<svg width="120" height="120" viewBox="0 0 120 120" fill="none" xmlns="http://www.w3.org/2000/svg">
<g clip-path="url(#clip0_2128_1442)">
<path d="M60 120C26.9 120 0 93.1 0 60C0 26.9 26.9 0 60 0C93.1 0 120 26.9 120 60C120 93.1 93.1 120 60 120Z" fill="white"/>
<path d="M62 30H32V90H62V30Z" fill="#CED2DB"/>
<path fill-rule="evenodd" clip-rule="evenodd" d="M62 35H87V85H37V60V35H62Z" fill="#0A0B0D"/>
<path d="M87 35H62V60H87V35Z" fill="#0052FF"/>
<path d="M87 60H62V85H87V60Z" fill="#CED2DB"/>
<path d="M47 45H37L47 35V45Z" fill="#0052FF"/>
<path d="M32 30L47 35L37 45L32 30Z" fill="#CED2DB"/>
<path d="M49.425 71.25C51.1509 71.25 52.55 69.8509 52.55 68.125C52.55 66.3991 51.1509 65 49.425 65C47.6991 65 46.3 66.3991 46.3 68.125C46.3 69.8509 47.6991 71.25 49.425 71.25Z" fill="white"/>
<path d="M80.75 72.5L68.25 78.75V66.25L80.75 72.5Z" fill="#0A0B0D"/>
<path d="M80.75 41.25H70.75V45H80.75V41.25Z" fill="#0A0B0D"/>
<path d="M70.75 41.25H70.125V52.5H70.75V41.25Z" fill="#0A0B0D"/>
<path d="M80.75 41.25H80.125V52.5H80.75V41.25Z" fill="#0A0B0D"/>
<path d="M68.25 55C69.6307 55 70.75 53.8807 70.75 52.5C70.75 51.1193 69.6307 50 68.25 50C66.8693 50 65.75 51.1193 65.75 52.5C65.75 53.8807 66.8693 55 68.25 55Z" fill="#0052FF"/>
<path d="M78.25 55C79.6307 55 80.75 53.8807 80.75 52.5C80.75 51.1193 79.6307 50 78.25 50C76.8693 50 75.75 51.1193 75.75 52.5C75.75 53.8807 76.8693 55 78.25 55Z" fill="#0A0B0D"/>
<path fill-rule="evenodd" clip-rule="evenodd" d="M70.75 41.25H70.125V50.8464C69.6669 50.3273 68.9967 50 68.25 50C66.8693 50 65.75 51.1193 65.75 52.5C65.75 53.8807 66.8693 55 68.25 55C69.6307 55 70.75 53.8807 70.75 52.5V45H80.125V50.8464C79.6669 50.3273 78.9967 50 78.25 50C76.8693 50 75.75 51.1193 75.75 52.5C75.75 53.8807 76.8693 55 78.25 55C79.6307 55 80.75 53.8807 80.75 52.5V45V41.25H80.125H70.75Z" fill="white"/>
<path d="M55.55 78.7502C55.55 77.1125 54.8994 75.5418 53.7414 74.3838C52.5833 73.2258 51.0127 72.5752 49.375 72.5752C47.7373 72.5752 46.1667 73.2258 45.0086 74.3838C43.8506 75.5418 43.2 77.1125 43.2 78.7502H43.2625H55.55Z" fill="white"/>
</g>
<defs>
<clipPath id="clip0_2128_1442">
<rect width="120" height="120" fill="white"/>
</clipPath>
</defs>
</svg>
