<svg width="120" height="120" viewBox="0 0 40 40" fill="none" xmlns="http://www.w3.org/2000/svg">
<path d="M20 40C8.96667 40 0 31.0333 0 20C0 8.96667 8.96667 0 20 0C31.0333 0 40 8.96667 40 20C40 31.0333 31.0333 40 20 40Z" fill="white"/>
<path d="M19.6675 8.36685L13.1008 30.3002C13.0008 30.6002 13.3675 30.8668 13.6342 30.6668L20.0008 25.7002L26.3675 30.6668C26.6342 30.8668 27.0008 30.6335 26.9008 30.3002L20.3342 8.36685C20.2342 8.06685 19.7675 8.06685 19.6675 8.36685Z" fill="#0052FF"/>
<path d="M15.5332 22.1665L19.9999 25.6999L24.4665 22.1665L22.6332 16.0999H17.3665L15.5332 22.1665Z" fill="#0A0B0D"/>
<path d="M15.9664 16.0999H8.96643C8.66643 16.0999 8.49976 16.4999 8.76642 16.6999L14.4664 21.2332L15.9664 16.0999Z" fill="#BFC4CF"/>
<path d="M31.0332 16.0999H24.0332L25.5665 21.2332L31.2665 16.6999C31.4999 16.4999 31.3665 16.0999 31.0332 16.0999Z" fill="#BFC4CF"/>
</svg>
